<svg enable-background="new 0 0 60 60" viewBox="0 0 60 60" xmlns="http://www.w3.org/2000/svg"><path d="m57.83 32.61-4.15-4.95c-.71-.85-1.97-.96-2.82-.25l-4.95 4.14c-.21.18-.24.49-.06.7.89 1.06 2.46 1.2 3.52.31l1.06-.88c-.69 8.5-6.56 15.66-14.71 18-1.21.35-1.94 1.58-1.72 2.82l.02.12c.05.28.32.47.59.41 10.31-2.05 17.92-10.67 18.79-21.04l.84 1c.89 1.06 2.46 1.2 3.52.31.22-.16.25-.47.07-.69z"/><path d="m7.06 24.68c.46 1.01 1.64 1.45 2.65 1l5.89-2.66c.25-.11.36-.41.25-.66-.57-1.26-2.05-1.82-3.31-1.25l-1.27.57c1.09-2.45 2.64-4.66 4.59-6.52.91-.87 1-2.3.23-3.3l-.08-.1c-.17-.22-.5-.27-.72-.09-2.98 2.39-5.29 5.43-6.8 8.88l-.53-1.18c-.57-1.26-2.05-1.82-3.31-1.25-.25.11-.36.41-.25.66z"/><path d="m12.76 35.24c.64.79 1.73 1.05 2.72.71l.39-.13c.27-.09.41-.39.3-.66-1.43-3.38-5.16-5.38-8.97-4.41-2.86.73-5.1 3.14-5.59 6.05-.63 3.73 1.42 7.18 4.76 8.47.26.1.56-.05.65-.33l.13-.42c.31-.98-.01-2.07-.83-2.69-1.4-1.06-2.13-2.88-1.7-4.78.35-1.56 1.55-2.85 3.07-3.33 1.96-.61 3.92.09 5.07 1.52z"/><path d="m20 37.5c-5.79 0-10.5 4.71-10.5 10.5s4.71 10.5 10.5 10.5 10.5-4.71 10.5-10.5-4.71-10.5-10.5-10.5zm0 18c-4.14 0-7.5-3.36-7.5-7.5s3.36-7.5 7.5-7.5 7.5 3.36 7.5 7.5-3.36 7.5-7.5 7.5z"/><path d="m21.13 43.48h-1.26c-.1 0-.19.02-.3.07l-2.28.92c-.16.05-.21.16-.16.32l.42 1.25c.05.16.16.21.32.16l1.24-.47v6.46c0 .17.09.26.26.26h1.75c.17 0 .26-.09.26-.26v-8.45c.01-.17-.07-.26-.25-.26z"/><path d="m26.86 27.36 7.75 3.87c.56.28 1.23.28 1.79 0l13-6.5c.68-.34 1.11-1.03 1.11-1.79v-12.88c0-.76-.43-1.45-1.11-1.79l-13-6.5c-.56-.28-1.23-.28-1.79 0l-13 6.5c-.68.34-1.11 1.03-1.11 1.79v7.01c0 4.38 2.44 8.32 6.36 10.29zm20.64-5.04-10.5 5.25v-10.14l10.5-5.25zm-1.85-12.57-10.15 5.07-3.4-1.7 10.15-5.07zm-10.15-5.07 3.4 1.7-10.15 5.07-3.4-1.7zm-12 7.5 10.5 5.25v10.15l-5.8-2.9c-2.9-1.45-4.7-4.36-4.7-7.6z"/></svg>