<svg enable-background="new 0 0 60 60" viewBox="0 0 60 60" xmlns="http://www.w3.org/2000/svg"><path d="m57.42 31.53-12.42-6.44v-12.79c0-.75-.42-1.43-1.08-1.78l-13-6.74c-.58-.3-1.26-.3-1.84 0l-13 6.74c-.66.35-1.08 1.04-1.08 1.78v12.78l-12.42 6.45c-.66.34-1.08 1.03-1.08 1.77v7.62c0 4.31 2.38 8.22 6.21 10.21l7.87 4.08c.58.3 1.26.3 1.84 0l12.58-6.52 12.58 6.52c.58.3 1.26.3 1.84 0l13-6.74c.66-.34 1.08-1.03 1.08-1.78v-13.39c0-.74-.42-1.43-1.08-1.77zm-13.92 6.78-10.24-5.31.91-.47 9.33-4.84 10.24 5.31zm-15-18.4v10.62l-10.5-5.44v-10.62zm3 10.62v-10.62l10.5-5.44v10.62zm-5.67 2 .91.47-10.24 5.31-10.24-5.31 10.24-5.31zm-7.83 8.38 10.5-5.44v10.62l-10.5 5.44zm12-34.22 10.24 5.31-10.24 5.31-10.24-5.31zm-25.5 34.23v-5.45l10.5 5.44v10.62l-5.91-3.07c-2.83-1.46-4.59-4.35-4.59-7.54zm27-5.45 10.5 5.44v10.62l-10.5-5.44zm13.5 16.06v-10.62l10.5-5.44v10.62z"/></svg>