<svg viewBox="0 0 60 60" xmlns="http://www.w3.org/2000/svg"><path d="M57.42 31.53L45 25.09V12.3c0-.75-.42-1.43-1.08-1.78l-13-6.74c-.58-.3-1.26-.3-1.84 0l-13 6.74c-.66.35-1.08 1.04-1.08 1.78v12.78L2.58 31.53c-.66.34-1.08 1.03-1.08 1.77v7.62c0 4.31 2.38 8.22 6.21 10.21l7.87 4.08c.58.3 1.26.3 1.84 0L30 48.69l12.58 6.52c.58.3 1.26.3 1.84 0l13-6.74c.66-.34 1.08-1.03 1.08-1.78V33.3c0-.74-.42-1.43-1.08-1.77zM43.5 38.31L33.26 33l.91-.47 9.33-4.84L53.74 33zm-15-18.4v10.62L18 25.09V14.47zm3 10.62V19.91L42 14.47v10.62zm-5.67 2l.91.47-10.24 5.31L6.26 33l10.24-5.31zM18 40.91l10.5-5.44v10.62L18 51.53zM30 6.69L40.24 12 30 17.31 19.76 12zM4.5 40.92v-5.45L15 40.91v10.62l-5.91-3.07C6.26 47 4.5 44.11 4.5 40.92zm27-5.45L42 40.91v10.62l-10.5-5.44zM45 51.53V40.91l10.5-5.44v10.62z"/></svg>