<svg enable-background="new 0 0 60 60" viewBox="0 0 60 60" xmlns="http://www.w3.org/2000/svg"><path d="m56.95 15.32-18.01-8.54c-.72-.34-1.57-.22-2.17.3l-6.77 5.93-6.77-5.92c-.6-.52-1.45-.64-2.17-.3l-18.01 8.53c-1.3.62-1.54 2.36-.46 3.31l6.38 5.58-4.8 6.4c-.76 1.01-.4 2.47.74 3.01l4.59 2.17v.88c0 4.44 2.56 8.49 6.58 10.39l13.07 6.19c.54.26 1.17.26 1.71 0l18.5-8.76c.7-.33 1.14-1.03 1.14-1.81v-6.89l4.59-2.17c1.14-.54 1.5-2 .74-3.01l-4.8-6.4 6.38-5.58c1.09-.95.84-2.7-.46-3.31zm-26.95 16.02-15.5-7.34 15.5-7.34 15.5 7.34zm-8.25-21.56 5.54 4.85-16.04 7.6-5.54-4.85zm-10.28 16.1 16.23 7.69-4.16 5.55-16.24-7.69zm1.07 11.35 10.45 4.95c.86.41 1.89.15 2.46-.61l3.06-4.07v12.13l-11.14-5.28c-2.81-1.32-4.63-4.06-4.83-7.12zm34.96 4.82-16 7.58v-12.13l3.06 4.07c.57.76 1.6 1.01 2.46.61l10.49-4.97v4.84zm-11.04-2.93-4.16-5.55 16.23-7.69 4.16 5.55zm12.29-16.9-16.04-7.6 5.54-4.85 16.04 7.6z"/></svg>