<svg enable-background="new 0 0 60 60" viewBox="0 0 60 60" xmlns="http://www.w3.org/2000/svg"><path d="m19.61 40.23c.56.28 1.23.28 1.79 0l17-8.5c.68-.34 1.11-1.03 1.11-1.79v-16.88c0-.76-.43-1.45-1.11-1.79l-17-8.5c-.56-.28-1.23-.28-1.79 0l-17 8.5c-.68.34-1.11 1.03-1.11 1.79v11.01c0 4.36 2.46 8.34 6.36 10.29zm16.89-10.91-14.5 7.25v-14.14l14.5-7.25zm-1.85-16.57-14.15 7.07-5.4-2.7 14.15-7.07zm-14.15-7.07 5.4 2.7-14.15 7.07-5.4-2.7zm-16 18.39v-8.89l14.5 7.25v14.15l-9.8-4.9c-2.9-1.46-4.7-4.37-4.7-7.61z"/><path d="m30.51 1.5c-.28 0-.51.23-.51.51v.11c0 1.31 1.01 2.37 2.31 2.49 12.98 1.17 23.19 12.11 23.19 25.39 0 14.52-12.21 26.25-26.9 25.46-6.42-.34-12.45-3.24-17-7.79l-1.17-1.17h5.9c1.38 0 2.5-1.12 2.5-2.5 0-.28-.22-.5-.5-.5h-11c-1.1 0-2 .9-2 2v11c0 .28.22.5.5.5 1.38 0 2.5-1.12 2.5-2.5v-5.85l1.1 1.1c5.08 5.08 11.82 8.33 19 8.71 16.43.88 30.07-12.23 30.07-28.46 0-15.54-12.51-28.22-27.99-28.5z"/></svg>