<svg enable-background="new 0 0 60 60" viewBox="0 0 60 60" xmlns="http://www.w3.org/2000/svg"><path d="m30.51 1.5c-.28 0-.51.23-.51.51v.11c0 1.31 1.01 2.37 2.31 2.49 12.98 1.17 23.19 12.11 23.19 25.39 0 14.52-12.21 26.25-26.9 25.46-6.42-.34-12.45-3.24-17-7.79l-1.17-1.17h5.9c1.38 0 2.5-1.12 2.5-2.5 0-.28-.22-.5-.5-.5h-11c-1.1 0-2 .9-2 2v11c0 .28.22.5.5.5 1.38 0 2.5-1.12 2.5-2.5v-5.85l1.1 1.1c5.08 5.08 11.82 8.33 19 8.71 16.43.88 30.07-12.23 30.07-28.46 0-15.54-12.51-28.22-27.99-28.5z"/><path d="m34.79 37.18c-.42.32-1.04.48-1.85.48-.45 0-.87-.04-1.26-.12s-.76-.2-1.11-.37c-.11-.06-.21-.07-.29-.03s-.15.12-.19.24l-.46 1.74c-.03.08-.02.16.01.24s.09.14.18.18c.38.2.85.35 1.42.47s1.17.18 1.82.18c1.64 0 2.92-.38 3.85-1.15s1.4-1.82 1.4-3.15c0-.95-.28-1.74-.84-2.35s-1.28-.97-2.16-1.05v-.08c.77-.21 1.39-.63 1.87-1.27s.71-1.4.71-2.28c0-1.11-.37-1.99-1.1-2.66-.73-.66-1.73-1-2.97-1-1.06 0-1.97.23-2.73.68-.76.46-1.36 1.14-1.81 2.05-.06.1-.07.19-.04.27s.08.15.17.21l1.43.84c.1.06.19.07.27.05s.16-.09.23-.2c.25-.48.56-.83.91-1.06.36-.23.78-.35 1.27-.35.5 0 .91.15 1.21.45s.45.7.45 1.21c0 .69-.27 1.21-.8 1.56s-1.31.54-2.33.54h-.25c-.07 0-.13.02-.17.05-.04.04-.06.09-.06.16v1.85c0 .07.02.13.06.17s.1.06.17.06h.27c1.12 0 1.96.16 2.52.49s.84.82.84 1.48c-.01.66-.22 1.15-.64 1.47z"/><path d="m45.88 40.2c1.67 0 2.99-.66 3.97-1.97.98-1.32 1.47-3.16 1.47-5.52 0-2.37-.49-4.21-1.47-5.52-.98-1.32-2.3-1.97-3.97-1.97-1.68 0-3.01.66-3.99 1.97-.98 1.32-1.47 3.16-1.47 5.52 0 2.37.49 4.21 1.47 5.52s2.31 1.97 3.99 1.97zm-1.87-11.22c.43-.85 1.06-1.27 1.87-1.27s1.43.42 1.86 1.27.64 2.09.64 3.73c0 1.62-.21 2.85-.64 3.69-.43.83-1.05 1.25-1.86 1.25s-1.44-.42-1.87-1.26-.65-2.07-.65-3.68c0-1.64.21-2.89.65-3.73z"/><path d="m19.61 40.23c.56.28 1.23.28 1.79 0l4.83-2.41c.25-.12.35-.42.22-.67-.62-1.24-2.12-1.74-3.35-1.12l-1.1.54v-14.14l14.5-7.25v4.31c0 1.38 1.12 2.5 2.5 2.5.28 0 .5-.22.5-.5v-8.43c0-.76-.43-1.45-1.11-1.79l-17-8.5c-.56-.28-1.23-.28-1.79 0l-17 8.5c-.67.34-1.1 1.03-1.1 1.79v11.01c0 4.36 2.46 8.34 6.36 10.29zm15.04-27.48-14.15 7.07-5.4-2.7 14.15-7.07zm-14.15-7.07 5.4 2.7-14.15 7.07-5.4-2.7zm-16 18.39v-8.89l14.5 7.25v14.15l-9.8-4.9c-2.88-1.45-4.7-4.39-4.7-7.61z"/></svg>