<svg viewBox="0 0 60 60" xmlns="http://www.w3.org/2000/svg"><path d="M30.51 1.5c-.28 0-.51.23-.51.51v.11c0 1.31 1.01 2.37 2.31 2.49C45.29 5.78 55.5 16.72 55.5 30c0 14.52-12.21 26.25-26.9 25.46-6.42-.34-12.45-3.24-17-7.79l-1.17-1.17h5.9c1.38 0 2.5-1.12 2.5-2.5 0-.28-.22-.5-.5-.5h-11c-1.1 0-2 .9-2 2v11c0 .28.22.5.5.5 1.38 0 2.5-1.12 2.5-2.5v-5.85l1.1 1.1c5.08 5.08 11.82 8.33 19 8.71C44.86 59.34 58.5 46.23 58.5 30c0-15.54-12.51-28.22-27.99-28.5z"/><path d="M31.95 37.64c-.31 0-.62-.02-.92-.06-.31-.04-.59-.1-.84-.19-.13-.03-.23-.02-.3.03s-.12.14-.14.26l-.27 1.72c-.01.11 0 .2.04.27s.11.12.21.15c.32.13.68.22 1.08.28s.83.09 1.29.09c2.13 0 3.76-.7 4.89-2.09s1.7-3.42 1.7-6.08c0-2.25-.43-3.95-1.3-5.1s-2.15-1.72-3.84-1.72c-1.44 0-2.6.44-3.49 1.33-.88.89-1.32 2.08-1.32 3.56 0 1.5.37 2.68 1.1 3.55.74.87 1.73 1.3 2.97 1.3.66 0 1.22-.1 1.69-.3s.85-.51 1.14-.91h.11c-.11 1.33-.48 2.31-1.09 2.95s-1.52.96-2.71.96zm2.79-5.23c-.37.17-.77.25-1.21.25-.67 0-1.19-.23-1.55-.68s-.55-1.11-.55-1.96c0-.76.18-1.35.55-1.77.36-.43.87-.64 1.51-.64.77 0 1.34.32 1.7.97.37.64.57 1.66.61 3.04-.34.36-.69.62-1.06.79zM45.88 40.2c1.67 0 2.99-.66 3.97-1.97.98-1.32 1.47-3.16 1.47-5.52 0-2.37-.49-4.21-1.47-5.52-.98-1.32-2.3-1.97-3.97-1.97-1.68 0-3.01.66-3.99 1.97-.98 1.32-1.47 3.16-1.47 5.52 0 2.37.49 4.21 1.47 5.52s2.31 1.97 3.99 1.97zm-1.87-11.22c.43-.85 1.06-1.27 1.87-1.27s1.43.42 1.86 1.27.64 2.09.64 3.73c0 1.62-.21 2.85-.64 3.69-.43.83-1.05 1.25-1.86 1.25s-1.44-.42-1.87-1.26-.65-2.07-.65-3.68c0-1.64.21-2.89.65-3.73z"/><path d="M19.61 40.23c.56.28 1.23.28 1.79 0l4.83-2.41c.25-.12.35-.42.22-.67-.62-1.24-2.12-1.74-3.35-1.12l-1.1.54V22.43l14.5-7.25v4.31c0 1.38 1.12 2.5 2.5 2.5.28 0 .5-.22.5-.5v-8.43c0-.76-.43-1.45-1.11-1.79l-17-8.5c-.56-.28-1.23-.28-1.79 0l-17 8.5c-.67.34-1.1 1.03-1.1 1.79v11.01c0 4.36 2.46 8.34 6.36 10.29zm15.04-27.48L20.5 19.82l-5.4-2.7 14.15-7.07zM20.5 5.68l5.4 2.7-14.15 7.07-5.4-2.7zm-16 18.39v-8.89L19 22.43v14.15l-9.8-4.9c-2.88-1.45-4.7-4.39-4.7-7.61z"/></svg>