<svg enable-background="new 0 0 60 60" viewBox="0 0 60 60" xmlns="http://www.w3.org/2000/svg"><path d="m57.39 15.02-26.5-13.25c-.56-.28-1.23-.28-1.79 0l-26.49 13.25c-.68.34-1.11 1.03-1.11 1.79v20.51c0 4.36 2.46 8.34 6.36 10.29l21.25 10.62c.56.28 1.23.28 1.79 0l26.5-13.25c.68-.34 1.11-1.03 1.11-1.79v-26.38c-.01-.76-.44-1.45-1.12-1.79zm-27.39-10.34 10.15 5.07-23.65 11.82-10.15-5.07zm-1.5 49.89-19.3-9.65c-2.9-1.45-4.7-4.36-4.7-7.6v-18.39l24 12zm1.5-26.25-10.15-5.07 23.65-11.82 10.15 5.07zm25.5 14.25-24 12v-23.64l24-12z"/></svg>