<svg viewBox="0 0 60 60" xmlns="http://www.w3.org/2000/svg"><path d="M46.72 17.32h-.73v-3.81c0-1.1-.9-2-2-2H9.24c-1.1 0-2 .9-2 2V14c0 1.38 1.12 2.5 2.5 2.5.28 0 .5-.22.5-.5v-1.49h32.75v25.15H10.24v-1.67c0-.28-.22-.5-.5-.5-1.38 0-2.5 1.12-2.5 2.5v.67c0 1.1.9 2 2 2h4.58c.24 3.24 2.94 5.81 6.24 5.81s6.01-2.57 6.24-5.81h16.72c.24 3.24 2.94 5.81 6.24 5.81s6.01-2.57 6.24-5.81h.99c1.1 0 2-.9 2-2V29.1c.01-6.5-5.27-11.78-11.77-11.78zM20.06 45.47c-1.64 0-2.99-1.23-3.22-2.81h6.44c-.22 1.58-1.57 2.81-3.22 2.81zm25.93-25.15h.73c4.33 0 7.93 3.15 8.65 7.28h-9.38zm3.28 25.15c-1.64 0-2.99-1.23-3.22-2.81h6.44c-.23 1.58-1.58 2.81-3.22 2.81zm6.23-5.81h-9.51V30.6h9.51z"/><path d="M16 34v-2c0-.28-.22-.5-.5-.5h-12c-.28 0-.5.22-.5.5 0 1.38 1.12 2.5 2.5 2.5h10c.28 0 .5-.22.5-.5zM7.5 28.5h8c.28 0 .5-.22.5-.5v-2c0-.28-.22-.5-.5-.5h-10c-.28 0-.5.22-.5.5 0 1.38 1.12 2.5 2.5 2.5zM9.5 22.5h6c.28 0 .5-.22.5-.5v-2c0-.28-.22-.5-.5-.5h-8c-.28 0-.5.22-.5.5 0 1.38 1.12 2.5 2.5 2.5z"/></svg>