<svg enable-background="new 0 0 60 60" viewBox="0 0 60 60" xmlns="http://www.w3.org/2000/svg"><path d="m56.79 5.45-26.5-3.93c-.19-.03-.39-.03-.59 0l-26.49 3.93c-.98.15-1.71.99-1.71 1.98v5.07c0 1.1.9 2 2 2h1v9c0 .28.22.5.5.5 1.38 0 2.5-1.12 2.5-2.5v-7h45v32h-7c-1.38 0-2.5 1.12-2.5 2.5 0 .28.22.5.5.5h10c1.1 0 2-.9 2-2v-33h1c1.1 0 2-.9 2-2v-5.07c0-.99-.73-1.83-1.71-1.98zm-1.29 6.05h-51v-3.21l25.5-3.77 25.5 3.78z"/><path d="m38.39 29.27-17-8.5c-.56-.28-1.23-.28-1.79 0l-17 8.5c-.67.34-1.1 1.03-1.1 1.79v11.01c0 4.36 2.46 8.34 6.36 10.29l11.75 5.87c.56.28 1.23.28 1.79 0l17-8.5c.68-.34 1.11-1.03 1.11-1.79v-16.88c-.01-.76-.44-1.45-1.12-1.79zm-17.89-5.59 5.4 2.7-14.15 7.07-5.4-2.7zm-1.5 30.89-9.8-4.9c-2.9-1.45-4.7-4.36-4.7-7.6v-8.89l14.5 7.25zm1.5-16.75-5.4-2.7 14.15-7.07 5.4 2.7zm16 9.5-14.5 7.25v-14.14l14.5-7.25z"/><path d="m49 21c0-.28-.22-.5-.5-.5h-12c-.28 0-.5.22-.5.5 0 1.38 1.12 2.5 2.5 2.5h10c.28 0 .5-.22.5-.5z"/><path d="m49 29c0-.28-.22-.5-.5-.5h-5c-.28 0-.5.22-.5.5 0 1.38 1.12 2.5 2.5 2.5h3c.28 0 .5-.22.5-.5z"/><path d="m48.5 36.5h-5c-.28 0-.5.22-.5.5 0 1.38 1.12 2.5 2.5 2.5h3c.28 0 .5-.22.5-.5v-2c0-.28-.22-.5-.5-.5z"/></svg>