<svg enable-background="new 0 0 60 60" viewBox="0 0 60 60" xmlns="http://www.w3.org/2000/svg"><path d="m22.38 57.21-7.3-12.28-12.29-7.31c-1.12-.67-1.31-2.21-.39-3.13l2.34-2.34c.51-.52 1.26-.71 1.96-.51l10.81 3.12 12.45-12.45-18.16-10.69c-1.13-.66-1.32-2.21-.4-3.14l5.31-5.31c.57-.57 1.42-.74 2.17-.44l21.77 8.89c4.02-4.02 6.94-6.94 7.02-7.02 1.51-1.51 3.28-2.6 5-3.08 2.01-.56 3.75-.24 4.9.91 2.17 2.17 1.21 6.51-2.17 9.89-.06.06-5.11 5.13-7 7.02l8.87 21.77c.3.75.13 1.6-.44 2.17l-5.22 5.22c-.92.92-2.47.73-3.13-.39l-10.78-18.09-12.46 12.46 3.12 10.82c.2.7.01 1.45-.51 1.97l-2.34 2.34c-.92.92-2.46.73-3.13-.4zm-16.96-21.51 11.41 6.79c.29.17.53.41.7.7l6.78 11.39 1.01-1.01-3.12-10.82c-.2-.7-.01-1.45.51-1.97l13.79-13.79c.92-.92 2.47-.73 3.13.39l10.77 18.1 3.84-3.84-8.87-21.77c-.3-.74-.13-1.59.43-2.16.63-.63 1.48-1.48 2.2-2.21 2.25-2.25 5.24-5.26 5.27-5.29 1.13-1.13 1.97-2.47 2.31-3.68.25-.9.2-1.63-.14-1.97s-1.07-.39-1.97-.14c-1.21.34-2.55 1.18-3.68 2.31-.04.04-2.16 2.16-5.27 5.27l-2.22 2.22c-.57.57-1.42.74-2.17.44l-21.77-8.89-3.92 3.92 18.16 10.69c1.13.66 1.33 2.21.4 3.14l-13.79 13.78c-.51.51-1.27.71-1.97.51l-10.81-3.12z"/></svg>