<svg enable-background="new 0 0 60 60" viewBox="0 0 60 60" xmlns="http://www.w3.org/2000/svg"><path d="m47 16h-2.5v-4.5c0-1.1-.9-2-2-2h-39c-1.1 0-2 .9-2 2v30.5c0 1.1.9 2 2 2h5.35c.18 3.61 3.16 6.5 6.82 6.5s6.64-2.89 6.82-6.5h19.01.03c.18 3.61 3.16 6.5 6.82 6.5 3.65 0 6.64-2.89 6.82-6.5h1.34c1.1 0 2-.9 2-2v-11.5-3c-.01-6.34-5.17-11.5-11.51-11.5zm0 3c4.69 0 8.5 3.81 8.5 8.5h-11v-8.5zm-31.33 28.5c-2 0-3.63-1.54-3.8-3.5h7.6c-.18 1.96-1.8 3.5-3.8 3.5zm25.83-6.5h-37v-28.5h37v3.5 11.5 3zm6.85 6.5c-2 0-3.63-1.54-3.8-3.5h7.6c-.18 1.96-1.8 3.5-3.8 3.5zm7.15-6.5h-11v-10.5h11z"/></svg>