<svg xmlns="http://www.w3.org/2000/svg" viewBox="0 0 60 60"><path d="M30,0A30,30,0,1,1,0,30,30,30,0,0,1,30,0ZM15.25,30.34l-2.07.38a.52.52,0,0,0-.42.61c.09.48.22,1.14.25,1.3a18.17,18.17,0,0,0,10.7,12.95l.11,0c.34.14.67.26,1,.38a15.85,15.85,0,0,0,5.16.84A16.22,16.22,0,0,0,35.17,46c.35-.12.68-.24,1-.38l.12,0A18.15,18.15,0,0,0,47,32.64c0-.15.15-.77.24-1.25a.6.6,0,0,0-.47-.68,2.63,2.63,0,0,0-3,1.91h0A15.07,15.07,0,0,1,35,42.71c-.28.11-.58.22-.87.31A15.56,15.56,0,0,1,25,42.68l-.05,0a15,15,0,0,1-8.66-10c-.06-.23-.26-1.25-.39-1.88A.5.5,0,0,0,15.25,30.34Zm6.33-13a3.16,3.16,0,1,0,3.16,3.16A3.15,3.15,0,0,0,21.58,17.37Zm16.84,0a3.16,3.16,0,1,0,3.16,3.16A3.16,3.16,0,0,0,38.42,17.37Z" transform="translate(0 0)"/></svg>
