<svg enable-background="new 0 0 60 60" viewBox="0 0 60 60" xmlns="http://www.w3.org/2000/svg"><path d="m30 1.5c-15.71 0-28.5 12.79-28.5 28.5s12.79 28.5 28.5 28.5 28.5-12.79 28.5-28.5-12.79-28.5-28.5-28.5zm0 54c-14.06 0-25.5-11.44-25.5-25.5s11.44-25.5 25.5-25.5 25.5 11.44 25.5 25.5-11.44 25.5-25.5 25.5z"/><circle cx="22" cy="21" r="3"/><circle cx="38" cy="21" r="3"/><path d="m38.53 34h-7.36c-3.05 0-5.98 1.21-8.13 3.37l-2.72 2.72c-.2.2-.2.51 0 .71l1.41 1.41c.2.2.51.2.71 0l2.72-2.72c1.6-1.59 3.76-2.49 6.02-2.49h5.36c1.38 0 2.5-1.12 2.5-2.5-.01-.28-.23-.5-.51-.5z"/></svg>