<svg enable-background="new 0 0 60 60" viewBox="0 0 60 60" xmlns="http://www.w3.org/2000/svg"><path d="m30 1.5c-15.71 0-28.5 12.79-28.5 28.5s12.79 28.5 28.5 28.5 28.5-12.79 28.5-28.5-12.79-28.5-28.5-28.5zm0 54c-14.06 0-25.5-11.44-25.5-25.5s11.44-25.5 25.5-25.5 25.5 11.44 25.5 25.5-11.44 25.5-25.5 25.5z"/><circle cx="22" cy="21" r="3"/><circle cx="38" cy="21" r="3"/><path d="m45.48 40.58c-3.42-5.49-9.38-8.72-15.87-8.57-6.27.14-11.97 3.68-15.28 9l-.3.48c-.15.23-.07.54.16.69l1.7 1.06c.23.15.54.07.69-.16l.32-.52c2.76-4.44 7.51-7.42 12.74-7.55 4.9-.12 9.44 2.05 12.38 5.85.08.11.24.33.42.61.75 1.12 2.26 1.45 3.4.74l.04-.02c.23-.15.31-.45.16-.69z"/></svg>