<svg enable-background="new 0 0 60 60" viewBox="0 0 60 60" xmlns="http://www.w3.org/2000/svg"><path d="m30 1.5c-15.71 0-28.5 12.79-28.5 28.5s12.79 28.5 28.5 28.5 28.5-12.79 28.5-28.5-12.79-28.5-28.5-28.5zm0 54c-14.06 0-25.5-11.44-25.5-25.5s11.44-25.5 25.5-25.5 25.5 11.44 25.5 25.5-11.44 25.5-25.5 25.5z"/><circle cx="22" cy="21" r="3"/><circle cx="38" cy="21" r="3"/><path d="m45.9 34.81-.72-.25c-.88-.3-1.84-.06-2.51.58-.9.86-2.38 1.96-4.13 2.85-2.56 1.32-5.52 2.01-8.54 2.01s-5.98-.69-8.55-2.01c-2.36-1.21-4.24-2.8-4.85-3.65-.13-.19-.36-.27-.58-.19l-1.93.66c-.3.1-.43.44-.28.72 1.13 2.09 4.5 4.23 6.26 5.13 3 1.53 6.43 2.34 9.93 2.34s6.93-.81 9.92-2.34c1.76-.9 5.13-3.04 6.26-5.13.15-.28.02-.62-.28-.72z"/></svg>