<svg enable-background="new 0 0 60 60" viewBox="0 0 60 60" xmlns="http://www.w3.org/2000/svg"><path d="m30 1.5c-15.71 0-28.5 12.79-28.5 28.5s12.79 28.5 28.5 28.5 28.5-12.79 28.5-28.5-12.79-28.5-28.5-28.5zm0 54c-14.06 0-25.5-11.44-25.5-25.5s11.44-25.5 25.5-25.5 25.5 11.44 25.5 25.5-11.44 25.5-25.5 25.5z"/><circle cx="22" cy="21" r="3"/><circle cx="38" cy="21" r="3"/><path d="m45.93 30.67c-1.28-.23-2.53.56-2.87 1.82v.01c-1.17 4.33-4.18 7.85-8.32 9.57-.27.11-.55.21-.83.3-2.41.8-6.35.63-8.7-.32-.02-.01-.03-.01-.05-.02-4.05-1.69-7.06-5.2-8.22-9.53-.06-.22-.25-1.19-.37-1.79-.05-.27-.31-.44-.58-.39l-1.97.36c-.27.05-.45.31-.4.58.09.46.21 1.09.24 1.24 1.25 5.59 5 10.15 10.16 12.3l.11.04c.32.13.64.25.97.36 1.57.54 3.24.8 4.9.8s3.33-.26 4.91-.79c.33-.11.65-.23.97-.36l.11-.04c5.16-2.15 8.92-6.71 10.16-12.3.03-.14.14-.73.23-1.19.05-.3-.15-.59-.45-.65z"/></svg>