<svg xmlns="http://www.w3.org/2000/svg" viewBox="0 0 60 60"><path d="M30,0A30,30,0,1,1,0,30,30,30,0,0,1,30,0ZM15.28,34.37l-2,.69a.53.53,0,0,0-.29.76c1.19,2.2,4.73,4.45,6.59,5.4a23.4,23.4,0,0,0,20.89,0c1.85-.95,5.4-3.2,6.59-5.4a.53.53,0,0,0-.29-.76L46,34.8a2.6,2.6,0,0,0-2.64.61,19.24,19.24,0,0,1-4.35,3,20.14,20.14,0,0,1-18,0,16.61,16.61,0,0,1-5.11-3.84A.5.5,0,0,0,15.28,34.37Zm6.3-17a3.16,3.16,0,1,0,3.16,3.16A3.15,3.15,0,0,0,21.58,17.37Zm16.84,0a3.16,3.16,0,1,0,3.16,3.16A3.16,3.16,0,0,0,38.42,17.37Z" transform="translate(0 0)"/></svg>
