<svg enable-background="new 0 0 60 60" viewBox="0 0 60 60" xmlns="http://www.w3.org/2000/svg"><path d="m30 1.5c-15.71 0-28.5 12.79-28.5 28.5s12.79 28.5 28.5 28.5 28.5-12.79 28.5-28.5-12.79-28.5-28.5-28.5zm0 54c-14.06 0-25.5-11.44-25.5-25.5s11.44-25.5 25.5-25.5 25.5 11.44 25.5 25.5-11.44 25.5-25.5 25.5z"/><circle cx="22" cy="21" r="3"/><circle cx="38" cy="21" r="3"/><path d="m45.44 28.5h-30.88c-.59 0-1.06.48-1.06 1.06 0 9.23 7.55 17.09 16.78 16.93 8.97-.14 16.22-7.49 16.22-16.49v-.44c0-.58-.48-1.06-1.06-1.06zm-15.44 15c-6.94 0-12.67-5.26-13.42-12h26.83c-.74 6.74-6.47 12-13.41 12z"/></svg>