<svg xmlns="http://www.w3.org/2000/svg" viewBox="0 0 60 60"><path d="M30,0A30,30,0,1,1,0,30,30,30,0,0,1,30,0Zm-.41,32.12a19.64,19.64,0,0,0-16.08,9.47l-.32.5a.53.53,0,0,0,.17.73l1.79,1.12a.53.53,0,0,0,.72-.17l.34-.55a16.5,16.5,0,0,1,13.41-7.95,15.89,15.89,0,0,1,13,6.16c.09.12.26.35.44.64a2.64,2.64,0,0,0,3.58.78l0,0a.52.52,0,0,0,.16-.72l-.59-1A19,19,0,0,0,29.59,32.12Zm-8-14.75a3.16,3.16,0,1,0,3.16,3.16A3.15,3.15,0,0,0,21.58,17.37Zm16.84,0a3.16,3.16,0,1,0,3.16,3.16A3.16,3.16,0,0,0,38.42,17.37Z" transform="translate(0 0)"/></svg>
