<svg xmlns="http://www.w3.org/2000/svg" viewBox="0 0 60 60"><path d="M30 0A30 30 0 110 30 30 30 0 0130 0zM15.25 30.34l-2.07.38a.52.52 0 00-.42.61c.09.48.22 1.14.25 1.3a18.17 18.17 0 0010.7 12.95h.11c.34.14.67.26 1 .38a15.85 15.85 0 005.16.84 16.22 16.22 0 005.19-.8c.35-.12.68-.24 1-.38h.12A18.15 18.15 0 0047 32.64c0-.15.15-.77.24-1.25a.6.6 0 00-.47-.68 2.63 2.63 0 00-3 1.91A15.07 15.07 0 0135 42.71c-.28.11-.58.22-.87.31a15.56 15.56 0 01-9.13-.34h-.05a15 15 0 01-8.66-10c-.06-.23-.26-1.25-.39-1.88a.5.5 0 00-.65-.46zm6.33-13a3.16 3.16 0 103.16 3.16 3.15 3.15 0 00-3.16-3.13zm16.84 0a3.16 3.16 0 103.16 3.16 3.16 3.16 0 00-3.16-3.13z" fill-rule="evenodd"/></svg>
