<svg xmlns="http://www.w3.org/2000/svg" viewBox="0 0 60 60"><path d="M28.6764,51.87591h0a1.62687,1.62687,0,0,0,2.56214,0C42.58817,37.03976,48.75,27.24709,48.75,18.01255c0-9.91444-8.39576-17.982-18.729-18.01249A18.66977,18.66977,0,0,0,11.599,22.27465C13.166,30.34218,19.05251,39.29258,28.6764,51.87591Z"/><path d="M39.69608,12.93089a2.54378,2.54378,0,0,0-3.57383-.02l-9.63834,8.96435L22.46942,17.5211a.51119.51119,0,0,0-.71678-.01L20.309,18.915a.503.503,0,0,0-.0101.712l4.72118,5.07613a2.02654,2.02654,0,0,0,2.86714.03009L39.69608,13.64291A.503.503,0,0,0,39.69608,12.93089Z" style="fill:#fff"/></svg>