<svg xmlns="http://www.w3.org/2000/svg" viewBox="0 0 60 60"><path d="M30.021.00006C40.35424.03057,48.75,8.09811,48.75,18.01255c0,9.23454-6.16183,19.02721-17.51146,33.86336l-.1.11858a1.62925,1.62925,0,0,1-2.46209-.11858L28.20611,51.26c-9.34544-12.26061-15.06585-21.05-16.60709-28.98532A18.66977,18.66977,0,0,1,30.021.00006Zm8.92592,47.30471.08589.0016c5.6625.675,12.15938,2.20312,12.15938,5.6625,0,5.89506-18.96283,6.15726-21.033,6.16828h-.309c-2.07077-.011-21.04235-.27322-21.04235-6.16828,0-3.44063,6.46875-4.97813,12.09375-5.65313a.458.458,0,0,1,.51563.4125l.01875.19688a2.33676,2.33676,0,0,1-1.95938,2.57812c-4.95.75938-7.20937,1.89375-7.66875,2.46563.89063,1.20937,7.39688,3.20625,18.1875,3.20625s17.29688-2.00625,18.1875-3.20625c-.45937-.57188-2.7375-1.70625-7.725-2.475a2.34228,2.34228,0,0,1-1.95937-2.57813l.01875-.19687a.46567.46567,0,0,1,.51562-.4125Z"/><path d="M29.95922,28.379a1.94193,1.94193,0,0,0,1.45453-.57094A2.01359,2.01359,0,0,0,31.97109,26.34a2.04934,2.04934,0,0,0-.55734-1.49531,1.94193,1.94193,0,0,0-1.45453-.57094,1.81039,1.81039,0,0,0-1.38656.58453A2.09008,2.09008,0,0,0,28.02891,26.34a2.04182,2.04182,0,0,0,.54375,1.46812A1.83132,1.83132,0,0,0,29.95922,28.379Zm1.06032-5.89969A.50819.50819,0,0,0,31.373,22.357a.4338.4338,0,0,0,.13594-.33984q.05438-1.93032.1903-6.90563t.13595-5.27437A.42413.42413,0,0,0,31.373,9.375H28.59985a.4431.4431,0,0,0-.32625.10875.48535.48535,0,0,0-.10875.35344l.00054.06791q.00762.62084.1218,5.31521.12234,5.02969.17672,6.79688a.4338.4338,0,0,0,.13594.33984.50821.50821,0,0,0,.35344.12234Z" style="fill:#fff"/></svg>