<svg xmlns="http://www.w3.org/2000/svg" viewBox="0 0 60 60"><path d="M28.6764,51.87591h0a1.62687,1.62687,0,0,0,2.56214,0C42.58817,37.03976,48.75,27.24709,48.75,18.01255c0-9.91444-8.39576-17.982-18.729-18.01249A18.66977,18.66977,0,0,0,11.599,22.27465C13.166,30.34218,19.05251,39.29258,28.6764,51.87591Z"/><path d="M29.95922,28.37906a1.94193,1.94193,0,0,0,1.45453-.57094A2.01359,2.01359,0,0,0,31.97109,26.34a2.04934,2.04934,0,0,0-.55734-1.49531,1.94193,1.94193,0,0,0-1.45453-.57094,1.81039,1.81039,0,0,0-1.38656.58453A2.09008,2.09008,0,0,0,28.02891,26.34a2.04182,2.04182,0,0,0,.54375,1.46812A1.83132,1.83132,0,0,0,29.95922,28.37906Zm1.06032-5.89969A.50819.50819,0,0,0,31.373,22.357a.4338.4338,0,0,0,.13594-.33984q.05438-1.93032.1903-6.90563t.13595-5.27437A.42413.42413,0,0,0,31.373,9.375H28.59985a.4431.4431,0,0,0-.32625.10875.48535.48535,0,0,0-.10875.35344l.00054.06791q.00762.62084.1218,5.31521.12234,5.0297.17672,6.79688a.4338.4338,0,0,0,.13594.33984.50821.50821,0,0,0,.35344.12234Z" style="fill:#fff"/></svg>