<svg xmlns="http://www.w3.org/2000/svg" viewBox="0 0 60 60"><path d="M28.6764,51.87591h0a1.62687,1.62687,0,0,0,2.56214,0C42.58817,37.03976,48.75,27.24709,48.75,18.01255c0-9.91444-8.39576-17.982-18.729-18.01249A18.66977,18.66977,0,0,0,11.599,22.27465C13.166,30.34218,19.05251,39.29258,28.6764,51.87591Z"/><path d="M31.01636,28.62607l7.28971-7.75954a7.92419,7.92419,0,0,0,2.00643-5.33078v-.2143a7.10935,7.10935,0,0,0-2.33061-5.33971,5.95013,5.95013,0,0,0-4.74007-1.49119l-.14018.01786c-.12267.01786-.24533.04464-.35923.07143A5.82874,5.82874,0,0,0,30,10.05317a5.75148,5.75148,0,0,0-2.74241-1.47333c-.13142-.02679-.25409-.05357-.37675-.07143L26.802,8.49948a5.96533,5.96533,0,0,0-4.78388,1.49119,7.10935,7.10935,0,0,0-2.33061,5.33971v.2143a7.94088,7.94088,0,0,0,2.03271,5.34864L28.98364,28.635A1.41163,1.41163,0,0,0,31.01636,28.62607Z" style="fill:#fff;fill-rule:evenodd"/></svg>