<svg xmlns="http://www.w3.org/2000/svg" viewBox="0 0 60 60"><path d="M30.021.00006C40.35424.03057,48.75,8.09811,48.75,18.01255c0,9.23454-6.16183,19.02721-17.51146,33.86336l-.1.11858a1.62925,1.62925,0,0,1-2.46209-.11858L28.20611,51.26c-9.34544-12.26061-15.06585-21.05-16.60709-28.98532A18.66977,18.66977,0,0,1,30.021.00006Zm8.92592,47.30471.08589.0016c5.6625.675,12.15938,2.20312,12.15938,5.6625,0,5.89506-18.96283,6.15726-21.033,6.16828h-.309c-2.07077-.011-21.04235-.27322-21.04235-6.16828,0-3.44063,6.46875-4.97813,12.09375-5.65313a.458.458,0,0,1,.51563.4125l.01875.19688a2.33676,2.33676,0,0,1-1.95938,2.57812c-4.95.75938-7.20937,1.89375-7.66875,2.46563.89063,1.20937,7.39688,3.20625,18.1875,3.20625s17.29688-2.00625,18.1875-3.20625c-.45937-.57188-2.7375-1.70625-7.725-2.475a2.34228,2.34228,0,0,1-1.95937-2.57813l.01875-.19687a.46567.46567,0,0,1,.51562-.4125Z"/><path d="M31.01636,28.62607l7.28971-7.75954a7.92419,7.92419,0,0,0,2.00643-5.33078v-.2143a7.10935,7.10935,0,0,0-2.33061-5.33971,5.95013,5.95013,0,0,0-4.74007-1.49119l-.14018.01786c-.12267.01786-.24533.04464-.35923.07143A5.82874,5.82874,0,0,0,30,10.05317a5.75148,5.75148,0,0,0-2.74241-1.47333c-.13142-.02679-.25409-.05357-.37675-.07143L26.802,8.49948a5.96533,5.96533,0,0,0-4.78388,1.49119,7.10935,7.10935,0,0,0-2.33061,5.33971v.2143a7.94088,7.94088,0,0,0,2.03271,5.34864L28.98364,28.635A1.41163,1.41163,0,0,0,31.01636,28.62607Z" style="fill:#fff;fill-rule:evenodd"/></svg>