<svg xmlns="http://www.w3.org/2000/svg" viewBox="0 0 60 60"><path d="M28.6764,51.87591h0a1.62687,1.62687,0,0,0,2.56214,0C42.58817,37.03976,48.75,27.24709,48.75,18.01255c0-9.91444-8.39576-17.982-18.729-18.01249A18.66977,18.66977,0,0,0,11.599,22.27465C13.166,30.34218,19.05251,39.29258,28.6764,51.87591Z"/><path d="M32.14017,19.17268l6.1459-6.53415a.51261.51261,0,0,0,0-.72752L36.86266,10.4662a.49466.49466,0,0,0-.71675,0L30,17.00035,23.85409,10.4662a.49466.49466,0,0,0-.71675,0l-1.42341,1.45505a.51263.51263,0,0,0,0,.72753l6.1459,6.5239-6.1459,6.53415a.51263.51263,0,0,0,0,.72753,2.49621,2.49621,0,0,0,3.57367,0L30,21.345l4.7124,5.0791a2.49621,2.49621,0,0,0,3.57367,0,.51261.51261,0,0,0,0-.72752Z" style="fill:#fff"/></svg>