<svg enable-background="new 0 0 60 60" viewBox="0 0 60 60" xmlns="http://www.w3.org/2000/svg"><path d="m32.51 3.47c-.28-.01-.51.22-.51.5v.11c0 1.3 1 2.36 2.29 2.48.13.01.25.03.37.04 10.06 1.14 18.19 8.62 20.3 18.35.19.88.33 1.78.42 2.7.13 1.3 1.18 2.3 2.49 2.3h.11c.28 0 .51-.23.51-.51-.27-14.2-11.77-25.7-25.98-25.97z"/><path d="m32.52 15.47c-.28-.01-.52.23-.52.51v.21c0 1.21.87 2.24 2.06 2.45.67.12 1.32.3 1.94.53 3.02 1.12 5.44 3.48 6.66 6.45.3.74.52 1.51.67 2.31.21 1.18 1.25 2.02 2.45 2.02h.21c.28 0 .52-.24.51-.52-.28-7.57-6.4-13.69-13.98-13.96z"/><path d="m32.52 9.47c-.29-.01-.52.22-.52.51v.2c0 1.26.96 2.27 2.21 2.43.72.09 1.43.23 2.13.4 5.73 1.46 10.33 5.75 12.23 11.29.38 1.12.66 2.3.81 3.51.15 1.24 1.22 2.16 2.47 2.16h.15c.28 0 .52-.23.51-.52-.29-10.9-9.1-19.71-19.99-19.98z"/><path d="m26.1 21.39c-.78-.78-2.05-.78-2.83 0l-20.98 20.98c-.78.78-.78 2.05 0 2.83l7.9 7.9c2.24 2.24 5.19 3.36 8.13 3.36s5.89-1.12 8.13-3.36l14.26-14.26c.78-.78.78-2.05 0-2.83zm-18.27 25.1-2.71-2.71 19.56-19.56 2.71 2.71zm16.5 4.48c-3.31 3.31-8.7 3.31-12.02 0l-.94-.94 19.56-19.56 6.95 6.95z"/></svg>