<svg enable-background="new 0 0 60 60" viewBox="0 0 60 60" xmlns="http://www.w3.org/2000/svg"><path d="m58 43.02c-.56-1.03-1.5-1.77-2.66-2.07-1.12-.3-2.31-.15-3.31.39l-10.18 5.05-2.24-.75c.58-.8.9-1.79.85-2.87-.12-2.43-2.26-4.27-4.69-4.27h-17.69c-.25 0-.51.05-.74.14l-14.48 5.8c-.94.38-1.45 1.4-1.19 2.38l2.75 10.1c.29 1.05 1.36 1.68 2.42 1.41l11.15-2.79 11.53 2.89c.25.06.5.08.75.04l14.77-1.97c.32-.04.63-.16.89-.35 2.03-1.43 11.06-7.82 11.15-7.9 1.46-1.37 1.84-3.53.92-5.23zm-2.94 3c-.68.5-6.58 4.67-10.66 7.54l-14.34 1.91-11.59-2.9c-.32-.08-.65-.08-.97 0l-10.44 2.62-2.26-8.29 13.48-5.4h17.7c.83 0 1.5.67 1.5 1.5s-.67 1.5-1.5 1.5h-6.49c-1.38 0-2.5 1.12-2.5 2.5 0 .28.22.5.5.5h8.25l5.57 1.86c.5.17 1.05.13 1.52-.11l10.59-5.25c.37-.2.78-.25 1.16-.15.35.09.63.3.78.6.26.49.14 1.13-.3 1.57z"/><path d="m30.58 19.49c.08.03.17.03.26-.01l2.12-.8v10.68c0 .11.03.19.09.25s.14.09.25.09h2.08c.11 0 .19-.03.25-.09s.09-.14.09-.25v-13.12c0-.11-.03-.19-.09-.25s-.14-.09-.25-.09h-1.52c-.07 0-.13.01-.2.02s-.13.03-.18.06l-3.38 1.38c-.09.04-.16.1-.19.17s-.04.16-.01.27l.5 1.48c.04.11.1.18.18.21z"/><path d="m17.81 20.26c.27.1.56-.06.67-.38l.08-.25c.34-1.1-.14-2.25-1.1-2.88-1.95-1.3-3.12-3.57-2.94-6.05.2-2.83 2.87-5.7 5.68-6.12 2.58-.38 5.02.75 6.44 2.74.66.93 1.82 1.36 2.92.98l.29-.1c.27-.09.41-.4.31-.66-1.67-4.11-6-6.65-10.57-5.9-3.95.65-7.7 4.69-8.05 8.67-.39 4.44 2.2 8.45 6.27 9.95z"/><path d="m21.5 23c0 6.89 5.61 12.5 12.5 12.5s12.5-5.61 12.5-12.5-5.61-12.5-12.5-12.5-12.5 5.61-12.5 12.5zm12.5-9.5c5.24 0 9.5 4.26 9.5 9.5s-4.26 9.5-9.5 9.5-9.5-4.26-9.5-9.5 4.26-9.5 9.5-9.5z"/></svg>