<svg enable-background="new 0 0 60 60" viewBox="0 0 60 60" xmlns="http://www.w3.org/2000/svg"><path d="m56.5 6.5h-53c-1.1 0-2 .9-2 2v16.5c0 6.35 5.15 11.5 11.5 11.5h11.58c1.34 0 2.42-1.08 2.42-2.42v-.08c0-.28-.22-.5-.5-.5h-13.5c-4.69 0-8.5-3.81-8.5-8.5v-15.5h36.04v12.08c0 1.34 1.08 2.42 2.42 2.42.28 0 .5-.22.5-.5v-14h12.04v23.08c0 1.34 1.08 2.42 2.42 2.42h.08c.28 0 .5-.22.5-.5v-26c0-1.1-.9-2-2-2z"/><path d="m44.27 31.19c.67.93 1.82 1.36 2.9.99l.32-.11c.27-.09.42-.4.31-.66-1.64-4.03-5.88-6.51-10.36-5.78-3.87.63-7.56 4.6-7.9 8.51-.38 4.36 2.16 8.29 6.14 9.77.27.1.56-.06.65-.33l.11-.35c.34-1.08-.14-2.2-1.08-2.83-1.72-1.15-2.81-3.08-2.86-5.24-.08-3.23 2.36-6.13 5.56-6.59 2.48-.36 4.83.72 6.21 2.62z"/><path d="m49 34.5c-5.24 0-9.5 4.26-9.5 9.5s4.26 9.5 9.5 9.5 9.5-4.26 9.5-9.5-4.26-9.5-9.5-9.5zm0 16c-3.58 0-6.5-2.92-6.5-6.5s2.92-6.5 6.5-6.5 6.5 2.92 6.5 6.5-2.92 6.5-6.5 6.5z"/><path d="m9.16 24.7c.05.05.13.08.23.08h1.87c.1 0 .17-.03.22-.08s.08-.13.08-.23v-11.8c0-.1-.03-.17-.08-.23-.05-.05-.13-.08-.22-.08h-1.37c-.06 0-.12.01-.18.02s-.11.03-.16.05l-3.05 1.24c-.08.04-.14.09-.17.15-.03.07-.03.15-.01.24l.45 1.33c.04.1.09.16.16.19s.15.03.23-.01l1.91-.72v9.61c.01.11.03.19.09.24z"/><path d="m18.67 12.14c-1.44 0-2.58.56-3.42 1.69s-1.26 2.71-1.26 4.73.42 3.61 1.26 4.73c.84 1.13 1.98 1.69 3.42 1.69 1.43 0 2.56-.56 3.4-1.69s1.26-2.71 1.26-4.73-.42-3.61-1.26-4.73-1.97-1.69-3.4-1.69zm1.59 9.59c-.37.71-.9 1.07-1.59 1.07-.7 0-1.23-.36-1.6-1.08s-.56-1.77-.56-3.15c0-1.4.19-2.47.56-3.19.37-.73.91-1.09 1.6-1.09.7 0 1.23.36 1.59 1.09s.55 1.79.55 3.19c0 1.39-.18 2.45-.55 3.16z"/><path d="m33.25 23.3c.84-1.13 1.26-2.71 1.26-4.73s-.42-3.61-1.26-4.73-1.97-1.69-3.4-1.69c-1.44 0-2.58.56-3.42 1.69s-1.26 2.71-1.26 4.73.42 3.61 1.26 4.73c.84 1.13 1.98 1.69 3.42 1.69 1.43.01 2.56-.56 3.4-1.69zm-5-1.58c-.37-.72-.56-1.77-.56-3.15 0-1.4.19-2.47.56-3.19.37-.73.91-1.09 1.6-1.09.7 0 1.23.36 1.59 1.09s.55 1.79.55 3.19c0 1.39-.18 2.45-.55 3.16s-.9 1.07-1.59 1.07c-.7 0-1.23-.36-1.6-1.08z"/></svg>