<svg enable-background="new 0 0 60 60" viewBox="0 0 60 60" xmlns="http://www.w3.org/2000/svg"><path d="m46.55 22.07c-.3-1.06-1.41-1.68-2.47-1.37l-41.01 11.76c-1.06.3-1.68 1.41-1.37 2.47l4.28 14.92c.74 2.58 2.25 4.93 4.44 6.48 2.01 1.43 4.33 2.15 6.68 2.15 1.06 0 2.14-.15 3.19-.45l31.88-9.14c1.06-.3 1.68-1.41 1.37-2.47zm-27.09 33.08c-2.18.63-4.48.36-6.46-.74-1.99-1.1-3.42-2.91-4.05-5.09l-4.09-14.26 39.09-11.21 6.43 22.43z"/><path d="m33.95 44.27c-.1-.11-.19-.16-.29-.15-.1 0-.19.06-.28.17-.32.41-.64.72-.96.94s-.68.38-1.08.5c-.94.27-1.75.23-2.44-.11s-1.29-1.01-1.81-1.99l4.48-1.28c.12-.04.21-.1.26-.19s.06-.2.02-.32l-.26-.92c-.04-.12-.1-.21-.19-.26s-.19-.06-.32-.02l-4.66 1.34c-.04-.07-.07-.16-.1-.26s-.07-.26-.14-.47c-.03-.09-.05-.18-.08-.27-.02-.08-.05-.17-.08-.27l4.68-1.34c.12-.04.21-.1.26-.19s.06-.2.02-.32l-.26-.9c-.04-.12-.1-.21-.19-.26s-.19-.06-.32-.02l-4.52 1.3c-.11-1.1-.02-1.97.28-2.63.3-.65.82-1.08 1.54-1.29.55-.16 1.04-.17 1.47-.02.42.14.8.44 1.13.9.09.13.18.2.27.21s.2-.03.33-.13l1.72-1.24c.1-.06.16-.14.17-.24s-.01-.19-.07-.29c-.58-.97-1.37-1.63-2.38-1.98s-2.14-.35-3.38.01c-1.58.45-2.75 1.35-3.51 2.68s-1.01 2.98-.77 4.94l-1.48.42c-.12.04-.21.1-.26.19s-.06.2-.02.32l.26.9c.04.12.1.21.19.26s.19.06.32.02l1.32-.38c.01.08.02.16.05.25.02.08.06.22.12.4.03.11.06.21.09.31s.06.2.09.31l-1.29.37c-.12.04-.21.1-.26.19s-.06.2-.02.32l.26.92c.04.12.1.21.19.26s.19.06.32.02l1.45-.42c.83 1.86 1.91 3.14 3.25 3.84 1.33.7 2.88.8 4.63.3.78-.22 1.48-.54 2.08-.94s1.09-.89 1.48-1.45c.06-.1.08-.19.08-.29 0-.09-.04-.18-.12-.28z"/><path d="m58.44 25.3c-.78-12.11-10.29-22.16-22.35-23.61-12.41-1.5-23.74 6.16-27.38 17.54l-1.42-2.38c-.71-1.18-2.24-1.57-3.43-.86-.24.14-.31.45-.17.69l4.11 6.87c.57.95 1.8 1.26 2.74.69l6.87-4.11c.24-.14.31-.45.17-.69-.71-1.18-2.24-1.57-3.43-.86l-2.55 1.53c3.22-10.02 13.19-16.76 24.12-15.45 10.3 1.24 18.58 9.61 19.65 19.93.24 2.28.14 4.55-.29 6.75-.25 1.27.47 2.53 1.71 2.91l.12.04c.27.08.56-.07.64-.34.78-2.79 1.09-5.71.89-8.65z"/></svg>