<svg viewBox="0 0 60 60" xmlns="http://www.w3.org/2000/svg"><path d="M56.5 10.5h-53c-1.1 0-2 .9-2 2V38c0 6.35 5.15 11.5 11.5 11.5h43.5c1.1 0 2-.9 2-2v-35c0-1.1-.9-2-2-2zm-1 36H13c-4.69 0-8.5-3.81-8.5-8.5V13.5h51z"/><path d="M38.22 36.57h1.58c.3 2.1 1.02 3.69 2.15 4.77s2.65 1.62 4.55 1.62c.85 0 1.63-.12 2.35-.35s1.35-.58 1.9-1.03a.56.56 0 00.16-.26c.03-.09.01-.2-.04-.31l-.85-1.83c-.07-.13-.15-.21-.25-.24s-.21 0-.33.09c-.43.32-.84.54-1.23.66-.38.12-.79.19-1.22.19-1.02 0-1.82-.27-2.41-.81s-1-1.38-1.24-2.51h4.85c.13 0 .24-.04.31-.11.08-.08.11-.18.11-.31v-1c0-.13-.04-.24-.11-.31-.08-.08-.18-.11-.31-.11h-5.05c-.02-.08-.03-.18-.03-.29v-.51-.29-.29h5.08c.13 0 .24-.04.31-.11s.11-.18.11-.31v-.97c0-.13-.04-.24-.11-.31s-.18-.11-.31-.11h-4.9c.2-1.13.55-1.98 1.04-2.55s1.13-.85 1.91-.85c.6 0 1.09.13 1.47.4s.68.67.88 1.23c.05.15.12.25.21.29s.21.03.36-.04l2.08-.75c.12-.03.2-.1.24-.19s.05-.2.01-.31c-.3-1.13-.9-2.02-1.81-2.66s-2.04-.96-3.39-.96c-1.72 0-3.15.56-4.29 1.67-1.14 1.12-1.87 2.69-2.19 4.73h-1.6c-.13 0-.24.04-.31.11a.45.45 0 00-.11.31v.97c0 .13.04.24.11.31.08.08.18.11.31.11h1.43c-.02.08-.03.17-.03.26v1.12h-1.4c-.13 0-.24.04-.31.11s-.11.18-.11.31v1c0 .13.04.24.11.31.09.08.19.11.32.11z"/><circle cx="13.5" cy="18" r="1.5"/><circle cx="13.5" cy="42" r="1.5"/><circle cx="13.5" cy="36" r="1.5"/><circle cx="13.5" cy="30" r="1.5"/><circle cx="13.5" cy="24" r="1.5"/></svg>