<svg enable-background="new 0 0 60 60" viewBox="0 0 60 60" xmlns="http://www.w3.org/2000/svg"><path d="m56.5 10.5h-53c-1.1 0-2 .9-2 2v25.5c0 6.35 5.15 11.5 11.5 11.5h43.5c1.1 0 2-.9 2-2v-35c0-1.1-.9-2-2-2zm-1 36h-42.5c-4.69 0-8.5-3.81-8.5-8.5v-24.5h51z"/><path d="m30.23 42.58c1.06 1.06 2.78 1.06 3.85 0l15.95-15.95c.21-.21.21-.56 0-.77l-1.54-1.54c-.21-.21-.56-.21-.77 0l-17.49 17.49c-.21.22-.21.56 0 .77z"/><path d="m34.32 33.37c2.73 0 4.95-2.22 4.95-4.95s-2.22-4.95-4.95-4.95-4.95 2.22-4.95 4.95 2.22 4.95 4.95 4.95zm0-6.64c.93 0 1.69.76 1.69 1.69s-.76 1.69-1.69 1.69-1.69-.76-1.69-1.69.76-1.69 1.69-1.69z"/><path d="m45.93 35.08c-2.73 0-4.95 2.22-4.95 4.95s2.22 4.95 4.95 4.95 4.95-2.22 4.95-4.95-2.22-4.95-4.95-4.95zm0 6.64c-.93 0-1.69-.76-1.69-1.69s.76-1.69 1.69-1.69 1.69.76 1.69 1.69-.76 1.69-1.69 1.69z"/><circle cx="13.5" cy="18" r="1.5"/><circle cx="13.5" cy="42" r="1.5"/><circle cx="13.5" cy="36" r="1.5"/><circle cx="13.5" cy="30" r="1.5"/><circle cx="13.5" cy="24" r="1.5"/></svg>