<svg enable-background="new 0 0 60 60" viewBox="0 0 60 60" xmlns="http://www.w3.org/2000/svg"><path d="m43.5 52.5h4c.28 0 .5-.22.5-.5v-2c0-.28-.22-.5-.5-.5h-6c-.28 0-.5.22-.5.5 0 1.38 1.12 2.5 2.5 2.5z"/><path d="m52.38 27.75h-1.38l.57-6.88c.11-1.28-1-2.33-2.28-2.15l-4.76.68c-.27.04-.46.29-.42.57.2 1.37 1.46 2.32 2.83 2.12l1.54-.22-.49 5.87h-36.49c.63-.24 1.38-.48 2.26-.72.31-.08.64-.17.97-.25 1.31-.33 2.13-1.64 1.84-2.96l-.01-.03c-.06-.27-.33-.44-.6-.38-1.09.24-2.09.49-2.99.74-4.87 1.33-7.35 3.05-7.35 5.06-.04.99-.05 6.99-.03 17.83.01 6.34 5.16 11.48 11.5 11.48h35.28c1.1 0 2-.9 2-2v-26.76c.01-1.1-.89-2-1.99-2zm-1 27.75h-34.26c-4.7 0-8.51-3.81-8.52-8.51-.02-9.57-.01-14.15 0-16.24h42.77z"/><path d="m18.04 23.38c.01.37.04.74.09 1.11.17 1.41 1.65 2.27 2.99 1.8.25-.09.38-.36.3-.62-.26-.88-.39-1.78-.39-2.71 0-5.33 4.41-9.65 9.77-9.5 4.99.14 9.13 4.33 9.22 9.32.02.98-.11 1.95-.39 2.89-.08.26.05.53.3.61 1.38.49 2.84-.45 3.01-1.9.05-.47.08-.94.08-1.42 0-7.07-5.9-12.79-13.03-12.49-6.74.28-12.17 6.15-11.95 12.91z"/><path d="m30 26.25h1.76c.28 0 .5-.22.5-.5v-9.55c0-.11-.03-.19-.09-.25s-.14-.09-.25-.09h-1.52c-.07 0-.13.01-.2.02s-.13.03-.18.06l-3.38 1.38c-.09.04-.16.1-.19.17s-.04.16-.01.27l.5 1.48c.04.11.1.18.18.21s.17.03.26-.01l2.12-.8v7.11c0 .28.22.5.5.5z"/><path d="m14.19 20.26c.27.1.56-.06.67-.38l.08-.25c.34-1.1-.14-2.25-1.1-2.88-1.95-1.3-3.12-3.57-2.94-6.05.2-2.83 2.87-5.7 5.68-6.12 2.58-.38 5.02.75 6.44 2.74.66.93 1.82 1.36 2.92.98l.29-.1c.27-.09.41-.4.31-.66-1.67-4.11-6-6.65-10.57-5.9-3.95.65-7.7 4.69-8.05 8.67-.4 4.44 2.2 8.45 6.27 9.95z"/></svg>