<svg enable-background="new 0 0 60 60" viewBox="0 0 60 60" xmlns="http://www.w3.org/2000/svg"><path d="m58.5 40.5c0-4.63-3.51-8.45-8.01-8.95.01-.21.01-.4.01-.57 0-11.3-9.2-20.5-20.5-20.5-8.99 0-17.02 5.98-19.62 14.55-5.21 1.62-8.88 6.65-8.88 12.32v.65c0 6.34 5.15 11.49 11.48 11.5h36.54c4.95-.01 8.98-4.04 8.98-9zm-9 6h-36.5c-4.69 0-8.5-3.81-8.5-8.5v-.66c0-5.08 3.84-9.51 8.91-9.82 1.43-.09 2.83.14 4.12.66 1.1.44 2.36.08 3.02-.91l.14-.21c.16-.23.1-.56-.15-.71-2.04-1.26-4.39-1.89-6.81-1.85 2.62-6.56 9.08-11.02 16.25-11.02 9.65 0 17.5 7.85 17.5 17.5 0 .51-.07 1.56-.1 1.92-.07.91.67 1.67 1.58 1.62.01 0 .35-.02.52-.02 3.31 0 6 2.69 6 6s-2.67 6-5.98 6z"/></svg>