<svg enable-background="new 0 0 60 60" viewBox="0 0 60 60" xmlns="http://www.w3.org/2000/svg"><path d="m30 1.5c-15.71 0-28.5 12.79-28.5 28.5s12.79 28.5 28.5 28.5 28.5-12.79 28.5-28.5-12.79-28.5-28.5-28.5zm24.29 36.27c-.31-.39-.59-.89-.8-1.72-.06-.23-.12-.5-.17-.79-.39-1.86-1.29-6.2-5.99-5.37-2.27.4-4.04.02-5.27-1.13-1.59-1.49-1.93-3.95-1.74-5.59.64-5.58 4.38-6.23 9.19-6.52.78-.05 1.48-.09 2.09-.18 2.46 3.92 3.9 8.56 3.9 13.52 0 2.72-.43 5.33-1.21 7.78zm-34.42-31.17c2.11.14 2.57.62 2.64.72.26.38-.15 1.62-.45 2.52-.62 1.85-1.47 4.38.65 6.11 1.76 1.44 2.2 3.9 1.85 5.7-.26 1.35-.93 2.34-1.76 2.6-1.33.41-2.25 1.14-2.73 2.18-.83 1.76-.05 3.67.37 4.7.06.14.1.25.13.34.89 2.67 2.06 3.13 3.5 3.46.41.09.8.18 1.25.41 1.99 1 3.14 2.24 3.5 3.8.53 2.28-.6 5.33-3.27 8.82-.53.7-.84 1.66-1.19 2.77-.45 1.44-1.02 3.19-1.99 3.6-1.66-.52-3.25-1.21-4.75-2.05l.02-.03c-.81-.45-.77-2.66-.75-4.44.04-2.64.09-5.62-2.07-7.07-.99-.66-2.8-2.76-2.66-4.07.02-.19.08-.77 1.38-1.29 2.06-.82 5.49-2.57 5.42-5.06-.02-.72-.37-2.04-2.5-2.75-1.21-.4-2.33-.69-3.31-.95-2.67-.7-4-1.09-4.92-2.46-.99-1.47-1.56-3.31-1.69-4.19 2.58-5.97 7.37-10.78 13.33-13.37zm-15.37 23.4c0-1.83.2-3.62.57-5.34.21.41.44.8.69 1.18 1.59 2.38 3.94 2.99 6.66 3.7.98.26 2 .52 3.12.89.13.04.24.09.31.12-.34.4-1.28 1.21-3.4 2.06-2.47.99-3.13 2.59-3.25 3.76-.31 2.96 2.6 5.96 3.98 6.88.8.53.77 2.75.74 4.52-.01.65-.02 1.33 0 1.99-5.75-4.68-9.42-11.8-9.42-19.76zm25.5 25.5c-1.44 0-2.86-.13-4.24-.36.7-1.1 1.12-2.4 1.47-3.5.22-.7.5-1.57.71-1.85 3.27-4.28 4.56-8.09 3.81-11.32-.57-2.46-2.28-4.41-5.08-5.81-.78-.39-1.44-.54-1.93-.65-.78-.18-.9-.21-1.32-1.48-.05-.14-.12-.32-.2-.53-.23-.56-.7-1.72-.44-2.28.14-.3.57-.49.91-.59 1.91-.59 3.33-2.42 3.81-4.89.63-3.27-.5-6.65-2.9-8.6-.44-.36-.28-1.13.29-2.83.56-1.67 1.19-3.55.08-5.17-.13-.19-.29-.36-.46-.53 1.76-.39 3.59-.6 5.47-.6 7.84 0 14.87 3.56 19.55 9.15-.07 0-.14.01-.21.01-3.85.22-11.01.64-12 9.17-.28 2.45.27 5.87 2.66 8.12 1.34 1.26 3.79 2.62 7.85 1.9 1.49-.26 1.96.3 2.53 3.03.07.34.14.65.21.93.51 1.97 1.35 2.88 1.97 3.54.28.3.41.45.48.6-4.1 8.58-12.88 14.54-23.02 14.54z"/></svg>