<svg enable-background="new 0 0 60 60" viewBox="0 0 60 60" xmlns="http://www.w3.org/2000/svg"><circle cx="30" cy="10" r="1.99"/><path d="m28.79 24.89c.6.82 1.82.82 2.42 0 4.73-6.45 7.29-10.73 7.29-14.89 0-5.13-4.57-9.21-9.85-8.4-4.36.67-7.36 4.5-7.14 8.9.2 4.01 2.74 8.2 7.28 14.39zm.52-20.35c3.34-.41 6.19 2.2 6.19 5.46 0 2.99-2 6.53-5.5 11.44-3.62-5.07-5.63-8.68-5.49-11.73.11-2.62 2.19-4.85 4.8-5.17z"/><path d="m39.41 18.76c-.24-.12-.53-.03-.66.2-.06.11-.13.23-.2.35-.57.99-.19 2.24.79 2.83.01 0 .01.01.02.01 1.42.87 2.71 1.93 3.84 3.15-2.77.17-8.09.65-8.82 6.97-.22 1.87.21 4.48 2.05 6.22 1.04.98 2.93 2.03 6.03 1.48.65-.11.92-.17 1.34 1.86.05.25.1.48.15.69.43 1.66 1.18 2.79 1.83 3.58-2.75 5.01-7.81 8.62-13.72 9.29-1.53.17-3.03.14-4.47-.05.36-.71.6-1.46.8-2.08.13-.42.33-1.05.45-1.21 2.44-3.2 3.4-6.06 2.83-8.52-.44-1.9-1.75-3.41-3.89-4.48-.6-.3-1.11-.42-1.48-.5-.13-.03-.3-.07-.32-.07-.01 0-.14-.14-.33-.72-.04-.11-.09-.25-.16-.41-.36-.89-.38-1.2-.32-1.32.01-.02.11-.11.4-.21 1.26-.39 2.15-1.4 2.43-2.77.47-2.27-.76-5.27-2.93-7.13-.17-.14-.29-.27-.39-.4-.1-.12-.19-.69-.25-1.1-.04-.24-.25-.42-.5-.42h-.75c-1.02 0-1.83.92-1.64 1.92.01.04.02.08.02.1.23.67.68 1.43 1.55 2.18 1.48 1.27 2.16 3.19 1.94 4.24-.09.42-.26.47-.38.51-1.34.42-1.95 1.2-2.23 1.79-.32.69-.34 1.4-.25 2.04-.26-.51-.78-1.07-1.84-1.43-.89-.3-1.7-.51-2.41-.69-1.83-.48-2.73-.74-3.31-1.61-.64-.96-1.02-2.14-1.13-2.73 1.51-3.45 4.07-6.33 7.27-8.25.93-.56 1.26-1.74.72-2.68-.08-.14-.16-.29-.24-.43-.13-.23-.42-.33-.66-.21-7 3.53-11.78 10.85-11.58 19.26.18 7.55 4.49 14.22 10.75 17.77.03.02.04.04.07.05l.01-.01c2.69 1.51 5.72 2.46 8.96 2.64 12.12.69 22.2-8.98 22.2-20.96 0-8.19-4.73-15.29-11.59-18.74zm-27.41 18.74c0-.92.08-1.81.21-2.69 1.24 1.77 3.06 2.26 4.98 2.76.57.15 1.15.3 1.77.49-.37.26-.94.6-1.8.94-2.08.83-2.53 2.27-2.61 3.06-.24 2.34 1.95 4.62 3.06 5.36.39.26.36 1.99.35 2.91 0 .17 0 .36-.01.54-3.65-3.3-5.95-8.07-5.95-13.37zm8.96 12.88c.03-2.01.07-4.29-1.68-5.46-.71-.47-1.81-1.86-1.74-2.55.03-.26.48-.48.74-.59 1.57-.63 4.17-1.97 4.17-3.98.09.27.18.5.26.68.04.09.07.16.09.22.71 2.13 1.7 2.51 2.83 2.77.28.06.53.12.81.26 1.32.66 2.08 1.47 2.31 2.47.35 1.5-.47 3.64-2.29 6.02-.43.56-.67 1.32-.93 2.13-.25.79-.61 1.93-1.07 2.28-1.12-.36-2.18-.83-3.19-1.39l.01-.02c-.36-.21-.33-1.99-.32-2.84zm25.9-8.61c-.04-.16-.08-.35-.12-.55-.28-1.33-1.01-4.88-4.8-4.21-1.5.27-2.67.03-3.45-.71-1.03-.97-1.25-2.59-1.13-3.69.43-3.71 2.86-4.14 6.25-4.34.65-.04 1.22-.08 1.73-.17 1.94 3.15 2.94 6.94 2.59 10.98-.11 1.26-.37 2.48-.73 3.65-.13-.28-.24-.6-.34-.96z"/></svg>