<svg enable-background="new 0 0 60 60" viewBox="0 0 60 60" xmlns="http://www.w3.org/2000/svg"><path d="m58.04 40.02c-.56-1.03-1.5-1.77-2.66-2.07-1.12-.3-2.31-.15-3.31.39l-10.19 5.05-2.24-.75c.58-.8.9-1.8.85-2.88-.13-2.42-2.27-4.26-4.7-4.26h-2.47c-.6-.97-1.83-3.47-1.83-7.5 0-3.68 1.68-6.04 2.68-7.12 1.43.81 4.17 2.03 7.68 2.03 2.04 0 4.33-.41 6.77-1.55 5.93-2.77 8.58-9.09 9.46-11.78.06-.19.14-.46.22-.75.26-.97-.23-1.99-1.16-2.38-.26-.11-.51-.21-.68-.27-2.74-1.02-9.85-3.16-15.14-.52-5.79 2.89-8.6 6.93-8.81 12.65-.9.85-2.61 2.79-3.48 5.83-1.01-3.92-3.73-6.62-8.49-8.52-4.17-1.67-8.81-.32-10.99.52-.24.09-.54.22-.84.36-.77.35-1.24 1.16-1.16 2.01.03.38.08.78.16 1.1.33 1.43 1.13 3.71 3.09 6.33 3.26 4.19 7.1 5.55 10.51 5.55 2.52 0 4.81-.74 6.47-1.62.18.33.4.87.59 1.76.31 1.46-1.07 3.09-1.95 3.89h-8.32c-.25 0-.51.05-.74.14l-14.5 5.8c-.94.38-1.45 1.4-1.19 2.38l2.75 10.1c.29 1.05 1.36 1.68 2.41 1.41l11.17-2.8 11.54 2.89c.24.06.5.08.75.04l14.78-1.97c.32-.04.62-.16.89-.35 2.03-1.43 11.07-7.82 11.16-7.9 1.47-1.38 1.85-3.53.92-5.24zm-15.37-31.67c4.07-2.04 9.95-.35 12.49.55-.83 2.39-3.12 7.56-7.79 9.75-4.12 1.92-7.69 1.3-9.94.45l5.92-2.69c1.26-.57 1.81-2.05 1.24-3.31-.11-.25-.41-.36-.66-.25l-8.23 3.74c.63-3.62 2.81-6.16 6.97-8.24zm-29.47 15.75c-1.68-2.24-2.31-4.11-2.55-5.17 1.76-.67 5.59-1.82 8.8-.54 4.71 1.88 6.8 4.46 7.03 8.76-2.05 1.08-8.2 3.48-13.28-3.05zm41.91 18.93c-.68.5-6.58 4.67-10.67 7.54l-14.35 1.91-11.6-2.9c-.32-.08-.65-.08-.97 0l-10.46 2.61-2.26-8.29 13.49-5.4h17.71c.83 0 1.5.67 1.5 1.5s-.67 1.5-1.5 1.5h-6.5c-1.38 0-2.5 1.12-2.5 2.5 0 .28.22.5.5.5h8.26l5.57 1.86c.5.17 1.05.13 1.52-.11l10.61-5.25c.37-.2.78-.25 1.16-.15.35.09.63.3.79.6.26.49.14 1.13-.3 1.58z"/></svg>