<svg viewBox="0 0 60 60" xmlns="http://www.w3.org/2000/svg"><path d="M58 43.02a4.186 4.186 0 00-2.66-2.07c-1.12-.3-2.31-.15-3.31.39l-10.18 5.05-2.24-.75c.58-.8.9-1.79.85-2.87-.12-2.43-2.26-4.27-4.69-4.27H18.08c-.25 0-.51.05-.74.14l-14.48 5.8a2.01 2.01 0 00-1.19 2.38l2.75 10.1a1.998 1.998 0 002.42 1.41l11.15-2.79 11.53 2.89c.25.06.5.08.75.04l14.77-1.97c.32-.04.63-.16.89-.35 2.03-1.43 11.06-7.82 11.15-7.9 1.46-1.37 1.84-3.53.92-5.23zm-2.94 3c-.68.5-6.58 4.67-10.66 7.54l-14.34 1.91-11.59-2.9a1.99 1.99 0 00-.97 0L7.06 55.19 4.8 46.9l13.48-5.4h17.7c.83 0 1.5.67 1.5 1.5s-.67 1.5-1.5 1.5h-6.49a2.5 2.5 0 00-2.5 2.5c0 .28.22.5.5.5h8.25l5.57 1.86c.5.17 1.05.13 1.52-.11L53.42 44c.37-.2.78-.25 1.16-.15.35.09.63.3.78.6.26.49.14 1.13-.3 1.57zM30 36.5c9.65 0 17.5-7.85 17.5-17.5S39.65 1.5 30 1.5 12.5 9.35 12.5 19 20.35 36.5 30 36.5zm-7.85-11.64c-.59-.4-1.38-1.5-1.31-1.83 0 0 .08-.12.44-.27 1.34-.53 2.85-1.39 3.39-2.61.56 1.63 1.34 2.11 2.49 2.37.22.05.4.09.6.19 1.01.5 1.58 1.11 1.75 1.85.27 1.15-.38 2.83-1.83 4.72-.38.5-.59 1.15-.8 1.83-.15.46-.53 1.69-.84 1.77l.02.07c-.53-.15-1.06-.32-1.56-.53-.02-2.72-.34-6.21-2.35-7.56zm22.13-3.44c-.34-1.33-1.23-3.6-4.12-3.08-1.15.2-2.02.03-2.6-.51-.73-.68-.95-1.9-.84-2.8.33-2.84 2.14-3.16 4.88-3.32.31-.02.6-.04.87-.06 1.28 2.16 2.03 4.67 2.03 7.36 0 .82-.09 1.62-.22 2.41zM40.29 8.79c-2.45.24-6 1.13-6.55 5.89-.18 1.6.18 3.84 1.77 5.33.9.85 2.52 1.75 5.18 1.28.22-.04.33-.02.35-.01.2.13.38 1 .44 1.32.04.21.08.41.13.58.34 1.32.92 1.95 1.31 2.37-2.4 4.71-7.28 7.95-12.92 7.95-.27 0-.53-.03-.79-.04.23-.51.39-1.02.53-1.45.1-.32.25-.79.32-.91 2.06-2.69 2.85-5.12 2.37-7.21-.38-1.64-1.5-2.94-3.33-3.85-.53-.26-.96-.36-1.28-.43a.75.75 0 01-.16-.04c-.04-.07-.1-.2-.18-.44-.03-.09-.08-.21-.13-.35-.06-.16-.25-.6-.26-.83.03-.02.08-.04.16-.06 1.35-.42 2.35-1.68 2.68-3.37.42-2.16-.34-4.39-1.92-5.65-.06-.19.11-.83.21-1.2.23-.86.52-1.99.1-3.05.55-.08 1.11-.12 1.68-.12 4.02 0 7.66 1.64 10.29 4.29zm-15.51-3.3c.54.1.72.21.75.22.04.2-.12.81-.21 1.18-.3 1.12-.79 2.99.78 4.26.85.69 1.06 1.9.88 2.79-.12.61-.4 1-.62 1.07-1.19.37-1.74 1.08-1.99 1.61-.15.33-.23.66-.26.98-.27-.24-.63-.46-1.12-.62-.74-.25-1.41-.42-2-.57-1.47-.38-2.14-.58-2.56-1.21-.2-.3-.38-.58-.55-.86-.29-.48-.61-.96-.99-1.47 1.57-3.37 4.4-6.03 7.89-7.38zm-9.06 11.07l.2.31c1.07 1.6 2.64 2.01 4.3 2.44.28.07.57.15.87.23-.25.14-.55.28-.93.43-1.84.73-2.24 2.03-2.31 2.73-.21 2.05 1.68 4.01 2.63 4.65.09.06.72.57.94 3.31-3.58-2.64-5.92-6.88-5.92-11.66 0-.83.09-1.65.22-2.44z"/></svg>