<svg enable-background="new 0 0 60 60" viewBox="0 0 60 60" xmlns="http://www.w3.org/2000/svg"><path d="m48.29 34.83-18.29 19.95-18.36-20.03c-.93-1.01-2.49-1.05-3.46-.08-.2.19-.22.5-.03.71l20.38 22.23c.79.86 2.16.86 2.95 0l20.38-22.23c.19-.21.17-.53-.04-.71-1.03-.93-2.6-.86-3.53.16z"/><path d="m56.5 27.5h-10.23c-.67 0-1.29.33-1.66.89l-2.05 3.08-4.66-16.33c-.54-1.89-3.2-1.95-3.82-.08l-7.08 21.2-6.23-18.68c-.54-1.63-2.76-1.86-3.62-.38l-6.01 10.3h-5.64c-1.38 0-2.5 1.12-2.5 2.5 0 .28.22.5.5.5h8.21c.71 0 1.37-.38 1.73-.99l5.19-8.89 6.48 19.43c.61 1.82 3.19 1.82 3.79 0l6.99-20.98 4.37 15.3c.47 1.64 2.64 1.98 3.59.56l2.95-4.43h7.7c1.38 0 2.5-1.12 2.5-2.5 0-.28-.22-.5-.5-.5z"/><path d="m52.35 5.45c-3.54-3.08-7.96-4.43-12.44-3.8l-.11.02c-.35.05-.7.12-1.04.19-3.36.73-6.47 2.72-8.76 5.55-2.29-2.83-5.4-4.83-8.75-5.56-.35-.08-.69-.14-1.04-.19l-.12-.02c-4.48-.63-8.9.72-12.44 3.8-3.91 3.41-6.15 8.47-6.15 13.89v.62c0 1.29.12 2.58.35 3.85.05.28.33.46.6.4l.14-.03c1.23-.26 2.08-1.39 1.98-2.64-.05-.52-.07-1.05-.07-1.58v-.62c0-4.55 1.87-8.79 5.12-11.62 2.88-2.5 6.45-3.6 10.14-3.08.28.04.57.09.85.16 3.13.68 6.02 2.76 7.93 5.71.69 1.06 2.24 1.06 2.93 0 1.91-2.95 4.79-5.03 7.93-5.71.28-.06.56-.11.94-.17 3.6-.51 7.18.59 10.05 3.09 3.25 2.83 5.12 7.06 5.12 11.62v.62c0 .53-.02 1.05-.07 1.58-.11 1.25.75 2.38 1.97 2.64l.14.03c.28.06.55-.12.6-.4.23-1.26.35-2.56.35-3.85v-.62c0-5.42-2.24-10.48-6.15-13.88z"/></svg>