<svg enable-background="new 0 0 60 60" viewBox="0 0 60 60" xmlns="http://www.w3.org/2000/svg"><path d="m49.92 5c-.09-.57-.24-1.29-.38-1.92-.21-.93-1.04-1.58-2-1.56-.53.01-1.1.03-1.53.06-5.13.34-18.98 2.11-29.07 11.36-14.39 14.39-6 30.74-4.44 33.47v.59c0 6.35 5.15 11.5 11.5 11.5h11.5c.28 0 .5-.22.5-.5 0-1.38-1.12-2.5-2.5-2.5h-9.5c-4.45 0-8.1-3.43-8.46-7.79.67.06 1.51.11 2.48.11 5.56 0 15.51-1.51 24.09-10.8 10.06-10.91 8.77-26.19 7.81-32.02zm-10.02 29.98c-9.03 9.79-19.69 10.08-23.84 9.76 1.39-3.34 5.49-11.29 15.48-19.26.21-.17.26-.48-.03-.84l-1.12-1.43c-.17-.22-.49-.25-.71-.08-9.51 7.58-13.96 15.1-15.87 19.23-2.27-5.2-5.35-16.71 5.21-27.26 9.66-8.85 23.61-10.31 27.77-10.55.8 4.37 2.8 19.93-6.89 30.43z"/></svg>