<svg enable-background="new 0 0 60 60" viewBox="0 0 60 60" xmlns="http://www.w3.org/2000/svg"><path d="m53.88 17.38c-.69-1.2-2.22-1.61-3.41-.92l-4.19 2.42 1.1-4.16c.07-.27-.09-.54-.36-.61-1.33-.35-2.7.44-3.05 1.78l-1.34 5.1-7.42 4.28-.55-.32 2.4-4.16c.14-.24.06-.54-.18-.68-1.2-.69-2.72-.28-3.41.91l-1.4 2.43-.55-.32v-8.46l3.79-3.79c.98-.98.98-2.56 0-3.53-.2-.2-.51-.2-.71 0l-3.08 3.08v-6.92c0-.28-.22-.5-.5-.5-1.38 0-2.5 1.12-2.5 2.5v4.84l-3.05-3.03c-.2-.19-.51-.19-.71 0-.97.98-.97 2.56.01 3.53l3.74 3.71v8.56l-.55.32-2.4-4.16c-.14-.24-.44-.32-.68-.18-1.2.69-1.6 2.22-.91 3.41l1.4 2.43-.55.32-7.32-4.23-1.39-5.17c-.36-1.33-1.73-2.12-3.06-1.77-.27.07-.43.35-.35.61l1.13 4.2-5.99-3.46c-.24-.14-.54-.06-.68.18-.69 1.19-.28 2.72.91 3.41l4.19 2.42-4.17 1.15c-.27.07-.42.35-.35.61.36 1.33 1.74 2.12 3.07 1.75l5.09-1.39 7.27 4.2v.72h-4.67c-.28 0-.5.22-.5.5 0 1.38 1.12 2.5 2.5 2.5h2.66v.71l-7.19 4.15-5.18-1.39c-1.33-.36-2.7.43-3.06 1.77-.07.27.09.54.35.61l4.2 1.13-5.99 3.46c-.24.14-.32.44-.18.68.69 1.2 2.22 1.61 3.41.92l4.19-2.42-1.1 4.16c-.07.27.09.54.36.61 1.33.35 2.7-.45 3.05-1.78l1.34-5.1 7.14-4.12.69.4-2.26 3.92c-.14.24-.06.54.18.68 1.2.69 2.72.28 3.41-.91l1.26-2.19.69.4v8.14l-3.79 3.79c-.98.98-.98 2.56 0 3.53.2.2.51.2.71 0l3.08-3.08v6.92c0 .28.22.5.5.5 1.38 0 2.5-1.12 2.5-2.5v-4.84l3.05 3.03c.2.19.51.19.71 0 .97-.98.97-2.56-.01-3.53l-3.74-3.71v-8.24l.69-.4 2.26 3.92c.14.24.44.32.68.18 1.2-.69 1.6-2.22.91-3.41l-1.26-2.19.69-.4 7.04 4.07 1.39 5.17c.36 1.33 1.73 2.12 3.06 1.77.27-.07.42-.35.35-.61l-1.13-4.2 5.99 3.46c.24.14.54.06.68-.18.69-1.2.28-2.72-.91-3.41l-4.19-2.42 4.15-1.13c.27-.07.42-.35.35-.61-.36-1.33-1.74-2.12-3.07-1.75l-5.09 1.39-7.27-4.2v-.74h4.66c.28 0 .5-.22.5-.5 0-1.38-1.12-2.5-2.5-2.5h-2.66v-.71l7.19-4.14 5.18 1.39c1.33.36 2.7-.43 3.06-1.77.07-.27-.09-.54-.35-.61l-4.21-1.13 5.99-3.46c.27-.14.36-.45.22-.69zm-20.04 10.57v4.43l-3.84 2.21-3.84-2.21v-4.43l3.84-2.22z"/></svg>