<svg enable-background="new 0 0 60 60" viewBox="0 0 60 60" xmlns="http://www.w3.org/2000/svg"><path d="m29 12h2c.28 0 .5-.22.5-.5v-8c0-.28-.22-.5-.5-.5-1.38 0-2.5 1.12-2.5 2.5v6c0 .28.22.5.5.5z"/><path d="m31.02 48h-2c-.28 0-.5.22-.5.5v8c0 .28.22.5.5.5 1.38 0 2.5-1.12 2.5-2.5v-6c0-.28-.22-.5-.5-.5z"/><path d="m12 31.01v-2c0-.28-.22-.5-.5-.5h-7.99c-.28 0-.5.22-.5.5 0 1.38 1.12 2.5 2.5 2.5h5.99c.28 0 .5-.22.5-.5z"/><path d="m54.51 28.49h-6.01c-.28 0-.5.22-.5.5v2c0 .28.22.5.5.5h8.01c.28 0 .5-.22.5-.5 0-1.38-1.12-2.5-2.5-2.5z"/><path d="m15.86 17.99c.2.2.51.2.71 0l1.41-1.41c.2-.2.2-.51 0-.71l-5.66-5.66c-.2-.2-.51-.2-.71 0-.98.98-.98 2.56 0 3.53z"/><path d="m44.16 42.01c-.2-.2-.51-.2-.71 0l-1.41 1.41c-.2.2-.2.51 0 .71l5.66 5.66c.2.2.51.2.71 0 .98-.98.98-2.56 0-3.53z"/><path d="m16.58 42.04c-.2-.2-.51-.2-.71 0l-5.65 5.65c-.2.2-.2.51 0 .71.98.98 2.56.98 3.53 0l4.24-4.24c.2-.2.2-.51 0-.71z"/><path d="m43.43 17.98c.2.2.51.2.71 0l5.66-5.66c.2-.2.2-.51 0-.71-.98-.98-2.56-.98-3.53 0l-4.25 4.25c-.2.2-.2.51 0 .71z"/><path d="m30.01 15.09c-8.23 0-14.92 6.69-14.92 14.91s6.69 14.91 14.92 14.91 14.92-6.69 14.92-14.91-6.69-14.91-14.92-14.91zm0 26.82c-6.57 0-11.92-5.34-11.92-11.91s5.35-11.91 11.92-11.91 11.92 5.34 11.92 11.91-5.35 11.91-11.92 11.91z"/></svg>