<svg enable-background="new 0 0 60 60" viewBox="0 0 60 60" xmlns="http://www.w3.org/2000/svg"><path d="m27.5 42.34v-38.84c0-1.1-.9-2-2-2h-7c-1.1 0-2 .9-2 2v38.87c-2.16 1.67-3.45 4.21-3.5 6.97-.08 4.89 3.95 9.07 8.84 9.16 5.04.09 9.16-3.98 9.16-9 0-2.98-1.26-5.55-3.5-7.16zm-3-37.84v25.48h-5v-25.48zm-3.71 50.88c-2.29-.45-4.15-2.28-4.64-4.55-.5-2.34.36-4.62 2.12-6.03.05-.04.18-.13.34-.24.56-.37.89-.99.89-1.66v-10.34h5v9.46l.01.88c.01.69.37 1.34.97 1.7.1.06.18.11.21.13 1.5 1.05 2.32 2.73 2.32 4.77-.01 3.71-3.39 6.64-7.22 5.88z"/><path d="m45.5 7.49h-4v-3.99c0-.28-.22-.5-.5-.5h-2c-.28 0-.5.22-.5.5v3.99h-4c-.28 0-.5.22-.5.5 0 1.38 1.12 2.5 2.5 2.5h2v4.01c0 .28.22.5.5.5 1.38 0 2.5-1.12 2.5-2.5v-2.01h4c.28 0 .5-.22.5-.5v-2c0-.28-.22-.5-.5-.5z"/><path d="m45.5 41.5h-11c-.28 0-.5.22-.5.5 0 1.38 1.12 2.5 2.5 2.5h9c.28 0 .5-.22.5-.5v-2c0-.28-.22-.5-.5-.5z"/></svg>