<svg enable-background="new 0 0 60 60" viewBox="0 0 60 60" xmlns="http://www.w3.org/2000/svg"><path d="m54.63 20.91c-.1-.26-.4-.4-.66-.29l-.13.05c-1.21.47-1.81 1.78-1.46 3.03 2.26 8.04.04 16.76-5.94 22.74-9.04 9.04-23.74 9.06-32.81.06h5.87c1.38 0 2.5-1.12 2.5-2.5 0-.28-.22-.5-.5-.5h-11c-1.1 0-2 .9-2 2v11c0 .28.22.5.5.5 1.38 0 2.5-1.12 2.5-2.5v-5.88c5.11 5.08 11.8 7.62 18.5 7.62 6.72 0 13.44-2.56 18.56-7.68 7.25-7.25 9.61-18.05 6.07-27.65z"/><path d="m13.56 13.56c9.04-9.04 23.74-9.06 32.81-.06h-5.87c-1.38 0-2.5 1.12-2.5 2.5 0 .28.22.5.5.5h11c1.1 0 2-.9 2-2v-11c0-.28-.22-.5-.5-.5-1.38 0-2.5 1.12-2.5 2.5v5.88c-10.24-10.18-26.85-10.16-37.06.06-7.26 7.26-9.61 18.06-6.07 27.66.1.26.4.4.66.29l.12-.05c1.21-.47 1.81-1.79 1.46-3.03-2.26-8.04-.04-16.76 5.95-22.75z"/><path d="m17.1 33.31c-.43 0-.81-.04-1.12-.11-.32-.07-.59-.16-.82-.27-.25-.13-.41-.05-.49.23l-.49 1.82c-.06.19 0 .34.18.43.3.16.7.29 1.2.41.5.11 1.05.17 1.67.17.78 0 1.47-.09 2.06-.27s1.09-.44 1.49-.77.71-.73.91-1.19.31-.96.31-1.51c0-.43-.07-.82-.2-1.15s-.31-.62-.53-.86-.48-.43-.77-.57-.6-.22-.93-.24v-.07c.26-.08.52-.2.77-.36s.47-.36.67-.6c.19-.25.35-.54.47-.88s.18-.73.18-1.16c0-.48-.09-.92-.26-1.31-.17-.4-.42-.73-.74-1.01s-.7-.49-1.15-.65-.96-.23-1.52-.23c-1.06 0-1.91.21-2.57.64s-1.18 1.04-1.55 1.83c-.11.19-.06.35.14.47l1.53.88c.23.12.4.07.52-.16.19-.36.42-.62.68-.77.26-.16.57-.23.92-.23.31 0 .58.1.8.3s.33.48.33.85c0 .47-.18.82-.54 1.05s-.93.35-1.71.35h-.29c-.17 0-.25.08-.25.25v1.87c0 .17.08.25.25.25h.29c.82 0 1.42.11 1.8.32s.58.54.58.99c0 .84-.6 1.26-1.82 1.26z"/><path d="m28.57 25.66c.38 0 .71.07.98.22s.5.35.69.61c.14.22.32.25.54.09l1.46-1.12c.18-.13.2-.29.07-.49-.18-.26-.38-.51-.6-.74s-.48-.42-.77-.58-.63-.29-1.02-.38c-.38-.09-.82-.14-1.31-.14-.65 0-1.28.12-1.91.35-.62.23-1.18.61-1.67 1.13s-.88 1.2-1.18 2.04-.45 1.86-.45 3.06c0 1.1.1 2.05.31 2.83s.52 1.43.92 1.94.89.88 1.47 1.12 1.23.36 1.96.36c.65 0 1.23-.1 1.75-.31s.97-.5 1.33-.87c.37-.38.65-.83.85-1.37s.3-1.14.3-1.81c0-.64-.09-1.2-.26-1.69-.18-.49-.41-.91-.72-1.24-.31-.34-.68-.59-1.11-.76s-.9-.26-1.4-.26-.95.08-1.34.24-.71.38-.95.64h-.05c.07-.97.28-1.7.61-2.18s.84-.69 1.5-.69zm-1.48 4.59c.24-.14.55-.22.94-.22.96 0 1.44.55 1.44 1.66 0 .56-.14.97-.41 1.23-.28.26-.61.39-1.01.39-.24 0-.45-.04-.64-.13s-.34-.22-.47-.41-.23-.45-.31-.77-.14-.73-.17-1.22c.18-.21.39-.38.63-.53z"/><path d="m40.34 23.5c-.59-.23-1.19-.35-1.82-.35s-1.23.12-1.82.35-1.11.61-1.56 1.12c-.45.52-.81 1.18-1.09 2s-.41 1.8-.41 2.95.14 2.14.41 2.95c.28.82.64 1.48 1.09 2s.97.89 1.56 1.12c.59.24 1.2.36 1.82.36s1.23-.12 1.82-.35 1.11-.61 1.56-1.12.81-1.18 1.09-2 .41-1.8.41-2.95-.14-2.14-.41-2.95c-.28-.82-.64-1.48-1.09-2-.45-.53-.97-.9-1.56-1.13zm-.23 7.8c-.08.47-.2.85-.35 1.14s-.33.51-.54.64-.44.2-.69.2-.48-.07-.69-.2-.39-.34-.54-.64c-.15-.29-.27-.68-.35-1.14-.08-.47-.13-1.04-.13-1.73 0-1.36.16-2.32.48-2.91.32-.58.73-.87 1.23-.87s.92.29 1.23.87c.32.58.48 1.55.48 2.91-.01.68-.05 1.26-.13 1.73z"/><path d="m44.46 23.49c-.5.5-.74 1.13-.74 1.91s.25 1.42.74 1.92 1.13.75 1.91.75c.79 0 1.43-.25 1.93-.74.5-.5.74-1.14.74-1.93 0-.78-.25-1.42-.74-1.91s-1.14-.74-1.93-.74c-.78 0-1.42.25-1.91.74zm3.08 1.92c0 .36-.11.65-.32.88s-.5.34-.85.34c-.34 0-.62-.11-.83-.34-.22-.23-.32-.52-.32-.88 0-.35.11-.64.32-.86.21-.23.49-.34.83-.34s.62.11.84.34c.22.22.33.51.33.86z"/></svg>