<svg enable-background="new 0 0 60 60" viewBox="0 0 60 60" xmlns="http://www.w3.org/2000/svg"><path d="m30.17 42.71-10.67 10.67v-47.88c0-1.38-1.12-2.5-2.5-2.5-.28 0-.5.22-.5.5v49.88l-10.67-10.67c-.98-.98-2.56-.98-3.54 0-.2.2-.2.51 0 .71l14.29 14.29c.78.78 2.05.78 2.83 0l14.29-14.29c.2-.2.2-.51 0-.71-.97-.98-2.55-.98-3.53 0z"/><path d="m57.71 16.59-14.3-14.3c-.78-.78-2.05-.78-2.83 0l-14.29 14.3c-.2.2-.2.51 0 .71.98.98 2.56.98 3.54 0l10.67-10.68v47.88c0 1.38 1.12 2.5 2.5 2.5.28 0 .5-.22.5-.5v-49.88l10.67 10.67c.98.98 2.56.98 3.54 0 .19-.19.19-.51 0-.7z"/></svg>