<svg enable-background="new 0 0 60 60" viewBox="0 0 60 60" xmlns="http://www.w3.org/2000/svg"><path d="m6.61 4.48h11.92c1.36 0 2.47-1.11 2.47-2.47 0-.28-.22-.5-.5-.5h-16.98c-1.1 0-2 .9-2 2v16.99c0 .28.22.5.5.5 1.36 0 2.47-1.11 2.47-2.47v-11.92l19.69 19.72c.98.98 2.56.98 3.54 0 .2-.2.2-.51 0-.71z"/><path d="m56.49 1.52h-16.99c-.28 0-.5.22-.5.5 0 1.36 1.11 2.47 2.47 2.47h11.92l-19.69 19.72c-.98.98-.97 2.56 0 3.54.2.2.51.19.71 0l21.1-21.13v11.92c0 1.36 1.11 2.47 2.47 2.47.28 0 .5-.22.5-.5v-16.99c.01-1.11-.89-2-1.99-2z"/><path d="m26.29 32.29c-.2-.2-.51-.2-.71 0l-21.1 21.1v-11.92c0-1.36-1.11-2.47-2.47-2.47-.28 0-.5.22-.5.5v16.99c0 1.1.9 2 2 2h16.99c.28 0 .5-.22.5-.5 0-1.36-1.11-2.47-2.47-2.47h-11.92l19.68-19.68c.98-.99.98-2.57 0-3.55z"/><path d="m57.99 39c-1.36 0-2.47 1.11-2.47 2.47v11.92l-19.69-19.68c-.98-.98-2.56-.98-3.54 0-.2.2-.2.51 0 .71l21.1 21.1h-11.92c-1.36 0-2.47 1.11-2.47 2.47 0 .28.22.5.5.5h16.99c1.1 0 2-.9 2-2v-16.99c0-.28-.23-.5-.5-.5z"/></svg>