<svg enable-background="new 0 0 60 60" viewBox="0 0 60 60" xmlns="http://www.w3.org/2000/svg"><path d="m57.8 11.72c-.31-.27-.65-.55-.8-.67-3.9-3.1-8.13-4.6-13.01-4.54-5.46.04-10.15 1.57-13.99 4.55-3.8-2.91-8.83-4.56-14-4.56-4.73 0-8.67 1.39-13 4.61-.13.1-.43.33-.73.57-.49.38-.77.96-.77 1.58v38.74c0 1.26 1.45 1.96 2.43 1.17 4.19-3.31 7.68-4.67 12.07-4.67 4.37 0 8.76 1.41 12 3.81.12.09.4.32.71.58.75.63 1.84.63 2.58 0 .31-.26.59-.49.71-.58 3.24-2.4 7.63-3.81 12-3.81 4.59 0 8.41 1.47 12.01 4.63.97.85 2.49.16 2.49-1.13v-38.76c0-.59-.26-1.14-.7-1.52zm-41.8 33.78c-4.18 0-7.74 1.08-11.5 3.56v-35.33c3.94-3 7.31-4.23 11.5-4.23 4.61 0 9.22 1.58 12.51 4.22l-.01 35.3c-3.58-2.26-7.98-3.52-12.5-3.52zm39.5 3.45c-3.46-2.32-7.25-3.45-11.5-3.45-4.52 0-8.92 1.26-12.5 3.52l.01-35.3c3.37-2.74 7.56-4.17 12.51-4.22 4.25-.04 8.03 1.33 11.49 4.19v35.26z"/><path d="m24.21 39.44c-1.25-.55-4.77-1.94-8.21-1.94s-6.94 1.39-8.18 1.94c-.26.11-.37.42-.23.7l.06.12c.55 1.13 1.86 1.68 3.05 1.27 1.43-.5 3.41-1.03 5.3-1.03 2.81 0 5.84 1.18 6.94 1.66.25.11.52 0 .64-.24l.87-1.8c.13-.26.02-.57-.24-.68z"/><path d="m24.21 31.44c-1.25-.55-4.77-1.94-8.21-1.94s-6.94 1.39-8.18 1.94c-.26.11-.37.42-.23.7l.06.12c.55 1.13 1.86 1.68 3.05 1.27 1.43-.5 3.41-1.03 5.3-1.03 2.81 0 5.84 1.18 6.94 1.66.25.11.52 0 .64-.24l.87-1.8c.13-.26.02-.57-.24-.68z"/><path d="m24.21 23.44c-1.25-.55-4.77-1.94-8.21-1.94s-6.94 1.39-8.18 1.94c-.26.11-.37.42-.23.7l.06.12c.55 1.13 1.86 1.68 3.05 1.27 1.43-.5 3.41-1.03 5.3-1.03 2.81 0 5.84 1.18 6.94 1.66.25.11.52 0 .64-.24l.87-1.8c.13-.26.02-.57-.24-.68z"/><path d="m7.65 16.26c.55 1.13 1.86 1.68 3.05 1.27 1.43-.5 3.41-1.03 5.3-1.03 2.81 0 5.84 1.18 6.94 1.66.25.11.52 0 .64-.24l.87-1.8c.12-.26.02-.56-.24-.67-1.25-.55-4.77-1.94-8.21-1.94s-6.94 1.39-8.18 1.94c-.26.11-.37.42-.23.7z"/><path d="m52.2 39.44c-1.25-.55-4.77-1.94-8.21-1.94s-6.94 1.39-8.18 1.94c-.26.11-.37.42-.23.7l.06.12c.55 1.13 1.86 1.68 3.05 1.27 1.42-.49 3.4-1.03 5.3-1.03 2.81 0 5.84 1.18 6.94 1.66.25.11.52 0 .64-.24l.87-1.8c.13-.26.02-.57-.24-.68z"/><path d="m52.2 31.44c-1.25-.55-4.77-1.94-8.21-1.94s-6.94 1.39-8.18 1.94c-.26.11-.37.42-.23.7l.06.12c.55 1.13 1.86 1.68 3.05 1.27 1.42-.49 3.4-1.03 5.3-1.03 2.81 0 5.84 1.18 6.94 1.66.25.11.52 0 .64-.24l.87-1.8c.13-.26.02-.57-.24-.68z"/><path d="m52.2 23.44c-1.25-.55-4.77-1.94-8.21-1.94s-6.94 1.39-8.18 1.94c-.26.11-.37.42-.23.7l.06.12c.55 1.13 1.86 1.68 3.05 1.27 1.42-.49 3.4-1.03 5.3-1.03 2.81 0 5.84 1.18 6.94 1.66.25.11.52 0 .64-.24l.87-1.8c.13-.26.02-.57-.24-.68z"/><path d="m35.81 15.44c-.26.11-.37.42-.23.7l.06.12c.55 1.13 1.86 1.68 3.05 1.27 1.42-.49 3.4-1.03 5.3-1.03 2.81 0 5.84 1.18 6.94 1.66.25.11.52 0 .64-.24l.87-1.8c.12-.26.02-.56-.24-.67-1.25-.55-4.77-1.94-8.21-1.94-3.44-.01-6.94 1.38-8.18 1.93z"/></svg>