<svg enable-background="new 0 0 60 60" viewBox="0 0 60 60" xmlns="http://www.w3.org/2000/svg"><path d="m56.5 10.5h-40c-.28 0-.5.22-.5.5 0 1.38 1.12 2.5 2.5 2.5h38c.28 0 .5-.22.5-.5v-2c0-.28-.22-.5-.5-.5z"/><path d="m56.5 28.5h-40c-.28 0-.5.22-.5.5 0 1.38 1.12 2.5 2.5 2.5h38c.28 0 .5-.22.5-.5v-2c0-.28-.22-.5-.5-.5z"/><path d="m56.5 46.5h-40c-.28 0-.5.22-.5.5 0 1.38 1.12 2.5 2.5 2.5h38c.28 0 .5-.22.5-.5v-2c0-.28-.22-.5-.5-.5z"/><path d="m6.5 43.25c-2.62 0-4.75 2.13-4.75 4.75s2.13 4.75 4.75 4.75 4.75-2.13 4.75-4.75-2.13-4.75-4.75-4.75zm0 7c-1.24 0-2.25-1.01-2.25-2.25s1.01-2.25 2.25-2.25 2.25 1.01 2.25 2.25-1.01 2.25-2.25 2.25z"/><path d="m6.5 7.25c-2.62 0-4.75 2.13-4.75 4.75s2.13 4.75 4.75 4.75 4.75-2.13 4.75-4.75-2.13-4.75-4.75-4.75zm0 7c-1.24 0-2.25-1.01-2.25-2.25s1.01-2.25 2.25-2.25 2.25 1.01 2.25 2.25-1.01 2.25-2.25 2.25z"/><path d="m6.5 25.25c-2.62 0-4.75 2.13-4.75 4.75s2.13 4.75 4.75 4.75 4.75-2.13 4.75-4.75-2.13-4.75-4.75-4.75zm0 7c-1.24 0-2.25-1.01-2.25-2.25s1.01-2.25 2.25-2.25 2.25 1.01 2.25 2.25-1.01 2.25-2.25 2.25z"/></svg>