<svg enable-background="new 0 0 60 60" viewBox="0 0 60 60" xmlns="http://www.w3.org/2000/svg"><path d="m44 29.5c-8 0-14.5 6.5-14.5 14.5s6.5 14.5 14.5 14.5 14.5-6.5 14.5-14.5-6.5-14.5-14.5-14.5zm0 26c-6.34 0-11.5-5.16-11.5-11.5s5.16-11.5 11.5-11.5 11.5 5.16 11.5 11.5-5.16 11.5-11.5 11.5z"/><path d="m47.59 44.45-2.11-1.22.01-7.72c0-.28-.22-.5-.5-.5-1.38 0-2.5 1.12-2.5 2.5l-.01 6.3c0 .71.38 1.37 1 1.73l4.33 2.51c.24.14.54.06.68-.18.7-1.2.3-2.73-.9-3.42z"/><path d="m14.83 38.75c.08.08.2.13.35.13h2.91c.15 0 .27-.04.35-.13s.13-.2.13-.35v-18.36c0-.15-.04-.27-.13-.35s-.2-.13-.35-.13h-2.13c-.09 0-.19.01-.28.03s-.18.05-.25.08l-4.73 1.93c-.13.06-.22.14-.27.24s-.05.23-.01.38l.7 2.07c.06.15.14.25.25.29.11.05.23.04.36-.01l2.97-1.12v14.95c0 .15.05.27.13.35z"/><path d="m34.44 22.12c.02-.08.03-.16.03-.24v-1.85c0-.15-.04-.27-.13-.35s-.2-.13-.35-.13h-11.64c-.15 0-.27.04-.35.13s-.13.2-.13.35v2.35c0 .15.04.27.13.35s.2.13.35.13h7.62v.11l-7.39 15.34c-.09.15-.11.28-.04.39.06.11.19.17.38.17h3.33c.13 0 .24-.03.34-.08.09-.06.17-.15.22-.28l7.56-16.1c.03-.11.05-.2.07-.29z"/><path d="m25.5 43.5h-12.5c-4.69 0-8.5-3.81-8.5-8.5v-18.5h37v9c0 .28.22.5.5.5 1.38 0 2.5-1.12 2.5-2.5v-16c0-1.1-.9-2-2-2h-4.61v-2c0-1.1-.9-2-2-2h-5.39c-1.1 0-2 .9-2 2v2h-11v-2c0-1.1-.9-2-2-2h-5.39c-1.1 0-2 .9-2 2v2h-4.61c-1.1 0-2 .9-2 2v27.5c0 6.35 5.15 11.5 11.5 11.5h10.5c1.38 0 2.5-1.12 2.5-2.5 0-.28-.22-.5-.5-.5zm6-39h3.39v3.68h-3.39zm-20.39 0h3.39v3.68h-3.39zm-3 4v.68c0 1.1.9 2 2 2h5.39c1.1 0 2-.9 2-2v-.68h11v.68c0 1.1.9 2 2 2h5.39c1.1 0 2-.9 2-2v-.68h3.61v5h-37v-5z"/></svg>