<svg enable-background="new 0 0 60 60" viewBox="0 0 60 60" xmlns="http://www.w3.org/2000/svg"><path d="m56.5 7.5h-7v-1-3c0-1.1-.9-2-2-2h-5c-1.1 0-2 .9-2 2v3 1h-21v-4c0-1.1-.9-2-2-2h-5c-1.1 0-2 .9-2 2v4h-7c-1.1 0-2 .9-2 2v37.5c0 6.35 5.15 11.5 11.5 11.5h43.5c1.1 0 2-.9 2-2v-47c0-1.1-.9-2-2-2zm-13-1v-2h3v2 3.9h-3zm-30 1v-3h3v3 2.96h-3zm42 48h-42.5c-4.69 0-8.5-3.81-8.5-8.5v-27.52h51zm0-39.02h-51v-5.98h6v.81c0 .93.9 1.69 2 1.69h5c1.1 0 2-.76 2-1.69v-.81h21v.77c0 .96.9 1.73 2 1.73h5c1.1 0 2-.78 2-1.73v-.77h6z"/><path d="m14.81 30.8c.07.19.18.32.32.38s.3.05.47-.02l3.82-1.44v19.22c0 .19.05.34.16.45s.26.16.45.16h3.74c.19 0 .34-.05.45-.16s.16-.26.16-.45v-23.61c0-.19-.05-.34-.16-.45s-.26-.16-.45-.16h-2.74c-.12 0-.24.01-.36.04-.12.02-.23.06-.32.11l-6.08 2.48c-.17.07-.28.17-.34.31-.06.13-.07.29-.02.49z"/><path d="m29.28 31.16 2.84 1.01c.22.07.39.07.52 0s.22-.22.27-.43c.31-1.06.76-1.84 1.35-2.36s1.33-.77 2.21-.77c.96 0 1.7.3 2.21.9.52.6.77 1.44.77 2.52 0 1.03-.24 2.03-.72 3.01-.48.97-1.42 2.21-2.81 3.73l-6.37 6.88c-.1.12-.17.24-.22.36s-.07.25-.07.4v2.56c0 .19.05.34.16.45s.26.16.45.16h14.29c.19 0 .34-.05.45-.16s.16-.26.16-.45v-3.1c0-.19-.05-.34-.16-.45s-.26-.16-.45-.16h-8.5v-.16l3.82-4c1.94-1.99 3.26-3.71 3.96-5.15s1.04-2.93 1.04-4.46c0-2.21-.68-3.96-2.05-5.26s-3.24-1.94-5.62-1.94c-1.99 0-3.68.53-5.06 1.6s-2.35 2.57-2.9 4.52c-.05.19-.04.35.04.49.1.13.22.22.39.26z"/></svg>