<svg enable-background="new 0 0 60 60" viewBox="0 0 60 60" xmlns="http://www.w3.org/2000/svg"><path d="m56.5 11.5h-13.57l-2.45-4.89c-.34-.68-1.03-1.11-1.79-1.11h-17.38c-.76 0-1.45.43-1.79 1.11l-2.45 4.89h-13.57c-1.1 0-2 .9-2 2v28.5c0 6.35 5.15 11.5 11.5 11.5h43.5c1.1 0 2-.9 2-2v-38c0-1.1-.9-2-2-2zm-1 39h-42.5c-4.69 0-8.5-3.81-8.5-8.5v-27.5h12.88c.95 0 1.81-.54 2.24-1.38l2.31-4.62h16.15l2.31 4.62c.42.85 1.29 1.38 2.24 1.38h12.87z"/><path d="m30 17.5c-7.44 0-13.5 6.06-13.5 13.5s6.06 13.5 13.5 13.5 13.5-6.06 13.5-13.5-6.06-13.5-13.5-13.5zm0 24c-5.79 0-10.5-4.71-10.5-10.5s4.71-10.5 10.5-10.5 10.5 4.71 10.5 10.5-4.71 10.5-10.5 10.5z"/><circle cx="49.5" cy="20.5" r="2.5"/></svg>