<svg enable-background="new 0 0 60 60" viewBox="0 0 60 60" xmlns="http://www.w3.org/2000/svg"><path d="m56.5 1.5h-53c-1.1 0-2 .9-2 2v43.5c0 6.35 5.15 11.5 11.5 11.5h43.5c1.1 0 2-.9 2-2v-53c0-1.1-.9-2-2-2zm-1 54h-42.5c-4.69 0-8.5-3.81-8.5-8.5v-42.5h51z"/><path d="m26 19.5h21.5c.28 0 .5-.22.5-.5v-2c0-.28-.22-.5-.5-.5h-23c-.28 0-.5.22-.5.5v.5c0 1.1.9 2 2 2z"/><path d="m26 31.5h21.5c.28 0 .5-.22.5-.5v-2c0-.28-.22-.5-.5-.5h-23c-.28 0-.5.22-.5.5v.5c0 1.1.9 2 2 2z"/><path d="m26 43.5h21.5c.28 0 .5-.22.5-.5v-2c0-.28-.22-.5-.5-.5h-23c-.28 0-.5.22-.5.5v.5c0 1.1.9 2 2 2z"/><path d="m15 25.75c-2.34 0-4.25 1.91-4.25 4.25s1.91 4.25 4.25 4.25 4.25-1.91 4.25-4.25-1.91-4.25-4.25-4.25zm0 6c-.96 0-1.75-.79-1.75-1.75s.79-1.75 1.75-1.75 1.75.79 1.75 1.75-.79 1.75-1.75 1.75z"/><path d="m15 37.75c-2.34 0-4.25 1.91-4.25 4.25s1.91 4.25 4.25 4.25 4.25-1.91 4.25-4.25-1.91-4.25-4.25-4.25zm0 6c-.96 0-1.75-.79-1.75-1.75s.79-1.75 1.75-1.75 1.75.79 1.75 1.75-.79 1.75-1.75 1.75z"/><path d="m12.59 19.35c.78.78 2.05.78 2.83 0l5.12-5.12c.2-.2.2-.51 0-.71-.78-.78-2.05-.78-2.83 0l-3.7 3.7-1.76-1.76c-.2-.2-.51-.2-.71 0l-1.06 1.06c-.2.2-.2.51 0 .71z"/></svg>