<svg enable-background="new 0 0 60 60" viewBox="0 0 60 60" xmlns="http://www.w3.org/2000/svg"><path d="m56.5 23.5h-6.34c-.74 0-1.41-.44-1.69-1.13l-.01-.03c-.29-.69-.13-1.48.4-2.01l4.48-4.48c.78-.78.78-2.05 0-2.83l-6.36-6.36c-.78-.78-2.05-.78-2.83 0l-4.48 4.48c-.53.53-1.32.68-2.01.4l-.02-.01c-.69-.29-1.13-.96-1.13-1.7v-6.33c0-1.1-.9-2-2-2h-9c-1.1 0-2 .9-2 2v6.34c0 .74-.44 1.41-1.13 1.69l-.03.01c-.69.29-1.48.13-2.01-.4l-4.48-4.48c-.78-.78-2.05-.78-2.83 0l-6.36 6.36c-.78.78-.78 2.05 0 2.83l4.48 4.48c.52.52.68 1.31.4 2l-.01.03c-.29.69-.96 1.13-1.7 1.13h-6.34c-1.1 0-2 .9-2 2v9c0 1.1.9 2 2 2h6.34c.74 0 1.41.44 1.69 1.13l.01.03c.29.69.13 1.48-.4 2.01l-4.48 4.48c-.78.78-.78 2.05 0 2.83l6.36 6.36c.78.78 2.05.78 2.83 0l4.48-4.48c.53-.53 1.32-.68 2.01-.4l.02.01c.69.29 1.13.96 1.13 1.7v6.33c0 1.1.9 2 2 2h9c1.1 0 2-.9 2-2v-6.34c0-.74.44-1.41 1.13-1.69l.03-.01c.69-.29 1.48-.13 2.01.4l4.48 4.48c.78.78 2.05.78 2.83 0l6.36-6.36c.78-.78.78-2.05 0-2.83l-4.48-4.48c-.53-.53-.68-1.32-.4-2.01l.01-.03c.28-.68.95-1.13 1.69-1.13h6.34c1.1 0 2-.9 2-2v-9c.01-1.09-.89-1.99-1.99-1.99zm-1 10h-6.96c-1.09 0-2.04.72-2.38 1.76-.28.84-.62 1.66-1.02 2.44-.5.98-.34 2.16.43 2.94l.81.81 1.27 1.27 2.85 2.85-4.95 4.95-2.74-2.74-1.37-1.37-.81-.81c-.78-.78-1.96-.94-2.94-.43-.78.4-1.59.74-2.44 1.02-1.04.34-1.76 1.29-1.76 2.38v6.96h-7v-6.96c0-1.09-.72-2.04-1.76-2.38-.84-.28-1.66-.62-2.44-1.02-.98-.5-2.16-.34-2.94.43l-.81.81-3.57 3.57-.55.55-4.33-4.33-.62-.62 2.85-2.85 1.27-1.27.81-.81c.78-.78.94-1.96.43-2.94-.4-.78-.74-1.59-1.02-2.44-.34-1.04-1.29-1.76-2.38-1.76h-6.93v-7h6.96c1.09 0 2.04-.72 2.38-1.76.28-.84.62-1.65 1.01-2.43.5-.98.34-2.17-.44-2.94l-.81-.81-4.12-4.12 4.95-4.95 4.12 4.12.81.81c.78.78 1.96.94 2.94.43.78-.4 1.59-.74 2.44-1.02 1.04-.34 1.76-1.29 1.76-2.38v-6.96h7v6.96c0 1.09.72 2.04 1.76 2.38.84.28 1.66.62 2.44 1.02.98.5 2.16.34 2.94-.44.44-.44.81-.81.81-.81l1.27-1.27 2.85-2.85.62.62 4.33 4.33-.59.59-3.53 3.53-.81.81c-.78.78-.94 1.96-.43 2.94.4.78.74 1.59 1.02 2.44.34 1.04 1.29 1.76 2.38 1.76h6.96v6.99z"/><path d="m31.56 18.1c-7.85-.99-14.45 5.61-13.46 13.46.67 5.35 4.99 9.67 10.34 10.34 7.85.99 14.45-5.61 13.46-13.46-.67-5.35-4.99-9.67-10.34-10.34zm7.31 13.43c-.62 3.73-3.62 6.73-7.35 7.35-6.15 1.02-11.42-4.25-10.4-10.4.62-3.73 3.62-6.73 7.35-7.35 6.15-1.02 11.42 4.25 10.4 10.4z"/></svg>