<svg enable-background="new 0 0 60 60" viewBox="0 0 60 60" xmlns="http://www.w3.org/2000/svg"><path d="m56.5 13.5h-8.77c-.67-2.58-3.01-4.5-5.8-4.5s-5.13 1.92-5.8 4.5h-32.63c-.28 0-.5.22-.5.5 0 1.38 1.12 2.5 2.5 2.5h30.62c.67 2.58 3.01 4.5 5.8 4.5s5.13-1.92 5.8-4.5h8.77c.28 0 .5-.22.5-.5v-2c.01-.28-.21-.5-.49-.5zm-14.58 4.5c-1.65 0-3-1.35-3-3s1.35-3 3-3 3 1.35 3 3-1.34 3-3 3z"/><path d="m56.5 28.5h-34.2c-.67-2.58-3.01-4.5-5.8-4.5s-5.13 1.92-5.8 4.5h-7.2c-.28 0-.5.22-.5.5 0 1.38 1.12 2.5 2.5 2.5h5.2c.67 2.58 3.01 4.5 5.8 4.5s5.13-1.92 5.8-4.5h34.2c.28 0 .5-.22.5-.5v-2c0-.28-.22-.5-.5-.5zm-40 4.5c-1.65 0-3-1.35-3-3s1.35-3 3-3 3 1.35 3 3-1.35 3-3 3z"/><path d="m56.5 43.5h-17.72c-.67-2.58-3.01-4.5-5.8-4.5s-5.13 1.92-5.8 4.5h-23.68c-.28 0-.5.22-.5.5 0 1.38 1.12 2.5 2.5 2.5h21.67c.67 2.58 3.01 4.5 5.8 4.5s5.13-1.92 5.8-4.5h17.73c.28 0 .5-.22.5-.5v-2c0-.28-.22-.5-.5-.5zm-23.53 4.5c-1.65 0-3-1.35-3-3s1.35-3 3-3 3 1.35 3 3-1.34 3-3 3z"/></svg>