<svg enable-background="new 0 0 60 60" viewBox="0 0 60 60" xmlns="http://www.w3.org/2000/svg"><circle cx="30" cy="30" r="4"/><path d="m57.5 28.5h-12c-.28 0-.5.22-.5.5v2c0 .28.22.5.5.5h10c1.38 0 2.5-1.12 2.5-2.5 0-.28-.22-.5-.5-.5z"/><path d="m15 31v-2c0-.28-.22-.5-.5-.5h-12c-.28 0-.5.22-.5.5 0 1.38 1.12 2.5 2.5 2.5h10c.28 0 .5-.22.5-.5z"/><path d="m29 15h2c.28 0 .5-.22.5-.5v-12c0-.28-.22-.5-.5-.5-1.38 0-2.5 1.12-2.5 2.5v10c0 .28.22.5.5.5z"/><path d="m31 45h-2c-.28 0-.5.22-.5.5v10c0 1.38 1.12 2.5 2.5 2.5.28 0 .5-.22.5-.5v-12c0-.28-.22-.5-.5-.5z"/><path d="m36.36 8.42c7.3 2.15 13.07 7.92 15.22 15.22.06.21.25.36.47.36h2.08c.33 0 .58-.31.49-.63-2.36-8.74-9.25-15.63-17.99-17.99-.32-.08-.63.16-.63.49v2.08c0 .22.15.41.36.47z"/><path d="m23.37 5.38c-8.74 2.36-15.63 9.25-17.99 17.99-.08.32.16.63.49.63h2.08c.22 0 .41-.15.47-.36 2.15-7.3 7.92-13.07 15.22-15.22.21-.06.36-.25.36-.47v-2.08c0-.33-.31-.57-.63-.49z"/><path d="m23.64 51.58c-7.3-2.15-13.07-7.92-15.22-15.22-.06-.21-.25-.36-.47-.36h-2.08c-.33 0-.58.31-.49.63 2.36 8.74 9.25 15.63 17.99 17.99.32.08.63-.16.63-.49v-2.08c0-.22-.15-.41-.36-.47z"/><path d="m54.13 36h-2.08c-.22 0-.41.15-.47.36-2.15 7.3-7.92 13.07-15.22 15.22-.21.06-.36.25-.36.47v2.08c0 .33.31.58.63.49 8.74-2.36 15.63-9.25 17.99-17.99.08-.32-.16-.63-.49-.63z"/></svg>