<svg enable-background="new 0 0 60 60" viewBox="0 0 60 60" xmlns="http://www.w3.org/2000/svg"><path d="m30 22.62c-4.07 0-7.38 3.31-7.38 7.38s3.31 7.38 7.38 7.38 7.38-3.31 7.38-7.38-3.31-7.38-7.38-7.38zm0 12c-2.54 0-4.62-2.07-4.62-4.62s2.07-4.62 4.62-4.62 4.62 2.07 4.62 4.62-2.08 4.62-4.62 4.62z"/><path d="m51 22.62c-4.07 0-7.38 3.31-7.38 7.38s3.31 7.38 7.38 7.38 7.38-3.31 7.38-7.38-3.31-7.38-7.38-7.38zm0 12c-2.54 0-4.62-2.07-4.62-4.62s2.07-4.62 4.62-4.62 4.62 2.07 4.62 4.62-2.08 4.62-4.62 4.62z"/><path d="m9 22.62c-4.07 0-7.38 3.31-7.38 7.38s3.31 7.38 7.38 7.38 7.38-3.31 7.38-7.38-3.31-7.38-7.38-7.38zm0 12c-2.54 0-4.62-2.07-4.62-4.62s2.08-4.62 4.62-4.62 4.62 2.07 4.62 4.62-2.08 4.62-4.62 4.62z"/></svg>