<svg enable-background="new 0 0 60 60" viewBox="0 0 60 60" xmlns="http://www.w3.org/2000/svg"><path d="m20.52 13.5h21c.28 0 .5-.22.5-.5v-2c0-.28-.22-.5-.5-.5h-23c-.28 0-.5.22-.5.5 0 1.38 1.12 2.5 2.5 2.5z"/><path d="m20.52 22.5h9c.28 0 .5-.22.5-.5v-2c0-.28-.22-.5-.5-.5h-11c-.28 0-.5.22-.5.5 0 1.38 1.12 2.5 2.5 2.5z"/><path d="m36.02 31v-2c0-.28-.22-.5-.5-.5h-17c-.28 0-.5.22-.5.5 0 1.38 1.12 2.5 2.5 2.5h15c.27 0 .5-.22.5-.5z"/><path d="m56.52 22.5h-4v-19c0-1.1-.9-2-2-2h-41c-1.1 0-2 .9-2 2v19h-4c-1.1 0-2 .9-2 2v22.5c0 6.35 5.15 11.5 11.5 11.5h43.5c1.1 0 2-.9 2-2v-32c0-1.1-.9-2-2-2zm-46-18h39v24.16l-19.5 17.33-19.5-17.33zm45 51h-42.5c-4.69 0-8.5-3.81-8.5-8.5v-19.66l24.17 21.49c.76.67 1.9.67 2.66 0l24.17-21.49z"/></svg>