<svg enable-background="new 0 0 60 60" viewBox="0 0 60 60" xmlns="http://www.w3.org/2000/svg"><circle cx="30" cy="27" r="5"/><path d="m58.46 28.64c-3.42-3.7-13.98-13.64-28.46-13.64s-25.04 9.94-28.46 13.64c-.71.77-.71 1.96 0 2.73 3.42 3.69 13.98 13.63 28.46 13.63s25.04-9.94 28.46-13.64c.72-.77.72-1.95 0-2.72zm-28.46-10.64c4.99 0 9.05 4.06 9.05 9.05s-4.06 9.05-9.05 9.05-9.05-4.06-9.05-9.05 4.06-9.05 9.05-9.05zm0 24.02c-12.6 0-22.2-8.48-25.65-12.02 2.52-2.59 8.34-7.81 16.22-10.43-1.63 2.06-2.62 4.65-2.62 7.48 0 6.65 5.39 12.05 12.05 12.05s12.05-5.39 12.05-12.05c0-2.83-.98-5.43-2.62-7.48 7.87 2.62 13.69 7.84 16.22 10.43-3.45 3.54-13.05 12.02-25.65 12.02z"/></svg>