<svg enable-background="new 0 0 60 60" viewBox="0 0 60 60" xmlns="http://www.w3.org/2000/svg"><path d="m58.46 28.64c-1.85-2-5.8-5.83-11.32-8.92-.2-.11-.45-.08-.61.08l-1.48 1.48c-.24.24-.17.63.12.79 4.95 2.68 8.6 6.03 10.46 7.93-3.43 3.54-13.03 12.02-25.63 12.02-1.71 0-3.36-.17-4.95-.45-.16-.03-.32.02-.43.14l-1.71 1.71c-.28.28-.14.76.24.85 2.16.46 4.45.73 6.85.73 14.48 0 25.04-9.94 28.46-13.64.72-.77.72-1.95 0-2.72z"/><path d="m13.4 40.17 1.35-1.35c.37-.37.3-.76.01-.92-4.92-2.67-8.56-6-10.41-7.91 2.53-2.59 8.36-7.82 16.24-10.44-1.38 1.73-2.31 3.84-2.56 6.13-.3 2.72.32 5.28 1.57 7.43.16.28.55.32.78.09.45-.45 1.12-1.12 1.48-1.48.15-.15.18-.38.08-.57-.84-1.63-1.2-3.55-.87-5.57.61-3.8 3.67-6.86 7.47-7.47 2.02-.32 3.94.04 5.58.88.19.1.42.07.58-.08l1.91-1.91.43-.43c.28-.28.14-.76-.24-.85-2.16-.45-4.43-.72-6.8-.72-14.48 0-25.04 9.94-28.46 13.64-.71.77-.71 1.96 0 2.73 1.85 1.99 5.77 5.8 11.27 8.89.19.1.44.07.59-.09z"/><path d="m41.09 25.24-1.93 1.93c-.09.09-.13.2-.14.32-.22 4.64-3.96 8.37-8.6 8.59-.12.01-.23.05-.32.14-.34.34-1.28 1.27-1.93 1.93-.3.3-.12.8.29.85 1.64.21 3.37.1 5.17-.47 3.97-1.25 7.05-4.54 8.05-8.58.38-1.53.44-3.01.26-4.41-.04-.42-.55-.59-.85-.3z"/><path d="m25 27c0 .48.09.94.22 1.38l6.17-6.16c-.45-.13-.91-.22-1.39-.22-2.76 0-5 2.24-5 5z"/><path d="m54.71 6.7c-.98-.98-2.56-.98-3.53 0l-45.89 45.81c-.2.2-.2.51 0 .71l1.41 1.42c.2.2.51.2.71 0l47.3-47.23c.19-.2.19-.51 0-.71z"/></svg>