<svg enable-background="new 0 0 60 60" viewBox="0 0 60 60" xmlns="http://www.w3.org/2000/svg"><path d="m11.15 13.21-.24-.09c-.32-.13-.45-.43-.32-.7.96-1.99 5.26-9.31 17.04-10.42.28-.03.53.18.55.46 0 0 0 .03.01.09.1 1.28-.78 2.45-2.05 2.66-7 1.15-10.49 4.84-12 7.06-.66.98-1.89 1.37-2.99.94z"/><path d="m41.33 15.32c-.98.65-2.29.54-3.13-.28-1.48-1.46-4.22-3.54-8.16-4.1-3.94-.57-7.11 1.34-8.86 2.76-.93.75-2.25.77-3.16.01l-.23-.19c-.22-.19-.25-.52-.05-.73 1.3-1.38 6.04-5.77 12.72-4.81 6.45.92 10.17 5.1 11.22 6.47.18.23.12.55-.12.72-.06.03-.14.09-.23.15z"/><path d="m29.96 32.15-.1-.1c-.91-.91-.98-2.34-.17-3.34 1.56-1.93 3.39-4.75 4.11-7.63.63-2.5-2.52-3.99-3.04-4.22-.01 0-.01 0-.02-.01-.54-.15-4.31-1.05-6.17 2.31-3.31 5.99-11.5 9.41-13.6 10.21-.26.1-.55-.04-.65-.3l-.04-.13c-.42-1.22.15-2.56 1.32-3.09 2.92-1.32 8.11-4.11 10.34-8.14 2.53-4.58 7.49-4.42 9.77-3.7l.1.04c2.15.86 5.94 3.59 4.9 7.76-1.01 4.02-3.8 7.99-6.04 10.34-.19.21-.51.2-.71 0z"/><path d="m48.58 38.76c-.1.3-.39.43-.66.33-1.52-.59-5.89-2.49-7.68-5.5-3.05-5.1-1.03-12.65-.41-14.65.08-.27.37-.41.64-.32l.15.05c1.21.42 1.89 1.68 1.61 2.93-.62 2.7-1.27 7.35.59 10.45.86 1.44 2.9 2.7 4.56 3.52 1.13.56 1.66 1.87 1.24 3.06z"/><path d="m10.79 35.24-.01-.04c-.37-1.29.35-2.65 1.63-3.07 2.5-.81 6.48-2.19 9.16-3.64 3.61-1.95 5.58-7.14 6.1-8.69.08-.25.35-.39.61-.32 1.35.38 2.07 1.85 1.53 3.14-1.1 2.61-3.28 6.6-6.81 8.5-3.83 2.07-9.84 3.93-11.58 4.45-.27.09-.55-.07-.63-.33z"/><path d="m12.54 41.69-.02-.06c-.37-1.28.32-2.64 1.59-3.07 3.1-1.06 8.63-3.16 11.81-5.67.21-.17.51-.14.69.06.94 1.1.73 2.68-.49 3.46-4.57 2.92-11.11 5.04-12.95 5.61-.28.09-.55-.06-.63-.33z"/><path d="m46.28 44.97c-6.29-2.41-12.06-8.56-13.5-10.17-.19-.21-.16-.52.05-.71l.08-.07c1-.85 2.48-.79 3.4.14 1.97 2.01 5.57 5.35 9.43 7.28 1.13.56 1.66 1.87 1.24 3.06l-.04.12c-.1.31-.4.45-.66.35z"/><path d="m43.17 49.46c-1.15-.53-2.51-1.29-3.62-1.95-1.18-.7-1.55-2.24-.8-3.4l.01-.02c.15-.24.45-.31.68-.16.65.41 1.99 1.23 3.32 1.96 1.13.62 1.62 1.98 1.12 3.17l-.04.11c-.12.28-.41.4-.67.29z"/><path d="m18.22 52.99c-.59-1.25-.05-2.74 1.19-3.33l2.29-1.08c.25-.12.55-.01.67.24.59 1.25.05 2.74-1.19 3.33l-2.29 1.08c-.25.12-.55.01-.67-.24z"/><path d="m14.55 47.66-.03-.09c-.39-1.26.26-2.61 1.5-3.07 2.23-.84 5.85-2.36 9.44-4.5 2.68-1.6 6.06-1.83 8.04-.54 1.61 1.04 2.92 2.27 3.52 2.88.2.2.19.53-.02.72l-.13.12c-.93.85-2.33.87-3.29.07-.49-.41-1.07-.86-1.7-1.26-.9-.58-3.07-.48-4.88.6-5.17 3.09-10.26 4.9-11.82 5.42-.27.06-.55-.09-.63-.35z"/><path d="m36.8 57.59c-.94.62-2.19.54-3.02-.21-.94-.86-2.35-1.76-4-1.55-1.74.21-3.2.77-4.23 1.28-1.05.52-2.31.2-3.03-.71l-.18-.23c-.18-.23-.13-.56.11-.72.98-.66 3.54-2.18 6.98-2.6 4.03-.49 6.86 2.64 7.78 3.83.18.23.13.57-.12.73z"/><path d="m40.75 52.87c-.96.85-2.4.84-3.34-.03-2.01-1.86-4.74-3.83-6.66-3.84-.01 0-.02 0-.03 0-1.31 0-2.4.19-3.22.41-1.09.3-2.24-.13-2.83-1.09l-.21-.34c-.15-.25-.06-.58.2-.71.9-.44 3.03-1.28 6.06-1.28h.04c4.16.01 8.78 4.62 10.13 6.07.19.21.17.52-.04.71z"/><path d="m10.26 22.4-.07-.29c-.3-1.15.25-2.34 1.32-2.87.94-.46 2.11-1.16 3.18-2.16.88-.82 2.21-.9 3.18-.19l.18.14c.23.17.28.5.1.72-2.52 3.16-5.97 4.56-7.26 4.99-.27.1-.56-.06-.63-.34z"/><path d="m49.79 32.62c-.03.31-.33.53-.62.44-.65-.19-1.71-.66-2.6-1.87-1.66-2.27-1.92-5.99-.77-11.07.63-2.78.24-5.21-1.2-7.41-3.33-5.1-11.17-7.22-13.16-7.69-.26-.06-.42-.32-.37-.58.27-1.37 1.65-2.23 2.99-1.83 3.52 1.05 9.84 3.54 13.05 8.45 1.88 2.88 2.42 6.14 1.62 9.71-.92 4.08-.55 6.35-.23 7.66.08.34.38.71.69 1.03.51.52.77 1.24.71 1.96z"/></svg>