<svg enable-background="new 0 0 60 60" viewBox="0 0 60 60" xmlns="http://www.w3.org/2000/svg"><path d="m51.33 24.94c-1.27-1.27-3.06-1.71-5.06-1.24-1.49.34-3 1.18-4.06 2.24l-2.44 2.44c0-6.11.01-17.9 0-19.39-.03-3.65-2.47-7.45-6.49-7.49-1.62-.02-3.07.6-4.26 1.79-1.44 1.44-2.28 3.57-2.26 5.72.01 1.43.01 6.33.01 10.8-.94-.82-2.1-1.31-3.51-1.31-2.68 0-4.33 1.69-5.3 3.77-1.1-1.6-2.68-2.77-4.7-2.77-4.19 0-6.5 5.03-6.5 8.5 0 5.14.93 18.96 1 20.05.03 5.77 4.73 10.45 10.5 10.45h13c2.62 0 3.97-1.35 5.06-2.44.79-.79 5.19-7.22 15.19-22.23 1.68-2.51 2.34-6.37-.18-8.89zm-2.31 7.23c-3.4 5.1-13.76 20.63-14.81 21.77-.94.94-1.56 1.56-2.94 1.56h-13c-4.14 0-7.5-3.36-7.5-7.5v-.1c-.01-.15-1-14.76-1-19.9 0-2.48 1.62-5.5 3.5-5.5 1.44 0 2.72 1.76 3.24 3.69.29 1.08 1.28 1.81 2.4 1.81h.37c.27 0 .48-.2.5-.47.11-1.97.86-6.03 3.49-6.03 2.03 0 2.94 2.45 3.3 4.47.21 1.18 1.26 2.03 2.46 2.03h.25c.28 0 .5-.22.5-.49 0-2.73.02-16 0-18.53-.01-1.34.52-2.71 1.38-3.57.41-.41 1.1-.91 2.06-.91h.03c2.15.02 3.5 2.36 3.51 4.51.02 1.97 0 22.78 0 22.99v2.42c0 .45.54.67.85.35l6.71-6.71c.66-.66 1.69-1.23 2.62-1.44.98-.22 1.74-.08 2.26.44 1.42 1.42.67 3.83-.18 5.11z"/></svg>