<svg viewBox="0 0 60 60" xmlns="http://www.w3.org/2000/svg"><path d="M47.5 1.5h-35c-1.1 0-2 .9-2 2V47c0 6.35 5.15 11.5 11.5 11.5h25.5c1.1 0 2-.9 2-2v-53c0-1.1-.9-2-2-2zm-1 54H22c-4.69 0-8.5-3.81-8.5-8.5V4.5h33z"/><path d="M20.51 33.5h21c.28 0 .5-.22.5-.5v-2c0-.28-.22-.5-.5-.5h-23c-.28 0-.5.22-.5.5a2.5 2.5 0 002.5 2.5zM20.51 27.5h21c.28 0 .5-.22.5-.5v-2c0-.28-.22-.5-.5-.5h-23c-.28 0-.5.22-.5.5a2.5 2.5 0 002.5 2.5zM41.51 45.5h-23c-.28 0-.5.22-.5.5a2.5 2.5 0 002.5 2.5h21c.28 0 .5-.22.5-.5v-2c0-.28-.22-.5-.5-.5zM20.5 39.5h21c.28 0 .5-.22.5-.5v-2c0-.28-.22-.5-.5-.5h-23c-.28 0-.5.22-.5.5a2.5 2.5 0 002.5 2.5zM20.51 13.5h9.99c.28 0 .5-.22.5-.5v-2c0-.28-.22-.5-.5-.5H18.51c-.28 0-.5.22-.5.5a2.5 2.5 0 002.5 2.5z"/></svg>