<svg enable-background="new 0 0 60 60" viewBox="0 0 60 60" xmlns="http://www.w3.org/2000/svg"><path d="m51.5 22.5h-1.97v-1c0-9.6-6.74-18.1-16.19-19.72-5.96-1.01-11.93.74-16.34 4.67-.77.68-1.48 1.43-2.13 2.23-.18.22-.14.54.11.73l.1.08c.98.76 2.38.71 3.25-.16.22-.22.44-.43.67-.64 3.48-3.1 8.11-4.61 12.81-4.09 8.46.92 14.72 8.35 14.72 16.86v1.04h-38.03c-1.1 0-2 .9-2 2v22.5c0 6.35 5.15 11.5 11.5 11.5h33.5c1.1 0 2-.9 2-2v-32c0-1.1-.9-2-2-2zm-1 33h-32.5c-4.69 0-8.5-3.81-8.5-8.5v-21.5h41z"/><path d="m23.71 50.71c-.13 1.18.8 2.22 1.99 2.22h8.6c1.19 0 2.12-1.04 1.99-2.22l-1.36-12.27c.81-.99 1.3-2.17 1.41-3.44.32-3.56-2.64-6.86-6.21-6.93-3.56-.07-6.49 2.81-6.49 6.36 0 1.49.5 2.89 1.43 4.02zm6.29-19.65c1.85 0 3.36 1.51 3.36 3.36 0 .92-.37 1.78-1.04 2.42l-.53.51 1.4 12.57h-6.37l1.4-12.57-.54-.51c-.67-.64-1.04-1.5-1.04-2.42 0-1.85 1.51-3.36 3.36-3.36z"/></svg>