<svg enable-background="new 0 0 60 60" viewBox="0 0 60 60" xmlns="http://www.w3.org/2000/svg"><path d="m57.49 48.72-17.18-16.16c4.53-7.95 3.43-18.26-3.34-25.03-8.12-8.12-21.33-8.12-29.44 0-8.12 8.12-8.12 21.33 0 29.44 4.06 4.06 9.39 6.09 14.72 6.09 3.57 0 7.12-.93 10.31-2.75l16.16 17.17c.77.82 2.07.84 2.87.04l5.94-5.94c.8-.79.78-2.08-.04-2.86zm-48.02-13.69c-7.05-7.05-7.05-18.51 0-25.56 3.53-3.52 8.15-5.28 12.78-5.28s9.25 1.76 12.78 5.28c7.05 7.05 7.05 18.51 0 25.56-7.05 7.04-18.51 7.04-25.56 0zm40.73 19.65-15.11-16.06c.65-.51 1.29-1.05 1.88-1.65.6-.6 1.14-1.23 1.65-1.88l16.06 15.11z"/><path d="m34.75 20.88h-11.12v-11.13c0-.28-.22-.5-.5-.5h-1.75c-.28 0-.5.22-.5.5v11.12h-11.13c-.28 0-.5.22-.5.5 0 1.24 1.01 2.25 2.25 2.25h9.38v11.12c0 .28.22.5.5.5 1.24 0 2.25-1.01 2.25-2.25v-9.38h11.12c.28 0 .5-.22.5-.5v-1.75c0-.26-.22-.48-.5-.48z"/></svg>