<svg enable-background="new 0 0 60 60" viewBox="0 0 60 60" xmlns="http://www.w3.org/2000/svg"><path d="m30 9.5c-6.34 0-11.5 5.16-11.5 11.5s5.16 11.5 11.5 11.5 11.5-5.16 11.5-11.5-5.16-11.5-11.5-11.5zm0 20c-4.69 0-8.5-3.81-8.5-8.5s3.81-8.5 8.5-8.5 8.5 3.81 8.5 8.5-3.81 8.5-8.5 8.5z"/><path d="m28.98 1.53c-11.48.59-19.77 11.28-18.27 22.67 1.2 9.15 7.47 19.21 18.08 33.68.6.82 1.82.82 2.42 0 11.86-16.17 18.29-26.84 18.29-36.88 0-11.09-9.31-20.05-20.52-19.47zm1.02 52.93c-9.42-12.96-15.03-22.13-16.25-30.2-1.49-9.86 5.48-19.26 15.44-19.74 9.47-.45 17.31 7.11 17.31 16.48 0 8.89-5.79 18.72-16.5 33.46z"/></svg>