<svg enable-background="new 0 0 60 60" viewBox="0 0 60 60" xmlns="http://www.w3.org/2000/svg"><path d="m46.83 24h-1.66c-.28 0-.5.22-.5.5v22.17h-20.67c-4.79 0-8.67-3.88-8.67-8.67v-13.5c0-.28-.22-.5-.5-.5-1.19 0-2.16.97-2.16 2.16v11.84c0 6.26 5.07 11.33 11.33 11.33h4.59v6.26h-13.09c-.28 0-.5.22-.5.5v.32c0 1.1.9 2 2 2h27.5c.28 0 .5-.22.5-.5v-1.82c0-.28-.22-.5-.5-.5h-13.09v-6.26h13.92c1.1 0 2-.9 2-2v-22.83c0-.28-.22-.5-.5-.5z"/><path d="m30 43.5c5.79 0 10.5-4.71 10.5-10.5v-21c0-5.79-4.71-10.5-10.5-10.5s-10.5 4.71-10.5 10.5v21c0 5.79 4.71 10.5 10.5 10.5zm-7.5-31.5c0-4.14 3.36-7.5 7.5-7.5s7.5 3.36 7.5 7.5v21c0 4.14-3.36 7.5-7.5 7.5s-7.5-3.36-7.5-7.5z"/></svg>