<svg enable-background="new 0 0 60 60" viewBox="0 0 60 60" xmlns="http://www.w3.org/2000/svg"><path d="m55.06 2.27-51.4 24.75c-1.71.82-1.42 3.35.44 3.76l20.62 4.51 4.51 20.62c.41 1.86 2.93 2.15 3.76.44l24.74-51.41c.82-1.71-.96-3.49-2.67-2.67zm-47.49 26.19 42.13-20.28-24.2 24.2zm23.97 23.97-3.92-17.93 24.2-24.2z"/><path d="m20.29 38.29c-.2-.2-.51-.2-.71 0l-14.29 14.3c-.2.2-.2.51 0 .71l1.41 1.41c.2.2.51.2.71 0l12.88-12.88c.98-.98.98-2.56 0-3.54z"/><path d="m9.01 42.77 2.47-2.47c.98-.98.98-2.56 0-3.54-.2-.2-.51-.2-.71 0l-3.89 3.89c-.2.2-.2.51 0 .71l1.41 1.41c.21.2.52.2.72 0z"/><path d="m22.27 45.95-7.34 7.34c-.2.2-.2.51 0 .71l1.41 1.41c.2.2.51.2.71 0l5.92-5.92c.98-.98.98-2.56 0-3.54-.19-.19-.51-.19-.7 0z"/></svg>