<svg enable-background="new 0 0 60 60" viewBox="0 0 60 60" xmlns="http://www.w3.org/2000/svg"><path d="m25 16c-1.38 0-2.5 1.12-2.5 2.5v24.94c0 .28.22.5.5.5h2c.28 0 .5-.22.5-.5v-26.94c0-.28-.22-.5-.5-.5z"/><path d="m37 16c-1.38 0-2.5 1.12-2.5 2.5v24.94c0 .28.22.5.5.5h2c.28 0 .5-.22.5-.5v-26.94c0-.28-.22-.5-.5-.5z"/><path d="m30 1.5c-15.71 0-28.5 12.79-28.5 28.5s12.79 28.5 28.5 28.5 28.5-12.79 28.5-28.5-12.79-28.5-28.5-28.5zm0 54c-14.06 0-25.5-11.44-25.5-25.5s11.44-25.5 25.5-25.5 25.5 11.44 25.5 25.5-11.44 25.5-25.5 25.5z"/></svg>