<svg enable-background="new 0 0 60 60" viewBox="0 0 60 60" xmlns="http://www.w3.org/2000/svg"><path d="m57.7 48.59-11.74-11.73c-.78-.78-2.05-.78-2.83 0l-6.19 6.19c-.01 0-.01 0-.02 0-5.34 0-10.34-2.07-14.13-5.85-3.79-3.79-5.86-8.8-5.85-14.15l6.19-6.19c.78-.78.78-2.05 0-2.83l-11.73-11.74c-.78-.78-2.05-.78-2.83 0l-6.37 6.38c-.34.33-.54.77-.58 1.23-.04.41-.08.88-.09 1.1-.89 12.87 3.78 25.39 12.93 34.54 8.41 8.41 19.68 13.04 31.44 13.04 1.03 0 3.07-.13 4.17-.21.48-.03.93-.24 1.27-.58l6.36-6.36c.78-.79.78-2.06 0-2.84zm-8.25 6.83c-12.24 1.03-24.19-3.32-32.88-12.01-8.68-8.68-13.04-20.64-12-32.87l5.42-5.42 10.32 10.32-5.77 5.77c-.36.36-.57.85-.58 1.37 0 .18-.01.34-.01.41-.02 6.17 2.36 11.94 6.73 16.32 4.38 4.38 10.13 6.76 16.32 6.73.08 0 .3-.01.53-.03.48-.03.93-.24 1.27-.58l5.75-5.75 10.32 10.32z"/></svg>