<svg enable-background="new 0 0 60 60" viewBox="0 0 60 60" xmlns="http://www.w3.org/2000/svg"><path d="m39.11 40.03c-.78-.78-2.05-.78-2.83 0l-5.03 5.03c-4.35-.02-8.42-1.72-11.51-4.81s-4.78-7.16-4.81-11.51l5.03-5.03c.78-.78.78-2.05 0-2.83l-9.66-9.66c-.78-.78-2.05-.78-2.83 0l-5.23 5.23c-.33.33-.54.77-.58 1.24-.03.36-.07.75-.08.93-.73 10.79 3.2 21.28 10.86 28.94 7.06 7.06 16.51 10.94 26.38 10.94.46 0 .92-.01 1.37-.03.47-.02 1.43-.09 2.1-.15.47-.04.91-.24 1.25-.58l5.23-5.23c.78-.78.78-2.05 0-2.83zm2.56 15.35c-10.1.83-19.95-2.78-27.11-9.94-7.17-7.16-10.77-17.02-9.94-27.11l4.27-4.27 8.25 8.25-4.6 4.6c-.37.37-.58.86-.59 1.38-.01.33-.01.67-.01.83.11 5.01 2.11 9.69 5.68 13.26 3.54 3.54 8.17 5.54 13.12 5.68.19.01.64-.01 1.05-.03.5-.02.97-.23 1.32-.58l4.58-4.58 8.25 8.25z"/><path d="m56.44 1.5h-39.43c-1.1 0-2 .9-2 2v6c0 1.38 1.12 2.5 2.5 2.5.28 0 .5-.22.5-.5v-5.15l11.37 10.15-2.92 2.61c-1.03.92-1.12 2.5-.2 3.53.18.21.5.22.71.04l4.67-4.17 3.72 3.32c.76.68 1.9.68 2.66 0l3.74-3.33 9.71 8.63c-1.31.83-2.86 1.32-4.53 1.32h-23.44c-1.38 0-2.5 1.12-2.5 2.5 0 .28.22.5.5.5h25.44c6.35 0 11.5-5.15 11.5-11.5v-16.45c0-1.1-.9-2-2-2zm-19.75 17.5-16.25-14.5h32.56zm18.75.96c0 1.94-.66 3.72-1.75 5.15l-9.68-8.61 11.43-10.16z"/></svg>