<svg enable-background="new 0 0 60 60" viewBox="0 0 60 60" xmlns="http://www.w3.org/2000/svg"><path d="m14.5 25.5h9.5v-3h-11.5c-.28 0-.5.22-.5.5 0 1.38 1.12 2.5 2.5 2.5z"/><path d="m26.5 40.5h9c.28 0 .5-.22.5-.5v-2c0-.28-.22-.5-.5-.5h-11c-.28 0-.5.22-.5.5 0 1.38 1.12 2.5 2.5 2.5z"/><path d="m26.5 46.5h9c.28 0 .5-.22.5-.5v-2c0-.28-.22-.5-.5-.5h-11c-.28 0-.5.22-.5.5 0 1.38 1.12 2.5 2.5 2.5z"/><path d="m26.5 52.5h9c.28 0 .5-.22.5-.5v-2c0-.28-.22-.5-.5-.5h-11c-.28 0-.5.22-.5.5 0 1.38 1.12 2.5 2.5 2.5z"/><path d="m48 34v-2c0-.28-.22-.5-.5-.5h-4-27-4c-.28 0-.5.22-.5.5 0 1.38 1.12 2.5 2.5 2.5h2v12.5c0 6.35 5.15 11.5 11.5 11.5h13.5c1.1 0 2-.9 2-2v-22h4c.28 0 .5-.22.5-.5zm-7.5 21.5h-12.5c-4.69 0-8.5-3.81-8.5-8.5v-12.5h21z"/><path d="m56.5 12.5h-13v-9c0-1.1-.9-2-2-2h-23c-1.1 0-2 .9-2 2v9h-13c-1.1 0-2 .9-2 2v24c0 1.1.9 2 2 2h9.5c.28 0 .5-.22.5-.5 0-1.38-1.12-2.5-2.5-2.5h-6.5v-22h12 27 12v22h-6.5c-1.38 0-2.5 1.12-2.5 2.5 0 .28.22.5.5.5h9.5c1.1 0 2-.9 2-2v-24c0-1.1-.9-2-2-2zm-16 0h-21v-8h21z"/></svg>