<svg enable-background="new 0 0 60 60" viewBox="0 0 60 60" xmlns="http://www.w3.org/2000/svg"><path d="m47.5 24h-12.5c-.28 0-.5.22-.5.5 0 1.38 1.12 2.5 2.5 2.5h9.5v28.5h-24.5c-4.69 0-8.5-3.81-8.5-8.5v-20h9.5c1.38 0 2.5-1.12 2.5-2.5 0-.28-.22-.5-.5-.5h-12.5c-1.1 0-2 .9-2 2v21c0 6.35 5.15 11.5 11.5 11.5h25.5c1.1 0 2-.9 2-2v-30.5c0-1.1-.9-2-2-2z"/><path d="m21.83 14.29 6.67-6.67v28.88c0 1.38 1.12 2.5 2.5 2.5h.01c.27 0 .49-.22.49-.49v-30.89l6.67 6.67c.98.98 2.56.98 3.54 0 .2-.2.2-.51 0-.71l-10.3-10.29c-.78-.78-2.05-.78-2.83 0l-10.29 10.3c-.2.2-.2.51 0 .71.98.97 2.56.97 3.54-.01z"/></svg>