<svg enable-background="new 0 0 60 60" viewBox="0 0 60 60" xmlns="http://www.w3.org/2000/svg"><path d="m22 40.5c-4.14 0-7.5 3.36-7.5 7.5s3.36 7.5 7.5 7.5 7.5-3.36 7.5-7.5-3.36-7.5-7.5-7.5zm0 12c-2.48 0-4.5-2.02-4.5-4.5s2.02-4.5 4.5-4.5 4.5 2.02 4.5 4.5-2.02 4.5-4.5 4.5z"/><path d="m44 40.5c-4.14 0-7.5 3.36-7.5 7.5s3.36 7.5 7.5 7.5 7.5-3.36 7.5-7.5-3.36-7.5-7.5-7.5zm0 12c-2.48 0-4.5-2.02-4.5-4.5s2.02-4.5 4.5-4.5 4.5 2.02 4.5 4.5-2.02 4.5-4.5 4.5z"/><path d="m56.26 12.5h-4.53l.64-3c.23-1.08-.46-2.14-1.54-2.37l-25.96-5.49c-1.08-.23-2.14.46-2.37 1.54l-1.97 9.32h-7.36l-1.62-6.48c-.22-.9-1.02-1.52-1.94-1.52h-7.11c-.28 0-.5.22-.5.5 0 1.38 1.12 2.5 2.5 2.5h4.33l1.71 6.83 3.23 14.22c1.19 5.24 5.84 8.95 11.21 8.95h22.68c.81 0 1.54-.49 1.85-1.24l8.59-21c.54-1.32-.42-2.76-1.84-2.76zm-31.03-7.72 23.99 5.08-.56 2.65h-25.06zm21.76 29.72h-22.01c-4 0-7.4-2.72-8.29-6.62l-2.81-12.38h40.89z"/><path d="m10.82 29.5h-7.32c-.28 0-.5.22-.5.5 0 1.38 1.12 2.5 2.5 2.5h5.32c.28 0 .5-.22.5-.5v-2c0-.28-.23-.5-.5-.5z"/><path d="m5.5 26.5h3.95c.28 0 .5-.22.5-.5v-2c0-.28-.22-.5-.5-.5h-5.95c-.28 0-.5.22-.5.5 0 1.38 1.12 2.5 2.5 2.5z"/><path d="m5.5 20.5h2.59c.28 0 .5-.22.5-.5v-2c0-.28-.22-.5-.5-.5h-4.59c-.28 0-.5.22-.5.5 0 1.38 1.12 2.5 2.5 2.5z"/></svg>