<svg enable-background="new 0 0 60 60" viewBox="0 0 60 60" xmlns="http://www.w3.org/2000/svg"><path d="m22 40.5c-4.14 0-7.5 3.36-7.5 7.5s3.36 7.5 7.5 7.5 7.5-3.36 7.5-7.5-3.36-7.5-7.5-7.5zm0 12c-2.48 0-4.5-2.02-4.5-4.5s2.02-4.5 4.5-4.5 4.5 2.02 4.5 4.5-2.02 4.5-4.5 4.5z"/><path d="m44 40.5c-4.14 0-7.5 3.36-7.5 7.5s3.36 7.5 7.5 7.5 7.5-3.36 7.5-7.5-3.36-7.5-7.5-7.5zm0 12c-2.48 0-4.5-2.02-4.5-4.5s2.02-4.5 4.5-4.5 4.5 2.02 4.5 4.5-2.02 4.5-4.5 4.5z"/><path d="m56.26 12.5h-43.09l-1.62-6.48c-.22-.9-1.02-1.52-1.94-1.52h-7.11c-.28 0-.5.22-.5.5 0 1.38 1.12 2.5 2.5 2.5h4.33l1.71 6.83 3.23 14.22c1.19 5.24 5.84 8.95 11.21 8.95h22.68c.81 0 1.54-.49 1.85-1.24l8.59-21c.54-1.32-.42-2.76-1.84-2.76zm-9.27 22h-22.01c-4 0-7.4-2.72-8.29-6.62l-2.81-12.38h40.89z"/></svg>