<svg enable-background="new 0 0 60 60" viewBox="0 0 60 60" xmlns="http://www.w3.org/2000/svg"><path d="m50 41.5c-2.78 0-5.25 1.35-6.8 3.42l-25.05-12.52c.22-.76.35-1.56.35-2.4 0-.83-.13-1.64-.35-2.4l25.05-12.52c1.55 2.07 4.02 3.42 6.8 3.42 4.69 0 8.5-3.81 8.5-8.5s-3.81-8.5-8.5-8.5-8.5 3.81-8.5 8.5c0 .83.13 1.64.35 2.4l-25.05 12.52c-1.55-2.07-4.02-3.42-6.8-3.42-4.69 0-8.5 3.81-8.5 8.5s3.81 8.5 8.5 8.5c2.78 0 5.25-1.35 6.8-3.42l25.05 12.52c-.22.76-.35 1.56-.35 2.4 0 4.69 3.81 8.5 8.5 8.5s8.5-3.81 8.5-8.5-3.81-8.5-8.5-8.5zm0-37c3.03 0 5.5 2.47 5.5 5.5s-2.47 5.5-5.5 5.5-5.5-2.47-5.5-5.5 2.47-5.5 5.5-5.5zm-40 31c-3.03 0-5.5-2.47-5.5-5.5s2.47-5.5 5.5-5.5 5.5 2.47 5.5 5.5-2.47 5.5-5.5 5.5zm40 20c-3.03 0-5.5-2.47-5.5-5.5s2.47-5.5 5.5-5.5 5.5 2.47 5.5 5.5-2.47 5.5-5.5 5.5z"/></svg>