<svg enable-background="new 0 0 60 60" viewBox="0 0 60 60" xmlns="http://www.w3.org/2000/svg"><path d="m56.72 14.46-53-5.89c-1.18-.13-2.22.8-2.22 1.99v9.94c0 1.1.9 2 2 2h4v27c0 1.1.9 2 2 2h6.5c1.1 0 2-.9 2-2v-9h6v9c0 1.1.9 2 2 2h24.5c1.1 0 2-.9 2-2v-27h4c1.1 0 2-.9 2-2v-4.05c0-1.02-.77-1.88-1.78-1.99zm-7.22 34.04h-22.5v-9c0-1.1-.9-2-2-2h-8c-1.1 0-2 .9-2 2v9h-4.5v-26h4.5v4.3c0 .66.54 1.2 1.2 1.2h9.6c.66 0 1.2-.54 1.2-1.2v-4.3h22.5zm-32.7-26.5c0-2.32 1.88-4.2 4.2-4.2s4.2 1.88 4.2 4.2-1.88 4.2-4.2 4.2-4.2-1.88-4.2-4.2zm38.7-2.5h-3-2.5-23v-2.3c0-.66-.54-1.2-1.2-1.2h-9.6c-.66 0-1.2.54-1.2 1.2v2.3h-10.5v-7.82l51 5.67z"/></svg>