<svg enable-background="new 0 0 60 60" viewBox="0 0 60 60" xmlns="http://www.w3.org/2000/svg"><path d="m49.23 38.41-.08-.04c-1.16-.51-2.55-.11-3.19.98-3.29 5.63-9.35 9.15-15.96 9.15-9.98 0-18.12-7.95-18.47-17.85l2.64 2.64c.98.98 2.56.98 3.54 0 .2-.2.2-.51 0-.71l-6.29-6.29c-.78-.78-2.05-.78-2.83 0l-6.29 6.29c-.2.2-.2.51 0 .71.98.98 2.56.98 3.54 0l2.7-2.7c.31 11.58 9.8 20.91 21.46 20.91 8.37 0 15.96-4.85 19.49-12.41.12-.26 0-.56-.26-.68z"/><path d="m57.71 26.71c-.98-.98-2.56-.98-3.54 0l-2.7 2.7c-.32-11.58-9.81-20.91-21.47-20.91-8.38 0-15.97 4.86-19.5 12.43-.12.25 0 .56.26.67l.08.03c1.16.51 2.55.11 3.19-.99 3.29-5.62 9.35-9.15 15.97-9.15 9.98 0 18.12 7.95 18.47 17.85l-2.64-2.64c-.98-.98-2.56-.98-3.54 0-.2.2-.2.51 0 .71l6.29 6.29c.78.78 2.05.78 2.83 0l6.29-6.29c.2-.19.2-.51.01-.7z"/></svg>