<svg enable-background="new 0 0 60 60" viewBox="0 0 60 60" xmlns="http://www.w3.org/2000/svg"><path d="m53.5 7.5h-13.57l-2.45-4.89c-.34-.68-1.03-1.11-1.79-1.11h-11.38c-.76 0-1.45.43-1.79 1.11l-2.45 4.89h-13.57c-1.1 0-2 .9-2 2v10c0 1.1.9 2 2 2h3.15l2.89 26.74c.63 5.84 5.56 10.26 11.43 10.26h20.57c1.02 0 1.88-.77 1.99-1.79l3.81-35.21h3.15c1.1 0 2-.9 2-2v-10c.01-1.1-.89-2-1.99-2zm-28.57-3h10.15l1.5 3h-13.15zm18.72 51h-19.67c-4.35 0-7.98-3.26-8.45-7.59l-2.86-26.41h34.66zm8.85-37h-1.83-41.34-1.83v-8h11.07 22.85 11.08z"/><path d="m28.97 52h2.05c.28 0 .5-.22.5-.5v-26c0-.28-.22-.5-.5-.5h-.05c-1.38 0-2.5 1.12-2.5 2.5v24c0 .28.23.5.5.5z"/><path d="m36.97 52h2.05c.28 0 .5-.22.5-.5v-26c0-.28-.22-.5-.5-.5h-.05c-1.38 0-2.5 1.12-2.5 2.5v24c0 .28.23.5.5.5z"/><path d="m20.97 52h2.05c.28 0 .5-.22.5-.5v-26c0-.28-.22-.5-.5-.5h-.05c-1.38 0-2.5 1.12-2.5 2.5v24c0 .28.23.5.5.5z"/></svg>