<svg enable-background="new 0 0 60 60" viewBox="0 0 60 60" xmlns="http://www.w3.org/2000/svg"><path d="m38 42c-.28 0-.5.22-.5.5v13h-4v-16c0-1.38-1.12-2.5-2.5-2.5-.28 0-.5.22-.5.5v18h-17.5c-.17 0-.33-.02-.5-.03v-18.97c0-.28-.22-.5-.5-.5-1.38 0-2.5 1.12-2.5 2.5v16.24c-2.95-1.33-5-4.29-5-7.74v-12c0-4.69 3.81-8.5 8.5-8.5h15.5c.28 0 .5-.22.5-.5 0-1.38-1.12-2.5-2.5-2.5h-13.5c-6.35 0-11.5 5.15-11.5 11.5v12c0 6.35 5.15 11.5 11.5 11.5h25.5c1.1 0 2-.9 2-2v-12c0-1.38-1.12-2.5-2.5-2.5z"/><path d="m21 20.5c5.24 0 9.5-4.26 9.5-9.5s-4.26-9.5-9.5-9.5-9.5 4.26-9.5 9.5 4.26 9.5 9.5 9.5zm0-16c3.58 0 6.5 2.92 6.5 6.5s-2.92 6.5-6.5 6.5-6.5-2.92-6.5-6.5 2.92-6.5 6.5-6.5z"/><path d="m45 13.5c-7.44 0-13.5 6.06-13.5 13.5s6.06 13.5 13.5 13.5 13.5-6.06 13.5-13.5-6.06-13.5-13.5-13.5zm0 24c-5.79 0-10.5-4.71-10.5-10.5s4.71-10.5 10.5-10.5 10.5 4.71 10.5 10.5-4.71 10.5-10.5 10.5z"/><path d="m41.3 23.16h-1c-.08 0-.16.02-.24.05l-1.82.74c-.12.04-.17.13-.12.26l.33 1c.04.12.13.17.26.12l.99-.37v5.16c0 .14.07.21.21.21h1.4c.14 0 .21-.07.21-.21v-6.75c-.01-.14-.08-.21-.22-.21z"/><path d="m47.35 27.27c-.11-.14-.23-.26-.38-.36s-.3-.2-.46-.28v-.04c.11-.07.23-.15.35-.25s.23-.21.33-.35.18-.3.24-.49c.07-.19.1-.4.1-.64 0-.29-.06-.55-.17-.78s-.27-.42-.47-.57-.44-.27-.71-.35-.57-.12-.9-.12c-.36 0-.69.05-.98.14s-.54.23-.75.41-.37.39-.48.63c-.11.25-.17.52-.17.84 0 .23.03.43.08.6.06.17.13.32.22.45s.2.25.32.34.25.19.39.27v.04c-.13.07-.27.15-.41.25s-.26.22-.38.36-.21.3-.28.49-.11.41-.11.66c0 .61.22 1.08.65 1.42s1.03.51 1.78.51c.37 0 .7-.05 1.01-.16s.58-.25.8-.43c.23-.18.4-.4.53-.65.12-.25.19-.53.19-.84 0-.24-.03-.44-.09-.62s-.15-.34-.25-.48zm-2.63-2.67c.13-.12.31-.18.52-.18.19 0 .35.05.49.16.14.1.21.28.21.54 0 .21-.06.39-.19.54-.12.15-.27.27-.44.34-.08-.03-.16-.08-.25-.12-.09-.05-.18-.11-.26-.18s-.15-.15-.2-.24c-.06-.09-.08-.21-.08-.34-.01-.23.06-.4.2-.52zm1.06 4.22c-.15.14-.33.2-.56.2-.24 0-.43-.07-.59-.2-.16-.14-.23-.33-.23-.6 0-.21.07-.39.21-.55s.3-.28.49-.35c.09.03.19.07.29.12.1.04.2.1.29.17s.17.15.23.25.09.21.09.36c0 .26-.07.46-.22.6z"/><path d="m52.97 26.38h-1.41v-1.54c0-.14-.07-.21-.21-.21h-1c-.14 0-.21.07-.21.21v1.54h-1.39c-.14 0-.21.07-.21.21v.99c0 .14.07.21.21.21h1.39v1.56c0 .14.07.21.21.21h1c.14 0 .21-.07.21-.21v-1.56h1.41c.14 0 .21-.07.21-.21v-.99c0-.14-.07-.21-.21-.21z"/></svg>