<svg enable-background="new 0 0 60 60" viewBox="0 0 60 60" xmlns="http://www.w3.org/2000/svg"><path d="m38 23.5h-16c-6.35 0-11.5 5.15-11.5 11.5v12c0 6.35 5.15 11.5 11.5 11.5h25.5c1.1 0 2-.9 2-2v-21.5c0-6.35-5.15-11.5-11.5-11.5zm8.5 32h-5v-17c0-1.38-1.12-2.5-2.5-2.5-.28 0-.5.22-.5.5v19h-16.5c-.17 0-.33-.02-.5-.03v-18.97c0-.28-.22-.5-.5-.5-1.38 0-2.5 1.12-2.5 2.5v16.24c-2.95-1.33-5-4.29-5-7.74v-12c0-4.69 3.81-8.5 8.5-8.5h16c4.69 0 8.5 3.81 8.5 8.5z"/><path d="m30 20.5c5.24 0 9.5-4.26 9.5-9.5s-4.26-9.5-9.5-9.5-9.5 4.26-9.5 9.5 4.26 9.5 9.5 9.5zm0-16c3.58 0 6.5 2.92 6.5 6.5s-2.92 6.5-6.5 6.5-6.5-2.92-6.5-6.5 2.92-6.5 6.5-6.5z"/></svg>