<svg enable-background="new 0 0 60 60" viewBox="0 0 60 60" xmlns="http://www.w3.org/2000/svg"><path d="m37.18 17.22c-.87-1.12-2.51-1.24-3.51-.23l-.02.02c-.19.19-.19.5 0 .69 3.17 3.33 4.91 7.68 4.91 12.3s-1.74 8.97-4.91 12.3c-.19.2-.19.5 0 .69l.03.03c1 1 2.64.88 3.51-.24 2.84-3.64 4.37-8.1 4.37-12.79-.01-4.68-1.54-9.13-4.38-12.77z"/><path d="m42.98 11.68c-.87-1.03-2.46-1.07-3.41-.12l-.05.05c-.19.19-.19.5 0 .69 4.61 4.77 7.14 11.03 7.14 17.69s-2.53 12.92-7.15 17.69c-.19.2-.19.5 0 .69l.05.05c.95.96 2.54.92 3.41-.12 4.33-5.1 6.68-11.51 6.68-18.3 0-6.78-2.35-13.2-6.67-18.32z"/><path d="m49.38 5.75c-.89-1.01-2.45-1.05-3.4-.1l-.07.07c-.19.19-.19.5 0 .7 6.19 6.34 9.59 14.7 9.59 23.58 0 8.89-3.4 17.24-9.6 23.59-.19.19-.19.5 0 .7l.07.07c.95.95 2.51.91 3.4-.1 5.9-6.71 9.12-15.24 9.12-24.26.01-9.02-3.21-17.54-9.11-24.25z"/><path d="m25.56 16.15-12.19 6.89h-9.87c-1.1 0-2 .9-2 2v9.93c0 1.1.9 2 2 2h9.86l12.19 6.89c1.33.75 2.98-.21 2.98-1.74v-24.23c.01-1.53-1.64-2.5-2.97-1.74zm-.02 24.25-10.93-6.18c-.3-.17-.64-.26-.98-.26h-9.13v-7.93h9.13c.34 0 .68-.09.98-.26l10.93-6.18z"/></svg>