<svg enable-background="new 0 0 60 60" viewBox="0 0 60 60" xmlns="http://www.w3.org/2000/svg"><path d="m50.88 50.92-6.24-14.25c3.63-3.7 5.87-8.76 5.87-14.34 0-11.3-9.2-20.5-20.5-20.5s-20.5 9.2-20.5 20.5c0 5.57 2.24 10.62 5.86 14.32l-6.25 14.27c-.72 1.65.94 3.34 2.6 2.65l5.58-2.33 2.83 5.43c.81 1.55 3.07 1.39 3.66-.26l4.86-13.66c.45.03.9.07 1.36.07.45 0 .89-.04 1.34-.07l4.86 13.66c.58 1.65 2.85 1.8 3.66.26l2.83-5.43 5.58 2.33c1.66.7 3.32-.99 2.6-2.65zm-29.14 2.34-2.2-4.21c-.48-.92-1.58-1.32-2.54-.92l-4.13 1.72 4.87-11.13c2.3 1.73 4.97 2.99 7.88 3.63zm8.27-13.43c-9.65 0-17.5-7.85-17.5-17.5s7.85-17.5 17.5-17.5 17.5 7.85 17.5 17.5-7.85 17.5-17.5 17.5zm12.99 8.29c-.96-.4-2.06 0-2.54.92l-2.2 4.21-3.88-10.9c2.91-.63 5.58-1.9 7.88-3.62l4.86 11.12z"/><path d="m40.09 17.93-5.72-.83-2.56-5.19c-.73-1.49-2.85-1.49-3.59 0l-2.56 5.19-5.72.83c-1.64.24-2.3 2.25-1.11 3.41l4.14 4.04-.98 5.7c-.28 1.63 1.43 2.88 2.9 2.11l5.12-2.69 5.12 2.69c1.47.77 3.18-.47 2.9-2.11l-.98-5.7 4.14-4.04c1.2-1.16.54-3.17-1.1-3.41zm-5.5 5.67c-.47.46-.69 1.12-.58 1.77l.72 4.22-3.79-1.99c-.58-.31-1.28-.31-1.86 0l-3.79 1.99.72-4.22c.11-.65-.1-1.31-.58-1.77l-3.07-2.99 4.24-.62c.65-.09 1.21-.5 1.51-1.09l1.9-3.84 1.9 3.84c.29.59.85 1 1.51 1.09l4.24.62z"/></svg>