<svg enable-background="new 0 0 60 60" viewBox="0 0 60 60" xmlns="http://www.w3.org/2000/svg"><path d="m27 18c0-.28-.22-.5-.5-.5h-17c-.28 0-.5.22-.5.5 0 1.38 1.12 2.5 2.5 2.5h15c.28 0 .5-.22.5-.5z"/><path d="m27 25c0-.28-.22-.5-.5-.5h-17c-.28 0-.5.22-.5.5 0 1.38 1.12 2.5 2.5 2.5h15c.28 0 .5-.22.5-.5z"/><path d="m26.5 31.5h-17c-.28 0-.5.22-.5.5 0 1.38 1.12 2.5 2.5 2.5h15c.28 0 .5-.22.5-.5v-2c0-.28-.22-.5-.5-.5z"/><path d="m41 15.5c-5.79 0-10.5 4.71-10.5 10.5s4.71 10.5 10.5 10.5 10.5-4.71 10.5-10.5-4.71-10.5-10.5-10.5zm0 18c-4.14 0-7.5-3.36-7.5-7.5s3.36-7.5 7.5-7.5 7.5 3.36 7.5 7.5-3.36 7.5-7.5 7.5z"/><path d="m49 37c-1.39 0-2.51 1.12-2.51 2.5v12.22l-4.71-2.02c-.5-.22-1.07-.22-1.58 0l-4.71 2.02v-12.22c0-1.38-1.12-2.5-2.5-2.5h.01c-.28 0-.5.22-.5.5v15.75c0 1.44 1.47 2.4 2.79 1.84l5.71-2.45 5.72 2.45c1.32.57 2.79-.4 2.79-1.84v-15.75c-.01-.28-.23-.5-.51-.5z"/><path d="m43.5 24h-5c-.28 0-.5.22-.5.5v1c0 1.38 1.12 2.5 2.5 2.5h1c1.38 0 2.5-1.12 2.5-2.5v-1c0-.28-.22-.5-.5-.5z"/><path d="m56.5 4.5h-53c-1.1 0-2 .9-2 2v29.5c0 6.35 5.15 11.5 11.5 11.5h16.5c.28 0 .5-.22.5-.5 0-1.38-1.12-2.5-2.5-2.5h-14.5c-4.69 0-8.5-3.81-8.5-8.5v-28.5h51v37h-1c-1.38 0-2.5 1.12-2.5 2.5 0 .28.22.5.5.5h4c1.1 0 2-.9 2-2v-39c0-1.1-.9-2-2-2z"/></svg>