<svg enable-background="new 0 0 60 60" viewBox="0 0 60 60" xmlns="http://www.w3.org/2000/svg"><path d="m56.5 2.5h-53c-1.1 0-2 .9-2 2v29.5c0 6.35 5.15 11.5 11.5 11.5h11.5v9.05c0 1.9 2.4 2.73 3.57 1.24l8.09-10.29h20.34c1.1 0 2-.9 2-2v-39c0-1.1-.9-2-2-2zm-1 40h-19.83c-.61 0-1.19.28-1.57.76l-6.6 8.4v-7.16c0-1.1-.9-2-2-2h-12.5c-4.69 0-8.5-3.81-8.5-8.5v-28.5h51z"/><path d="m14.5 16.5h33c.28 0 .5-.22.5-.5v-2c0-.28-.22-.5-.5-.5h-35c-.28 0-.5.22-.5.5 0 1.38 1.12 2.5 2.5 2.5z"/><path d="m14.5 25.5h33c.28 0 .5-.22.5-.5v-2c0-.28-.22-.5-.5-.5h-35c-.28 0-.5.22-.5.5 0 1.38 1.12 2.5 2.5 2.5z"/><path d="m14.5 34.5h21c.28 0 .5-.22.5-.5v-2c0-.28-.22-.5-.5-.5h-23c-.28 0-.5.22-.5.5 0 1.38 1.12 2.5 2.5 2.5z"/></svg>