<svg enable-background="new 0 0 60 60" viewBox="0 0 60 60" xmlns="http://www.w3.org/2000/svg"><path d="m56.5 10.5h-23c-1.1 0-2 .9-2 2v15.5c0 .28.22.5.5.5 1.38 0 2.5-1.12 2.5-2.5v-12.5h21v21h-5c-1.38 0-2.5 1.12-2.5 2.5 0 .28.22.5.5.5h8c1.1 0 2-.9 2-2v-23c0-1.1-.9-2-2-2z"/><path d="m43 31.5h-23c-1.1 0-2 .9-2 2v13.5c0 6.35 5.15 11.5 11.5 11.5h13.5c1.1 0 2-.9 2-2v-23c0-1.1-.9-2-2-2zm-1 24h-12.5c-4.69 0-8.5-3.81-8.5-8.5v-12.5h21z"/><path d="m32.6 47.45c1.42-.54 2.13-2.13 1.59-3.55s-2.13-2.13-3.55-1.59-2.13 2.13-1.59 3.55 2.13 2.13 3.55 1.59z"/><path d="m41.81 22.4c1.42-.54 2.13-2.13 1.59-3.55s-2.13-2.13-3.55-1.59-2.13 2.13-1.59 3.55c.55 1.42 2.13 2.13 3.55 1.59z"/><path d="m50.15 30.74c1.42-.54 2.13-2.13 1.59-3.55s-2.13-2.13-3.55-1.59-2.13 2.13-1.59 3.55 2.13 2.13 3.55 1.59z"/><path d="m25.71 3.71-1.41-1.41c-.2-.2-.51-.2-.71 0l-19.88 19.87c-.98.98-.98 2.56 0 3.54.2.2.51.2.71 0l21.29-21.3c.19-.19.19-.51 0-.7z"/><path d="m7 12.5c3.03 0 5.5-2.47 5.5-5.5s-2.47-5.5-5.5-5.5-5.5 2.47-5.5 5.5 2.47 5.5 5.5 5.5zm0-8c1.38 0 2.5 1.12 2.5 2.5s-1.12 2.5-2.5 2.5-2.5-1.12-2.5-2.5 1.12-2.5 2.5-2.5z"/><path d="m26.5 21c0-3.03-2.47-5.5-5.5-5.5s-5.5 2.47-5.5 5.5 2.47 5.5 5.5 5.5 5.5-2.47 5.5-5.5zm-8 0c0-1.38 1.12-2.5 2.5-2.5s2.5 1.12 2.5 2.5-1.12 2.5-2.5 2.5-2.5-1.12-2.5-2.5z"/></svg>