<svg enable-background="new 0 0 60 60" viewBox="0 0 60 60" xmlns="http://www.w3.org/2000/svg"><path d="m57.91 52.53-26.16-47.46c-.76-1.38-2.74-1.38-3.5 0l-26.16 47.46c-.73 1.33.23 2.97 1.75 2.97h52.31c1.53 0 2.49-1.63 1.76-2.97zm-52.37-.03 24.46-44.39 24.46 44.39z"/><path d="m27.52 24.3c-.1.1-.14.25-.14.47 0 .07.04 1.43.13 4.09.08 2.65.21 6.58.38 11.79 0 .19.06.34.18.45s.28.16.47.16h2.95c.19 0 .35-.05.47-.16s.18-.26.18-.45c.17-5.21.29-9.14.38-11.79.08-2.65.13-4.01.13-4.09 0-.22-.05-.37-.14-.47-.1-.1-.24-.14-.43-.14h-4.1c-.22 0-.37.05-.46.14z"/><path d="m29.96 43.71c-.82 0-1.48.26-2 .79s-.77 1.21-.77 2.05c0 .82.26 1.48.77 2s1.18.77 2 .77c.84 0 1.52-.25 2.05-.76.53-.5.79-1.18.79-2.02s-.26-1.52-.79-2.05c-.52-.52-1.21-.78-2.05-.78z"/></svg>