<svg enable-background="new 0 0 60 60" viewBox="0 0 60 60" xmlns="http://www.w3.org/2000/svg"><path d="m6.5 17.5h3c1.38 0 2.5-1.12 2.5-2.5 0-.28-.22-.5-.5-.5h-5c-.28 0-.5.22-.5.5v2c0 .28.22.5.5.5z"/><path d="m11.23 10.34c.98.98 2.56.98 3.54 0 .2-.2.2-.51 0-.71l-3.54-3.53c-.2-.2-.51-.2-.71 0l-1.41 1.41c-.2.2-.2.51 0 .71z"/><path d="m20 9c.28 0 .5-.22.5-.5v-5c0-.28-.22-.5-.5-.5h-2c-.28 0-.5.22-.5.5v3c0 1.38 1.12 2.5 2.5 2.5z"/><path d="m57.66 33.03-3.89-3.82c.63-.27 1.28-.71 1.94-1.38 1.44-1.46 1.57-2.94 1.43-3.93-.32-2.27-2.42-4.2-4.28-5.26-.73-.41-1.5-.68-2.28-.82.01 0 .01-.01.02-.01 1.66-1.4 4.23-.98 5.25-.74.25.06.51-.08.59-.33.46-1.38-.52-2.81-1.97-2.89-.88-.05-1.89-.01-2.9.23.21-1.02.21-2.03.13-2.91-.14-1.45-1.6-2.37-2.96-1.87-.24.09-.38.35-.31.6.27 1.01.77 3.58-.56 5.28 0 .01-.01.01-.01.02-.16-.78-.46-1.53-.9-2.25-1.12-1.82-3.13-3.86-5.4-4.1-.99-.11-2.46.08-3.88 1.57-.59.62-.98 1.23-1.23 1.8l-4.49-4.4c-.79-.78-2.07-.76-2.84.04l-4.86 5.03c-.77.79-.75 2.06.05 2.83l4.84 4.69h-25.68c-1.1 0-2 .9-2 2v24.59c0 6.35 5.15 11.5 11.5 11.5h22.17c1.1 0 2-.9 2-2v-28.35l12.98 12.58c.79.77 2.05.75 2.82-.04l4.75-4.84c.77-.78.76-2.05-.03-2.82zm-3.49-8.71c.04.3.02.77-.6 1.41-1.3 1.33-2.16.77-2.46.47l-4.57-4.48c1.17-.8 2.96-1.53 4.84-.47 1.24.71 2.64 1.97 2.79 3.07zm-14.31-11.83c.53-.55.95-.66 1.24-.66.05 0 .1 0 .14.01 1.11.12 2.42 1.47 3.16 2.68 1.13 1.84.46 3.66-.3 4.85l-4.64-4.41s-.32-.31-.38-.77c-.07-.51.19-1.08.78-1.7zm-9.27-1.82 11.39 11.17-1.57 1.65-1.83 1.87-11.45-11.1zm-26.12 36.33v-23.59h13.17v32.09h-4.67c-4.69 0-8.5-3.81-8.5-8.5zm29.67 8.5h-13.5v-32.09h11.61l1.89 1.83zm17.36-17.62-10.75-10.41 1.79-1.88 1.6-1.63 10.71 10.51z"/></svg>