<svg enable-background="new 0 0 60 60" viewBox="0 0 60 60" xmlns="http://www.w3.org/2000/svg"><path d="m57.54 20.1-5.01-11.56c-.44-1.02-1.64-1.49-2.66-1.03l-16.24 7.33h-9.46c-.56 0-1.1.24-1.48.66l-6.15 6.77c-1.21 1.32-1.62 3.23-.95 5.03.57 1.54 1.97 2.68 3.58 2.99 1.18.23 2.36.04 3.44-.6l6.44-4.18h3.39c1.38 0 2.5-1.12 2.5-2.5 0-.28-.22-.5-.5-.5h-5.68c-.39 0-.76.11-1.09.32l-6.63 4.3c-.28.16-.6.25-.92.25-1.02 0-1.85-.83-1.85-1.85 0-.46.17-.9.49-1.25l5.85-6.44h9.23c.28 0 .56-.06.82-.18l15.51-7 4.61 10.64c1.52 3.5.48 7.48-2.27 9.84-.21.17-.44.34-.69.5-1.01.66-1.38 1.96-.9 3.07l.09.2c.11.26.41.37.67.26.51-.23 1.3-.62 1.73-.96 4.51-3.03 6.36-8.95 4.13-14.11z"/><path d="m47.03 35.58-.06-.06c-.02-.02-.04-.04-.06-.06l-6.71-6.3c-.2-.19-.52-.18-.71.02-.94 1.01-.89 2.59.11 3.53l5.31 4.98c.53.52.77 1.25.64 2.02-.13.83-.77 1.56-1.58 1.8-.65.19-1.31.1-1.85-.22l-1.07-1.06-4.02-3.68c-.2-.19-.52-.17-.71.03-.93 1.02-.87 2.59.14 3.53l2.43 2.24c.45.41.7.98.7 1.58 0 1.18-.96 2.14-2.14 2.14-.49 0-.95-.16-1.33-.47l-4.41-4.34c-.2-.19-.51-.19-.71 0-.97.98-.96 2.56.02 3.53l1.98 1.96c.36.37.55.85.55 1.37 0 1.09-.88 1.97-1.94 1.97-.79-.02-1.71-.68-1.97-.9l-21.63-16.99c-1.95-1.54-3.11-3.79-3.23-6.3-.1-2.21.74-4.35 2.16-6.05l7.57-9.05 1.96 1.7c1.04.9 2.62.79 3.53-.25.18-.21.16-.52-.05-.71l-4.25-3.67c-.85-.73-2.13-.63-2.84.23l-8.17 9.76c-1.97 2.35-3.1 5.35-2.89 8.41.22 3.29 1.78 6.25 4.36 8.28l21.55 16.93c.33.29 1.94 1.59 3.9 1.63 2.45 0 4.5-1.78 4.9-4.12.32.06.65.09.97.09 2.62 0 4.79-1.98 5.1-4.52.24.03.48.05.72.05 2.92 0 5.29-2.37 5.29-5.29 0-1.39-.56-2.75-1.56-3.74z"/></svg>