<svg enable-background="new 0 0 60 60" viewBox="0 0 60 60" xmlns="http://www.w3.org/2000/svg"><path d="m51.65 6.49c-.11-.05-.21-.09-.28-.11-2.55-1.04-12.65-4.88-21.37-4.88-7.96 0-17.04 3.2-20.5 4.55-.31.12-.71.28-1.1.44-.75.31-1.23 1.04-1.23 1.85v28.47c0 3.74 1.82 7.25 4.88 9.4l16.8 11.81c.69.48 1.61.49 2.3 0l16.84-11.81c3.07-2.15 4.9-5.67 4.9-9.41v-28.47c-.01-.8-.49-1.53-1.24-1.84zm-1.77 30.31c0 2.77-1.35 5.37-3.62 6.96l-16.26 11.41-16.22-11.41c-2.26-1.59-3.61-4.19-3.61-6.95v-27.8c2.89-1.14 12.1-4.51 19.83-4.51 7.72 0 16.98 3.38 19.88 4.51z"/><path d="m19.41 27.29c-.2-.2-.51-.2-.71 0l-1.41 1.41c-.2.2-.2.51 0 .71l7.29 7.29c.78.78 2.05.78 2.83 0l15.29-15.29c.2-.2.2-.51 0-.71-.98-.98-2.56-.98-3.54 0l-13.16 13.18z"/></svg>