<svg enable-background="new 0 0 60 60" viewBox="0 0 60 60" xmlns="http://www.w3.org/2000/svg"><path d="m30 1.5c-15.71 0-28.5 12.79-28.5 28.5s12.79 28.5 28.5 28.5 28.5-12.79 28.5-28.5-12.79-28.5-28.5-28.5zm0 54c-14.06 0-25.5-11.44-25.5-25.5s11.44-25.5 25.5-25.5 25.5 11.44 25.5 25.5-11.44 25.5-25.5 25.5z"/><path d="m32.02 25.22c-1.01-.02-1.99-.01-2.95.04s-1.81.12-2.56.22c-.19.02-.34.09-.43.2-.1.11-.14.26-.14.45v2.27c0 .19.05.34.16.45s.25.15.44.15h1.37v13.39c0 .19.05.34.16.45s.26.16.45.16h3.49c.19 0 .34-.05.45-.16s.16-.26.16-.45v-16.56c0-.19-.05-.34-.16-.45-.1-.11-.25-.16-.44-.16z"/><path d="m30.32 17.01c-.84 0-1.55.29-2.14.86-.59.58-.88 1.28-.88 2.12s.29 1.55.88 2.14 1.3.88 2.14.88 1.55-.29 2.14-.88.88-1.3.88-2.14-.29-1.55-.88-2.12c-.58-.57-1.3-.86-2.14-.86z"/></svg>