<svg enable-background="new 0 0 60 60" viewBox="0 0 60 60" xmlns="http://www.w3.org/2000/svg"><path d="m43.74 25.42c-.01-7.67-6.17-13.91-13.74-13.91s-13.74 6.25-13.73 13.88c0 .14-.08 3.48 2.22 8.15.7 1.43 1.35 2.52 1.97 3.57 1.36 2.3 2.55 4.3 3.84 9.25.03.1.09.34.16.63.22.89 1.02 1.52 1.94 1.52h7.2c.96 0 1.78-.68 1.96-1.62.07-.34.13-.64.15-.76 1.01-4.69 2.25-6.64 3.67-8.87.69-1.09 1.41-2.22 2.15-3.72 2.19-4.48 2.21-7.74 2.21-8.12zm-4.91 6.79c-.67 1.35-1.34 2.41-1.99 3.43-1.51 2.38-2.94 4.63-4.07 9.86h-5.6c-1.38-5.3-2.72-7.55-4.14-9.93-.59-1-1.21-2.04-1.86-3.36-1.94-3.94-1.91-6.71-1.91-6.78 0-6.03 4.82-10.93 10.74-10.93s10.74 4.9 10.74 10.93v.05c0 .03.03 2.79-1.91 6.73z"/><path d="m34 50.53h-8c-.28 0-.5.22-.5.5 0 1.35 1.09 2.44 2.44 2.44h6.06c.28 0 .5-.22.5-.5v-1.94c0-.28-.22-.5-.5-.5z"/><path d="m32.5 55.5h-5c-.28 0-.5.22-.5.5v.06c0 1.35 1.09 2.44 2.44 2.44h3.06c.28 0 .5-.22.5-.5v-2c0-.28-.22-.5-.5-.5z"/><path d="m29 9h2c.28 0 .5-.22.5-.5v-3c0-1.38-1.12-2.5-2.5-2.5-.28 0-.5.22-.5.5v5c0 .28.22.5.5.5z"/><path d="m14 26v-2c0-.28-.22-.5-.5-.5h-3c-1.38 0-2.5 1.12-2.5 2.5 0 .28.22.5.5.5h5c.28 0 .5-.22.5-.5z"/><path d="m51.5 23.5h-5c-.28 0-.5.22-.5.5v2c0 .28.22.5.5.5h3c1.38 0 2.5-1.12 2.5-2.5 0-.28-.22-.5-.5-.5z"/><path d="m16.94 14.71c.2.2.51.2.71 0l1.41-1.41c.2-.2.2-.51 0-.71l-2.23-2.23c-.98-.98-2.56-.98-3.53 0-.2.2-.2.51 0 .71z"/><path d="m42.35 14.71c.2.2.51.2.71 0l2.23-2.23c.98-.98.98-2.56 0-3.53-.2-.2-.51-.2-.71 0l-3.65 3.65c-.2.2-.2.51 0 .71z"/><path d="m16.29 35.29c-.2-.2-.51-.2-.71 0l-2.12 2.12c-.98.98-.98 2.56 0 3.53.2.2.51.2.71 0l3.54-3.54c.2-.2.2-.51 0-.71z"/><path d="m44.41 35.29c-.2-.2-.51-.2-.71 0l-1.41 1.41c-.2.2-.2.51 0 .71l2.12 2.12c.98.98 2.56.98 3.53 0 .2-.2.2-.51 0-.71z"/></svg>