<svg enable-background="new 0 0 60 60" viewBox="0 0 60 60" xmlns="http://www.w3.org/2000/svg"><path d="m9.5 28c-1.1 0-2 .9-2 2v12c0 1.1.9 2 2 2h10c1.1 0 2-.9 2-2v-12c0-1.1-.9-2-2-2zm9 13h-8v-10h8z"/><path d="m22.14 23h1.27c.07 0 .12-.02.16-.05.04-.04.05-.09.05-.16v-2.07c0-.42 0-.76-.01-1.01s-.02-.53-.04-.84h.03c.06.16.13.33.21.49s.24.52.51 1.06l1.2 2.41c.03.06.06.1.1.12.04.03.09.04.14.04h1.2c.07 0 .12-.02.16-.05.04-.04.05-.09.05-.16v-6.97c0-.07-.02-.12-.05-.16-.04-.04-.09-.05-.16-.05h-1.26c-.07 0-.12.02-.16.05s-.05.09-.05.16v2.07c0 .42 0 .76.01 1.01s.02.53.04.84h-.03c-.09-.24-.19-.48-.29-.71s-.24-.51-.41-.85l-1.21-2.42c-.03-.05-.06-.09-.1-.11s-.09-.04-.14-.04h-1.2c-.07 0-.12.02-.16.05-.04.04-.05.09-.05.16v6.97c0 .07.02.12.05.16.02.04.07.06.14.06z"/><path d="m28.75 23h3.42c.07 0 .12-.02.16-.05.04-.04.05-.09.05-.16v-1.09c0-.07-.02-.12-.05-.16-.04-.04-.09-.05-.16-.05h-1.88v-1.51h1.59c.07 0 .12-.02.16-.05s.05-.09.05-.16v-1.02c0-.07-.02-.12-.05-.16-.04-.04-.09-.05-.16-.05h-1.59v-1.46h1.8c.07 0 .12-.02.16-.05s.05-.09.05-.16v-1.04c0-.07-.02-.12-.05-.16s-.09-.05-.16-.05h-3.35c-.07 0-.12.02-.16.05-.04.04-.05.09-.05.16v6.97c0 .07.02.12.05.16.04.02.1.04.17.04z"/><path d="m34.57 22.83c.02.06.05.1.09.13s.09.04.16.04h1.23c.06 0 .12-.02.16-.05s.06-.08.07-.14l.85-4.47h.03l.84 4.47c.01.06.04.11.08.14s.09.05.15.05h1.26c.06 0 .12-.01.16-.04s.07-.07.09-.13c.44-1.23.77-2.44 1.01-3.62.24-1.19.37-2.32.4-3.39 0-.07-.02-.12-.05-.16-.04-.04-.09-.05-.16-.05h-1.25c-.07 0-.12.02-.16.05-.04.04-.06.09-.06.16-.03.83-.09 1.59-.18 2.29s-.22 1.39-.38 2.08h-.03l-.83-4.39c-.01-.06-.03-.11-.07-.14s-.09-.05-.16-.05h-1.31c-.06 0-.12.02-.15.05-.04.03-.06.08-.08.14l-.82 4.39h-.03c-.16-.69-.29-1.38-.38-2.07s-.15-1.46-.18-2.29c-.01-.07-.03-.12-.06-.16-.04-.04-.09-.05-.16-.05h-1.3c-.07 0-.12.02-.16.05-.04.04-.05.09-.05.16.04 1.08.18 2.21.42 3.4.24 1.17.58 2.38 1.01 3.6z"/><path d="m42.61 22.95c.3.12.65.18 1.05.18.74 0 1.32-.2 1.76-.6s.65-.93.65-1.59c0-.35-.06-.67-.17-.94-.11-.28-.28-.53-.51-.76-.09-.09-.2-.19-.32-.28s-.3-.22-.55-.39c-.39-.25-.64-.45-.75-.61s-.17-.32-.17-.5c0-.16.04-.29.12-.39.08-.09.19-.14.34-.14.14 0 .25.04.33.12s.16.21.21.39c.02.07.06.12.1.15.05.02.11.03.18.01l1.01-.31c.06-.01.11-.04.13-.09.03-.05.03-.1.01-.17-.14-.49-.38-.88-.72-1.15-.34-.28-.76-.41-1.27-.41-.68 0-1.21.19-1.61.56-.39.37-.59.88-.59 1.51 0 .33.05.62.16.88s.28.51.53.76c.07.07.19.17.36.3s.38.29.65.48c.27.2.46.38.56.53s.16.31.16.47c0 .21-.06.38-.17.49s-.28.17-.5.17c-.14 0-.28-.03-.4-.09s-.25-.16-.37-.29c-.05-.06-.1-.09-.16-.09s-.11.03-.16.09l-.71.83c-.04.04-.06.09-.06.14s.02.1.06.15c.25.26.52.46.82.59z"/><circle cx="43.5" cy="42" r="1.5"/><path d="m56.5 14.5h-4v-4c0-1.1-.9-2-2-2h-33.29c-.53 0-1.04.21-1.41.59l-13.71 13.7c-.38.38-.59.88-.59 1.41v15.8c0 6.35 5.15 11.5 11.5 11.5h37 2.5 4c1.1 0 2-.9 2-2v-33c0-1.1-.9-2-2-2zm-40.5-1.38v8.88h-8.88zm33.5 35.38h-36.5c-4.69 0-8.5-3.81-8.5-8.5v-15h12.5c1.1 0 2-.9 2-2v-11.5h30.5zm6 0h-3v-31h3z"/><path d="m44.5 28.5h-18c-.28 0-.5.22-.5.5 0 1.38 1.12 2.5 2.5 2.5h16c.28 0 .5-.22.5-.5v-2c0-.28-.22-.5-.5-.5z"/><path d="m44.5 34.5h-18c-.28 0-.5.22-.5.5 0 1.38 1.12 2.5 2.5 2.5h16c.28 0 .5-.22.5-.5v-2c0-.28-.22-.5-.5-.5z"/><path d="m26 41.01c.01 1.37 1.12 2.49 2.5 2.49h10c.28 0 .5-.22.5-.5v-2c0-.28-.22-.5-.5-.5h-12c-.28 0-.5.23-.5.51z"/></svg>