<svg enable-background="new 0 0 60 60" viewBox="0 0 60 60" xmlns="http://www.w3.org/2000/svg"><path d="m30 1.5c-15.71 0-28.5 12.79-28.5 28.5s12.79 28.5 28.5 28.5 28.5-12.79 28.5-28.5-12.79-28.5-28.5-28.5zm0 54c-14.06 0-25.5-11.44-25.5-25.5s11.44-25.5 25.5-25.5 25.5 11.44 25.5 25.5-11.44 25.5-25.5 25.5z"/><path d="m31.89 23.97c-1.44-.5-2.44-.97-2.99-1.39s-.83-.95-.83-1.6c0-.5.22-.9.65-1.19s1.02-.43 1.76-.43c.67 0 1.25.13 1.73.4.48.26.85.66 1.12 1.19.1.22.21.35.34.41s.31.04.52-.05l2.09-.79c.17-.05.28-.14.34-.27s.07-.28.02-.45c-.41-1.3-1.15-2.29-2.23-2.99s-2.42-1.04-4.03-1.04c-1.92 0-3.47.5-4.64 1.49-1.18 1-1.76 2.32-1.76 3.98 0 .7.09 1.33.27 1.89s.45 1.09.81 1.57c-.96.53-1.69 1.18-2.18 1.96s-.74 1.69-.74 2.72c0 1.42.43 2.59 1.3 3.51.86.92 2.36 1.78 4.5 2.57 1.56.58 2.61 1.09 3.15 1.53s.81.99.81 1.64c0 .53-.25.94-.74 1.24s-1.17.45-2.03.45c-.65 0-1.28-.11-1.89-.32s-1.16-.52-1.64-.9c-.19-.14-.36-.2-.5-.16s-.26.16-.36.38l-1.08 2.27c-.07.17-.09.32-.05.45s.13.25.27.34c.74.55 1.57.97 2.48 1.24.91.28 1.91.41 2.99.41 2.09 0 3.75-.52 4.99-1.57 1.24-1.04 1.85-2.44 1.85-4.19 0-.7-.1-1.34-.31-1.94s-.52-1.15-.95-1.66c.94-.5 1.65-1.14 2.14-1.91s.74-1.66.74-2.66c0-1.46-.46-2.68-1.39-3.64s-2.44-1.79-4.53-2.49zm1.48 7.98c-.22.32-.54.61-.97.85-.31-.17-.66-.34-1.04-.5-.38-.17-.83-.34-1.33-.5-1.49-.53-2.5-1-3.02-1.42-.53-.42-.79-1-.79-1.75 0-.43.11-.82.32-1.15.22-.34.53-.62.94-.86.38.19.77.37 1.15.52s.76.29 1.12.41c1.49.5 2.52.99 3.1 1.46s.86 1.07.86 1.82c-.02.41-.13.79-.34 1.12z"/></svg>