<svg enable-background="new 0 0 60 60" viewBox="0 0 60 60" xmlns="http://www.w3.org/2000/svg"><path d="m56.5 1.45h-53c-1.1 0-2 .9-2 2l.01 32.55c0 6.34 5.16 11.5 11.5 11.5h10.49v8.21c0 1.83 2.25 2.7 3.48 1.35l8.68-9.55h20.84c1.1 0 2-.9 2-2v-42.06c0-1.11-.9-2-2-2zm-1 43.05h-20.28c-.56 0-1.1.24-1.48.65l-7.24 7.96v-6.61c0-1.1-.9-2-2-2h-11.49c-4.69 0-8.5-3.8-8.5-8.5l-.01-31.55h51z"/><path d="m29.53 31.71c-.84 0-1.52.26-2.03.79-.52.53-.77 1.21-.77 2.05 0 .82.26 1.48.79 2s1.2.77 2.02.77c.84 0 1.52-.26 2.03-.77.52-.52.77-1.18.77-2 0-.86-.26-1.55-.77-2.07-.52-.51-1.2-.77-2.04-.77z"/><path d="m23.16 17.78 2.45.97c.22.07.39.08.52.02s.23-.2.31-.41c.26-.84.67-1.48 1.21-1.91s1.21-.65 2-.65c.82 0 1.45.25 1.91.74s.68 1.18.68 2.07c0 .96-.34 1.81-1.03 2.56-.68.74-1.84 1.44-3.47 2.09-.17.05-.29.13-.38.25-.08.12-.11.28-.09.47l.29 4.72c.02.19.09.34.2.43s.25.14.41.14h2.95c.19 0 .34-.05.45-.14.11-.1.17-.24.2-.43l.22-3.82c1.82-.86 3.12-1.85 3.89-2.95s1.15-2.41 1.15-3.92c0-1.92-.62-3.44-1.87-4.57s-2.94-1.69-5.08-1.69c-1.85 0-3.41.47-4.7 1.4-1.28.94-2.14 2.23-2.57 3.89-.05.17-.04.32.02.45.05.11.16.21.33.29z"/></svg>