<svg enable-background="new 0 0 60 60" viewBox="0 0 60 60" xmlns="http://www.w3.org/2000/svg"><path d="m30 1.5c-15.71 0-28.5 12.79-28.5 28.5s12.79 28.5 28.5 28.5 28.5-12.79 28.5-28.5-12.79-28.5-28.5-28.5zm0 54c-14.06 0-25.5-11.44-25.5-25.5s11.44-25.5 25.5-25.5 25.5 11.44 25.5 25.5-11.44 25.5-25.5 25.5z"/><path d="m29.53 37.71c-.84 0-1.52.26-2.03.79-.52.53-.77 1.21-.77 2.05 0 .82.26 1.48.79 2s1.2.77 2.02.77c.84 0 1.52-.26 2.03-.77s.77-1.18.77-2c0-.86-.26-1.55-.77-2.07-.52-.51-1.2-.77-2.04-.77z"/><path d="m30.07 17.73c-1.85 0-3.41.47-4.7 1.4-1.28.94-2.14 2.23-2.57 3.89-.05.17-.04.32.02.45s.17.23.34.31l2.45.97c.22.07.39.08.52.02s.23-.2.31-.41c.26-.84.67-1.48 1.21-1.91s1.21-.65 2-.65c.82 0 1.45.25 1.91.74s.68 1.18.68 2.07c0 .96-.34 1.81-1.03 2.56-.68.74-1.84 1.44-3.47 2.09-.17.05-.29.13-.38.25-.08.12-.11.28-.09.47l.29 4.72c.02.19.09.34.2.43s.25.14.41.14h2.95c.19 0 .34-.05.45-.14.11-.1.17-.24.2-.43l.22-3.82c1.82-.86 3.12-1.85 3.89-2.95s1.15-2.41 1.15-3.92c0-1.92-.62-3.44-1.87-4.57-1.26-1.15-2.95-1.71-5.09-1.71z"/></svg>