<svg enable-background="new 0 0 60 60" viewBox="0 0 60 60" xmlns="http://www.w3.org/2000/svg"><path d="m57.91 17.61-15.52-15.52c-.38-.38-.88-.59-1.41-.59h-21.96c-.53 0-1.04.21-1.41.59l-15.52 15.52c-.38.38-.59.88-.59 1.41v21.95c0 .53.21 1.04.59 1.41l15.52 15.52c.38.38.88.59 1.41.59h21.95c.53 0 1.04-.21 1.41-.59l15.52-15.52c.38-.38.59-.88.59-1.41v-21.95c.01-.53-.2-1.04-.58-1.41zm-2.41 22.95-14.94 14.94h-21.12l-14.94-14.94v-21.12l14.94-14.94h21.12l14.94 14.94z"/><path d="m16.51 30.04c-.36-.36-.77-.64-1.23-.83s-.89-.37-1.3-.53-.75-.33-1.04-.52c-.28-.19-.43-.45-.43-.79 0-.28.1-.5.29-.65s.45-.23.77-.23c.29 0 .57.09.82.26.25.18.46.39.6.65.07.12.14.2.21.22s.17.01.3-.05l1.65-.82c.2-.09.26-.24.17-.44-.34-.74-.82-1.31-1.43-1.71s-1.36-.6-2.24-.6c-.63 0-1.2.08-1.71.25-.5.17-.94.41-1.29.72-.36.31-.63.69-.82 1.12-.19.44-.29.92-.29 1.45 0 .54.08 1 .25 1.36.16.36.39.69.69.99.37.37.79.66 1.24.87.45.2.88.39 1.28.55.4.17.74.34 1.01.53s.41.45.41.77c0 .29-.11.52-.33.69s-.58.25-1.06.25c-.51 0-.95-.09-1.33-.26s-.69-.36-.94-.55c-.2-.18-.37-.15-.49.1l-.9 1.67c-.09.17-.07.32.07.44.32.28.77.55 1.37.81.6.25 1.33.38 2.22.38.74 0 1.38-.1 1.94-.3s1.02-.46 1.39-.8.65-.72.83-1.17c.19-.44.28-.91.28-1.41 0-.58-.09-1.06-.26-1.44-.19-.36-.42-.69-.7-.98z"/><path d="m27.1 24.21h-8.43c-.23 0-.34.11-.34.34v1.79c0 .23.11.34.34.34h2.74v8.93c0 .23.11.34.34.34h2.28c.23 0 .34-.11.34-.34v-8.93h2.74c.23 0 .34-.11.34-.34v-1.79c-.01-.22-.12-.34-.35-.34z"/><path d="m38.38 25.63c-.52-.53-1.14-.93-1.87-1.21s-1.56-.42-2.47-.42-1.74.14-2.48.42-1.36.68-1.87 1.21-.9 1.16-1.18 1.91-.42 1.59-.42 2.53.14 1.79.42 2.53c.28.75.67 1.39 1.18 1.91.51.53 1.13.93 1.87 1.21s1.56.42 2.48.42 1.74-.14 2.47-.42 1.35-.68 1.87-1.21.91-1.16 1.18-1.91.41-1.59.41-2.53-.14-1.78-.41-2.53-.66-1.38-1.18-1.91zm-2.21 7.03c-.53.59-1.24.88-2.13.88-.91 0-1.62-.29-2.15-.88s-.79-1.45-.79-2.58c0-1.14.26-2.02.79-2.63s1.24-.91 2.15-.91c.9 0 1.61.3 2.13.91.53.61.79 1.48.79 2.63 0 1.13-.26 1.99-.79 2.58z"/><path d="m41.5 26.63h.77v8.98c0 .23.11.34.34.34h2.28c.23 0 .34-.11.34-.34v-3.09h.9c1.69 0 2.99-.38 3.89-1.13.91-.75 1.36-1.8 1.36-3.14 0-1.33-.43-2.33-1.28-3.01s-2.14-1.02-3.87-1.02h-4.73c-.23 0-.34.11-.34.34v1.73c0 .22.11.34.34.34zm3.72-.02h.93c.77 0 1.33.14 1.69.43s.54.73.54 1.33c0 .58-.18 1.02-.54 1.33s-.93.47-1.7.47h-.92z"/></svg>