<svg enable-background="new 0 0 60 60" viewBox="0 0 60 60" xmlns="http://www.w3.org/2000/svg"><path d="m56.5 1.45h-53c-1.1 0-2 .9-2 2l.01 32.55c0 6.34 5.16 11.5 11.5 11.5h10.49v8.21c0 1.83 2.25 2.7 3.48 1.35l8.68-9.55h20.84c1.1 0 2-.9 2-2v-42.06c0-1.11-.9-2-2-2zm-1 43.05h-20.28c-.56 0-1.1.24-1.48.65l-7.24 7.96v-6.61c0-1.1-.9-2-2-2h-11.49c-4.69 0-8.5-3.8-8.5-8.5l-.01-31.55h51z"/><path d="m12.5 37.5h27.5 1 1.32c1.74 0 3.37-1.04 3.94-2.68.42-1.2.23-2.3-.27-3.22.91-.73 1.5-1.84 1.5-3.1 0-.95-.35-1.81-.9-2.5.73-.91 1.1-2.12.79-3.43-.43-1.83-2.16-3.07-4.04-3.07h-.34-3-2.5v-5.3c0-2.35-1.71-4.45-4.05-4.67-2.68-.27-4.95 1.84-4.95 4.47v.97c0 2.49-2.02 4.52-4.51 4.53h-11.49c-1.1 0-2 .9-2 2v14c0 1.1.9 2 2 2zm19-22.53v-.97c0-.83.67-1.5 1.5-1.5s1.5.67 1.5 1.5v6.5c0 1.1.9 2 2 2h1 2.5 3 .5c.55 0 1 .45 1 1s-.45 1-1 1h-3c-.28 0-.5.22-.5.5 0 1.38 1.12 2.5 2.5 2.5h1c.55 0 1 .45 1 1s-.45 1-1 1h-1-2c-.28 0-.5.22-.5.5 0 1.38 1.12 2.5 2.5 2.5.55 0 1 .45 1 1s-.45 1-1 1h-1.5-1-17.5v-12h1.47c4.15 0 7.53-3.38 7.53-7.53zm-18 7.53h6v12h-6z"/></svg>