<svg enable-background="new 0 0 60 60" viewBox="0 0 60 60" xmlns="http://www.w3.org/2000/svg"><path d="m46.55 23.75c-2.88-4.43-8.58-5.92-13.24-3.47-2.08 1.09-4.56 1.09-6.63 0-1.46-.77-3.1-1.18-4.73-1.18-3.43 0-6.62 1.74-8.51 4.65-4.4 6.76-4.94 15.46-1.42 22.72l3.26 6.72c1.61 3.32 5.04 5.3 9.16 5.3h11.12c4.12 0 7.54-1.98 9.15-5.3l3.26-6.72c3.53-7.25 2.98-15.96-1.42-22.72zm-1.27 21.42-3.26 6.72c-1.09 2.26-3.51 3.61-6.45 3.61h-11.12c-2.95 0-5.37-1.35-6.46-3.61l-3.26-6.72c-3.06-6.32-2.59-13.9 1.24-19.78 1.34-2.06 3.58-3.28 6-3.28 1.15 0 2.3.29 3.33.83 2.96 1.55 6.48 1.55 9.43 0 3.28-1.72 7.29-.67 9.33 2.45 3.81 5.88 4.28 13.46 1.22 19.78z"/><path d="m21.77 4.59c1.15.45 4.25 1.83 5.37 4.12 1.51 3.06 1.38 7.42 1.37 7.52v1.54c0 .28.22.5.5.5h2c.28 0 .5-.22.5-.5v-1.48c.01-.21.16-5.14-1.68-8.89-1.13-2.29-3.39-3.84-5.16-4.76-1.24-.65-2.77-.01-3.19 1.32l-.01.03c-.08.23.05.5.3.6z"/></svg>