<svg enable-background="new 0 0 60 60" viewBox="0 0 60 60" xmlns="http://www.w3.org/2000/svg"><path d="m44 28.5h-28c-8.01 0-14.5 6.49-14.5 14.5v4c0 6.35 5.15 11.5 11.5 11.5h43.5c1.1 0 2-.9 2-2v-13.5c0-8.01-6.49-14.5-14.5-14.5zm11.5 27h-42.5c-4.69 0-8.5-3.81-8.5-8.5v-4c0-6.35 5.15-11.5 11.5-11.5h3.5v7c0 1.38 1.12 2.5 2.5 2.5.28 0 .5-.22.5-.5v-9h6v7c0 1.38 1.12 2.5 2.5 2.5.28 0 .5-.22.5-.5v-9h6v7c0 1.38 1.12 2.5 2.5 2.5.28 0 .5-.22.5-.5v-9h3.5c6.35 0 11.5 5.15 11.5 11.5z"/><path d="m9 27c1.38 0 2.5-1.12 2.5-2.5v-2.5c0-5.45 4.62-9.85 10.15-9.48 5.04.34 8.85 4.76 8.85 9.81v1.16c0 1.38 1.12 2.5 2.5 2.5.28 0 .5-.22.5-.5v-3.49c0-7.29-6.27-13.14-13.7-12.44-6.48.61-11.3 6.3-11.3 12.81v4.13c0 .28.22.5.5.5z"/><path d="m38.06 26.44.05.02c1.27.46 2.68-.19 3.14-1.46l.19-.52c2.36-6.5 4.54-11.52 6.47-14.95 2.46-4.36 4.02-5.18 4.5-5.01.02.01 1.33.6.28 6.49l-.91-.33c-1.3-.47-2.73.2-3.2 1.49-.09.26.04.55.3.64l3.18 1.16c-.21.89-.47 1.85-.77 2.91l-1.57-.57c-1.3-.47-2.73.2-3.2 1.49-.09.26.04.55.3.64l3.61 1.31c-.28.9-.59 1.85-.93 2.85l-1.83-.67c-1.3-.47-2.73.2-3.2 1.49-.09.26.04.55.3.64l3.94 1.43c.06.96.67 1.84 1.63 2.19l.03.01c.26.09.55-.05.64-.31 7.52-20.78 5.25-24.64 2.42-25.67-3.39-1.23-6.27 3.03-8.14 6.35-2.01 3.56-4.25 8.74-6.67 15.39l-.86 2.35c-.09.26.04.55.3.64z"/><path d="m25.5 22.5h-7c-1.38 0-2.5 1.12-2.5 2.5 0 .28.22.5.5.5h9c.28 0 .5-.22.5-.5v-2c0-.28-.22-.5-.5-.5z"/><path d="m26 17c0-.28-.22-.5-.5-.5h-7c-1.38 0-2.5 1.12-2.5 2.5 0 .28.22.5.5.5h9c.28 0 .5-.22.5-.5z"/></svg>