<svg enable-background="new 0 0 60 60" viewBox="0 0 60 60" xmlns="http://www.w3.org/2000/svg"><path d="m57.1 34.36c-.19-.18-.39-.31-.6-.44v-3.05c0-.28-.22-.5-.5-.5h-2c-.28 0-.5.22-.5.5v2.44h-2v-20.05c0-.92-.63-1.72-1.52-1.94l-2.07-.51c-6.07-1.49-13.68-2.31-21.41-2.31-7.74 0-15.34.82-21.41 2.31l-2.07.51c-.89.22-1.52 1.02-1.52 1.94v29.48c0 .92.63 1.72 1.53 1.94l2 .49-1.23 3.7c-.43 1.3.53 2.63 1.9 2.63h4.97c.82 0 1.55-.5 1.86-1.26l1.39-3.48.04.01c4 .49 8.22.73 12.55.73 4.27 0 8.48-.25 12.59-.74l1.39 3.49c.3.76 1.04 1.26 1.86 1.26h4.97c1.37 0 2.33-1.34 1.9-2.63l-1.23-3.7 2-.49c.9-.22 1.53-1.02 1.53-1.94v-6.42h2.65.11c.01 0 .51-.02.83.28.06.05.1.11.15.18.42.69 1.11 1.21 1.94 1.21h.78c.28 0 .52-.24.5-.52-.12-1.64-.8-2.59-1.38-3.12zm-8.6-7.86h-4v-6.38c1.38.1 2.72.21 4 .34zm-7 0h-30v-6.63c4.53-.24 9.42-.37 14.5-.37 5.46 0 10.7.15 15.5.43zm-33 0h-4v-6.13c1.29-.12 2.62-.22 4-.32zm-4 3h4v5.73c-1.38-.15-2.71-.33-4-.52zm7 0h30v5.93c-4.8.45-10.03.7-15.5.7-5.09 0-9.98-.21-14.5-.6zm33 0h4v5.06c-1.28.2-2.62.38-4 .55zm4-15.45v3.4c-1.29-.12-2.62-.23-4-.33v-3.98c.92.18 1.83.38 2.69.59zm-7-1.44v4.31c-4.81-.28-10.05-.42-15.5-.42-5.07 0-9.96.13-14.5.37v-4.26c4.62-.72 9.77-1.11 15-1.11s10.38.39 15 1.11zm-35.69 1.11c.86-.21 1.77-.41 2.69-.59v3.91c-1.38.09-2.71.2-4 .31v-3.31zm-1.31 24.02c1.29.19 2.62.35 4 .5v4.61l-.36-.06c-.89-.18-1.62-.35-2.33-.52l-1.31-.31zm5.48 10.76h-2.9l.9-2.7 2.9.47zm4.39-4.7-2.87-.46v-4.81c4.54.39 9.43.59 14.5.59 5.45 0 10.69-.23 15.5-.68v4.89l-2.59.42c-4 .49-8.18.74-12.41.74-4.21.01-8.31-.23-12.13-.69zm28.65 4.7-.89-2.23 2.89-.47.9 2.7zm4.17-6.23c-.69.17-1.39.33-2.03.46l-.67.11v-4.72c1.38-.16 2.71-.34 4-.54v4.37z"/></svg>