<svg viewBox="0 0 60 60" xmlns="http://www.w3.org/2000/svg"><path d="M52.61 21.12c-1.32-1.11-4.06-1.07-6.11-.85V18.5c0-.66-.33-1.25-.83-1.61.52-.84.83-1.83.83-2.89 0-3.03-2.47-5.5-5.5-5.5h-2.79c-2.04-4.14-6.29-7-11.21-7-3.15 0-6.19 1.22-8.49 3.35a9.324 9.324 0 00-3.78-.26c-3.41.44-6.39 2.77-7.6 5.98A9.499 9.499 0 008.5 19.8V47c0 6.35 5.15 11.5 11.5 11.5h24.5c1.1 0 2-.9 2-2v-6.24c6.79-1.36 7-4.85 7-5.26V23c0-.73-.32-1.4-.89-1.88zm-42.47-9.96c.81-1.74 2.43-3.03 4.29-3.47a6.517 6.517 0 017.82 4.54C22.56 13.3 23.6 14 24.71 14h.27c.28 0 .52-.24.51-.52-.16-2.98-1.71-5.59-3.99-7.22A9.385 9.385 0 0127 4.5c4.55 0 8.37 3.22 9.29 7.5.25 1.16 1.26 2 2.44 2h.25c.28 0 .52-.24.51-.52-.03-.68-.12-1.34-.25-1.98H41a2.5 2.5 0 010 5H10.5c-.16 0-.31.02-.46.06-.72-1.66-.74-3.6.1-5.4zM43.5 55.5H20c-4.69 0-8.5-3.81-8.5-8.5V19.5h32zm7-10.58c-.11.46-1.03 1.57-4 2.27V23.3c1.71-.2 3.35-.19 4 .03z"/><path d="M20 24a2.5 2.5 0 00-2.5 2.5v25c0 .28.22.5.5.5h2c.28 0 .5-.22.5-.5v-27c0-.28-.22-.5-.5-.5zM28 24a2.5 2.5 0 00-2.5 2.5v25c0 .28.22.5.5.5h2c.28 0 .5-.22.5-.5v-27c0-.28-.22-.5-.5-.5zM37 24a2.5 2.5 0 00-2.5 2.5v25c0 .28.22.5.5.5h2c.28 0 .5-.22.5-.5v-27c0-.28-.22-.5-.5-.5z"/></svg>