<svg enable-background="new 0 0 60 60" viewBox="0 0 60 60" xmlns="http://www.w3.org/2000/svg"><path d="m55.99 6.2s-6.63.04-8.53.04c-1.62 0-2.48-.72-3.66-1.72-1.59-1.35-3.58-3.02-7.72-3.02h-32.58c-1.1 0-2 .9-2 2v13c0 .28.22.5.5.5 1.38 0 2.5-1.12 2.5-2.5v-10h27v10c0 1.38 1.12 2.5 2.5 2.5.28 0 .5-.22.5-.5v-12h1.58c3.05 0 4.38 1.12 5.79 2.31 1.35 1.14 2.87 2.43 5.59 2.43 1.33 0 4.96-.02 7.04-.03v4.65c-2.08-.01-5.71-.03-7.04-.03-1.23 0-2.22.27-3.05.66-1.36.64-1.74 2.4-.77 3.55.18.21.48.23.7.06.98-.8 1.78-1.27 3.12-1.27 1.9 0 8.53.04 8.53.04.83.01 1.51-.67 1.51-1.5v-7.67c0-.83-.68-1.51-1.51-1.5z"/><path d="m55.99 43.79s-6.63.04-8.53.04c-1.62 0-2.48-.72-3.66-1.72-1.59-1.35-3.58-3.02-7.72-3.02h-32.58c-1.1 0-2 .9-2 2v6.57c0 6.35 5.15 11.5 11.5 11.5h23.08c4.15 0 6.13-1.68 7.72-3.02 1.18-1 2.03-1.72 3.66-1.72 1.9 0 8.53.04 8.53.04.83.01 1.51-.67 1.51-1.5v-7.67c0-.83-.68-1.5-1.51-1.5zm-51.49 3.88v-5.57h27v14.07h-18.5c-4.69 0-8.5-3.81-8.5-8.5zm50 3.79c-2.08-.01-5.71-.03-7.04-.03-2.72 0-4.25 1.29-5.59 2.43-1.41 1.19-2.74 2.31-5.79 2.31h-1.58v-14.08h1.58c3.05 0 4.38 1.12 5.79 2.31 1.35 1.14 2.87 2.43 5.59 2.43 1.33 0 4.96-.02 7.04-.03z"/><path d="m55.99 25s-6.63.04-8.53.04c-1.62 0-2.48-.72-3.66-1.72-1.59-1.35-3.58-3.02-7.72-3.02h-33.08c-.83 0-1.5.67-1.5 1.5v11.7c0 1.38 1.12 2.5 2.5 2.5.28 0 .5-.22.5-.5v-12.2h27v10.2c0 1.38 1.12 2.5 2.5 2.5.28 0 .5-.22.5-.5v-12.2h1.58c3.05 0 4.38 1.12 5.79 2.31 1.35 1.14 2.87 2.43 5.59 2.43 1.33 0 4.96-.02 7.04-.03v4.65c-2.08-.01-5.71-.03-7.04-.03-1.23 0-2.22.27-3.05.66-1.36.64-1.74 2.4-.77 3.55.18.21.48.23.7.06.98-.8 1.78-1.27 3.12-1.27 1.9 0 8.53.04 8.53.04.83.01 1.51-.67 1.51-1.5v-7.67c0-.84-.68-1.51-1.51-1.5z"/></svg>