<svg viewBox="0 0 60 60" xmlns="http://www.w3.org/2000/svg"><path d="M37.33 15.91c-1.06-1.26-1.83-2.17-1.83-3.91 0-2 .04-8.99.04-8.99a1.5 1.5 0 00-1.5-1.51h-8.09a1.5 1.5 0 00-1.5 1.51S24.5 10 24.5 12c0 1.74-.77 2.65-1.83 3.91-1.41 1.67-3.17 3.75-3.17 8.09v23c0 6.35 5.15 11.5 11.5 11.5h8c.83 0 1.5-.67 1.5-1.5V24c0-4.34-1.76-6.42-3.17-8.09zm-12.37 1.94c1.19-1.41 2.54-3.01 2.54-5.85 0-1.41-.02-5.32-.04-7.5h5.07c-.01 2.18-.04 6.09-.04 7.5 0 2.84 1.35 4.44 2.54 5.85 1.27 1.5 2.46 2.91 2.46 6.15v1.5h-15V24c.01-3.24 1.2-4.66 2.47-6.15zM31 55.5c-4.69 0-8.5-3.81-8.5-8.5V28.5h15v27z"/></svg>