<svg enable-background="new 0 0 60 60" viewBox="0 0 60 60" xmlns="http://www.w3.org/2000/svg"><path d="m51.4 31.69c-3.91-2.21-10.51-3.19-21.4-3.19-10.8 0-17.1.96-21.07 3.19-7.73 4.36-7.49 11.46-7.43 12.37v2.94c0 6.35 5.15 11.5 11.5 11.5h43.5c1.1 0 2-.9 2-2v-12.41c.12-1.06.57-8.07-7.1-12.4zm4.11 12.1-.01 11.71h-42.5c-4.69 0-8.5-3.81-8.5-8.5v-3l-.01-.14c-.02-.24-.43-5.98 5.91-9.56 2.03-1.14 4.96-1.91 9.1-2.35v7.21c0 1.38 1.12 2.5 2.5 2.5.28 0 .5-.22.5-.5v-9.46c1.81-.11 3.8-.18 6-.2v7.66c0 1.38 1.12 2.5 2.5 2.5.28 0 .5-.22.5-.5v-9.66c2.19.02 4.18.09 6 .2v7.46c0 1.38 1.12 2.5 2.5 2.5.28 0 .5-.22.5-.5v-9.22c4.32.44 7.4 1.22 9.43 2.36 6.27 3.55 5.62 9.21 5.58 9.49z"/><path d="m17.56 17.69.38.37c.42.42.99 1.17 1.27 2.3.19.77.26 2.26.28 3.15.01.28.23.49.69.49h1.82c.28 0 .5-.23.5-.51-.02-.9-.09-2.72-.37-3.86-.45-1.8-1.37-3.01-2.06-3.7l-.41-.4c-.73-.71-2.26-2.18-2.71-3.08-.45-.89-.6-2.69-.06-4.02.27-.68.78-1.67 1.25-2.56.64-1.19.22-2.67-.96-3.35l-.05-.02c-.24-.14-.54-.06-.68.18-.54.95-1.81 3.25-2.37 4.63-.79 1.98-.72 4.7.16 6.48.64 1.26 2.05 2.67 3.32 3.9z"/><path d="m26.56 17.69.38.37c.42.42.99 1.17 1.27 2.3.19.77.26 2.26.28 3.15.01.28.23.49.69.49h1.82c.28 0 .5-.23.5-.51-.02-.9-.09-2.72-.37-3.86-.45-1.8-1.37-3.01-2.06-3.7l-.41-.4c-.73-.71-2.26-2.19-2.71-3.08s-.6-2.69-.06-4.02c.27-.68.77-1.67 1.25-2.56.64-1.19.22-2.67-.96-3.35l-.05-.02c-.24-.14-.54-.06-.68.18-.54.95-1.81 3.25-2.37 4.63-.79 1.98-.72 4.7.16 6.48.64 1.26 2.05 2.67 3.32 3.9z"/><path d="m35.61 17.7.37.36c.42.42.99 1.17 1.27 2.3.19.77.26 2.26.28 3.15.01.27.23.49.69.49h1.82c.28 0 .5-.23.5-.51-.02-.9-.09-2.72-.37-3.86-.45-1.8-1.37-3.01-2.06-3.7l-.41-.4c-.73-.71-2.26-2.19-2.71-3.09-.45-.89-.6-2.68-.06-4.02.27-.68.77-1.67 1.25-2.56.64-1.19.21-2.67-.96-3.35l-.04-.01c-.24-.14-.54-.06-.68.18-.54.95-1.81 3.25-2.37 4.63-.79 1.98-.72 4.7.16 6.48.63 1.26 2.04 2.68 3.32 3.91z"/></svg>