<svg enable-background="new 0 0 60 60" viewBox="0 0 60 60" xmlns="http://www.w3.org/2000/svg"><path d="m30 26.5c-11.85 0-21.5 7.58-21.5 16.9 0 4.91 2.61 9.43 7.13 12.6.74.52 2.34 1.38 3.12 1.8.29.15.6.23.93.23h2.32 17 1.35c.31 0 .62-.07.9-.21.47-.24 1.2-.61 1.55-.81 5.48-3.18 8.7-8.15 8.7-13.6 0-9.33-9.64-16.91-21.5-16.91zm10.14 28.52c-3.7 0-14.79 0-20.27 0-5.25-2.59-8.37-6.92-8.37-11.62 0-7.67 8.3-13.9 18.5-13.9s18.5 6.24 18.5 13.9c0 4.71-3.12 9.03-8.36 11.62z"/><path d="m41.28 36.04c-1.29-.24-4.95-.76-10.52-.18.16-.77.36-1.47.5-1.89.08-.25-.05-.53-.31-.62l-1.88-.69c-.27-.1-.56.04-.64.31-.22.67-.59 1.94-.79 3.31-6.04.98-9.4 2.59-10.55 3.23-.25.14-.33.46-.06.86l1.01 1.52c.14.21.42.29.64.17.97-.52 3.8-1.83 8.82-2.71v3.16c0 .28.22.5.5.5 1.38 0 2.5-1.12 2.5-2.5v-1.59c3.79-.44 6.68-.33 8.46-.16 1.23.12 2.35-.69 2.65-1.89l.05-.21c.08-.29-.1-.57-.38-.62z"/><path d="m38.74 22.27c0 .27.23.5.69.5l1.82-.01c.28 0 .5-.23.5-.51-.04-2.45-.3-4.27-2.21-6.18-2.41-2.41-4.65-6.06-2.69-10.38.51-1.11.2-2.43-.81-3.14l-.16-.12c-.23-.16-.56-.1-.71.13-3.39 5.13-2.58 10.8 2.25 15.63 1.07 1.08 1.29 1.9 1.32 4.08z"/><path d="m29.65 22.27c0 .27.23.5.69.5l1.82-.01c.28 0 .5-.23.5-.51-.04-2.45-.3-4.27-2.21-6.18-2.41-2.41-4.65-6.06-2.69-10.38.51-1.11.2-2.43-.81-3.14l-.16-.12c-.23-.16-.56-.1-.71.13-3.39 5.13-2.58 10.8 2.25 15.63 1.07 1.08 1.29 1.9 1.32 4.08z"/><path d="m20.49 22.27c0 .27.23.5.69.5l1.82-.01c.28 0 .5-.23.5-.51-.04-2.45-.3-4.27-2.21-6.18-2.41-2.41-4.65-6.06-2.69-10.38.51-1.11.2-2.43-.81-3.14l-.16-.12c-.23-.16-.56-.1-.71.13-3.39 5.13-2.58 10.8 2.25 15.63 1.06 1.08 1.28 1.9 1.32 4.08z"/></svg>