<svg enable-background="new 0 0 60 60" viewBox="0 0 60 60" xmlns="http://www.w3.org/2000/svg"><path d="m57.71 16.14c-.12-.09-.22-.17-.29-.23-1.39-1.06-5.45-4.04-9.2-5.7-3.72-1.64-9.24-2.34-11.35-2.56-.03 0-.4-.04-.72-.06-.33-.03-.65.02-.96.15l-32.52 13.82c-.74.31-1.22 1.04-1.22 1.85l.07 17.62c.01 1.33.17 2.66.61 3.91 1.7 4.92 6.2 7.82 10.9 7.82.36 0 .72-.02 1.08-.05l42.55-4.06c1.03-.1 1.81-.96 1.81-1.99v-28.94c.01-.62-.28-1.2-.76-1.58zm-21.57-5.54c1.49.14 7.29.78 10.86 2.36 2.37 1.05 4.94 2.72 6.74 3.99l-41.56 3.83zm19.34 35.15-41.65 3.97c-2.55.24-5-.63-6.83-2.46-1.64-1.64-2.47-3.93-2.48-6.25l-.07-16.51 51.02-4.7z"/></svg>