<svg enable-background="new 0 0 60 60" viewBox="0 0 60 60" xmlns="http://www.w3.org/2000/svg"><path d="m39.66 44.91c3.42 0 6.2-2.8 6.2-6.25s-2.78-6.25-6.2-6.25-6.2 2.8-6.2 6.25c0 3.44 2.78 6.25 6.2 6.25zm0-9.5c1.76 0 3.2 1.46 3.2 3.25s-1.44 3.25-3.2 3.25-3.2-1.46-3.2-3.25 1.44-3.25 3.2-3.25z"/><path d="m48.05 31.56c2.48 0 4.49-2.02 4.49-4.51s-2.02-4.51-4.49-4.51-4.5 2.02-4.5 4.51 2.03 4.51 4.5 4.51zm0-6.03c.82 0 1.49.68 1.49 1.51s-.67 1.51-1.49 1.51-1.5-.68-1.5-1.51.68-1.51 1.5-1.51z"/><path d="m24.99 35.49c3.02 0 5.48-2.47 5.48-5.5s-2.46-5.5-5.48-5.5-5.48 2.47-5.48 5.5c.01 3.04 2.46 5.5 5.48 5.5zm0-8c1.37 0 2.48 1.12 2.48 2.5s-1.11 2.5-2.48 2.5c-1.36 0-2.48-1.12-2.48-2.5.01-1.38 1.12-2.5 2.48-2.5z"/><path d="m16.07 45.58c2.48 0 4.49-2.02 4.49-4.51s-2.02-4.51-4.49-4.51-4.49 2.02-4.49 4.51 2.02 4.51 4.49 4.51zm0-6.03c.82 0 1.49.68 1.49 1.51s-.67 1.51-1.49 1.51-1.49-.68-1.49-1.51.67-1.51 1.49-1.51z"/><path d="m57.7 16.14c-.16-.12-.31-.24-.42-.32-1.5-1.14-5.43-3.99-9.07-5.6-3.68-1.63-9.13-2.33-11.28-2.55-.24-.03-.54-.05-.78-.07-.33-.03-.65.02-.95.15l-32.53 13.81c-.74.31-1.22 1.04-1.22 1.85v3.14c0 1.09.92 1.89 2.02 1.88h.02c1.66 0 3.01 1.36 3.01 3.03s-1.35 3.03-3.01 3.03c-.01 0-.02 0-.02 0-1.09-.01-2 .79-1.99 1.88l.04 4.65c.01 1.33.17 2.66.61 3.91 1.7 4.92 6.2 7.82 10.9 7.82.36 0 .72-.02 1.08-.05l42.55-4.06c1.03-.1 1.81-.96 1.81-1.99v-28.94c.01-.61-.28-1.19-.77-1.57zm-21.56-5.54c1.49.14 7.29.78 10.86 2.36 2.37 1.05 4.94 2.72 6.74 3.99l-41.56 3.83zm19.34 35.15-41.65 3.97c-2.55.24-4.99-.63-6.83-2.46-1.64-1.64-2.47-3.93-2.48-6.25l-.01-3.6c2.83-.49 4.99-2.96 4.99-5.94 0-3-2.19-5.48-5.04-5.95v-1.01l51.02-4.7z"/></svg>