<svg enable-background="new 0 0 60 60" viewBox="0 0 60 60" xmlns="http://www.w3.org/2000/svg"><path d="m46 8.5c-.72 0-1.44.07-2.14.19-3.08-4.34-8.14-7.19-13.86-7.19s-10.78 2.85-13.86 7.19c-1.84-.32-3.77-.23-5.64.3-4.79 1.36-8.35 5.6-8.91 10.55-.39 3.41.61 6.58 2.49 9.04 2.36 5.05 3.46 10.29 3.42 16.42v2c0 6.35 5.15 11.5 11.5 11.5h31.5c1.1 0 2-.9 2-2v-3.43c0-.04.05-1.12 0-8.08-.04-6.17 1.08-11.46 3.48-16.55 1.43-1.89 2.34-4.18 2.49-6.68.44-7.23-5.32-13.26-12.47-13.26zm3.5 44.5v2.5h-30.5c-2.6 0-4.92-1.17-6.47-3h36.98c0 .34-.01.47-.01.5zm5.91-30.66c-.64 4.66-4.79 8.2-9.5 8.16-1-.01-1.98-.17-2.92-.48-.25-.08-.53.03-.62.28-.52 1.32.29 2.84 1.7 3.05.36.06.73.1 1.1.12 2.16.14 4.24-.3 6.09-1.18-1.22 3.95-1.79 8.11-1.76 12.72.01 1.92.02 3.37.02 4.49h-38.64c-.24-.79-.38-1.63-.38-2.5v-1.99c.03-4.59-.53-8.73-1.74-12.67 1.6.74 3.37 1.16 5.24 1.16 3.33 0 6.47-1.31 8.78-3.6 1-.99.77-2.68-.41-3.45-.22-.15-.52-.08-.67.13-1.8 2.46-4.64 3.92-7.7 3.92-5.66 0-10.19-4.98-9.41-10.79.49-3.71 3.21-6.87 6.82-7.86 1.02-.28 2.06-.37 3.09-.32-.61 1.35-1.05 2.79-1.29 4.3-.22 1.4.89 2.66 2.31 2.66.27 0 .48-.22.49-.49.25-7.48 6.43-13.5 13.99-13.5 7.72 0 14 6.28 14 14 0 1.07-.12 2.13-.36 3.16-.1.45-.23.91-.38 1.35-.09.26.04.53.29.63l.32.12c1.14.43 2.42-.22 2.7-1.4 0-.01 0-.01.01-.02.27-1.25.42-2.54.42-3.84 0-2.48-.55-4.84-1.51-6.97.17-.01.34-.03.51-.03 5.68 0 10.21 5.01 9.41 10.84z"/></svg>