<svg enable-background="new 0 0 60 60" viewBox="0 0 60 60" xmlns="http://www.w3.org/2000/svg"><path d="m27.47 7.51h-8.49c-.28 0-.5.22-.5.5v5.56c0 .28.22.5.5.5 1.38 0 2.5-1.12 2.5-2.5v-.56c0-.28.22-.5.5-.5h3.49c1.38 0 2.5-1.12 2.5-2.5 0-.27-.23-.5-.5-.5z"/><path d="m27.47 17.51h-8.49c-.28 0-.5.22-.5.5v5.56c0 .28.22.5.5.5 1.38 0 2.5-1.12 2.5-2.5v-1.06h3.99c1.38 0 2.5-1.12 2.5-2.5 0-.27-.23-.5-.5-.5z"/><path d="m32.51 14.03c1.38 0 2.5-1.12 2.5-2.5v-.56c0-.28.22-.5.5-.5h3.49c1.38 0 2.5-1.12 2.5-2.5 0-.28-.22-.5-.5-.5h-8.49c-.28 0-.5.22-.5.5v5.56c0 .28.22.5.5.5z"/><path d="m32.51 24.03c1.38 0 2.5-1.12 2.5-2.5v-.56c0-.28.22-.5.5-.5h3.49c1.38 0 2.5-1.12 2.5-2.5 0-.28-.22-.5-.5-.5h-8.49c-.28 0-.5.22-.5.5v5.56c0 .28.22.5.5.5z"/><path d="m32.51 34.03c1.38 0 2.5-1.12 2.5-2.5v-1.06h3.99c1.38 0 2.5-1.12 2.5-2.5 0-.28-.22-.5-.5-.5h-8.49c-.28 0-.5.22-.5.5v5.56c0 .28.22.5.5.5z"/><path d="m49.53 34.3c-.54-.54-1.38-1.34-2.15-1.99v-28.73c0-1.1-.9-2-2-2h-30.92c-1.1 0-2 .9-2 2v14.98c-1.27-.59-2.83.3-2.83 1.81v26.55c0 6.35 5.15 11.5 11.5 11.5h26.99c1.1 0 2-.9 2-2v-17.89c.01-.14.01-.28 0-.43v-2.39c0-.53-.22-1.04-.59-1.41zm-34.07-29.72h28.92v30.02c-6.54-1.05-11.78 3.02-14.11 5.27-4.81-6.35-11.12-13.59-14.8-17.72v-17.57zm31.66 50.84h-26c-4.69 0-8.5-3.81-8.5-8.5v-23.45c3.78 4.23 11.2 12.7 16.29 19.61.58.79 1.75.82 2.37.06.27-.33 6.72-8.02 14.8-5 0 0 .32.12 1.03.51z"/></svg>