<svg enable-background="new 0 0 60 60" viewBox="0 0 60 60" xmlns="http://www.w3.org/2000/svg"><path d="m30 1.5c-15.71 0-28.5 12.79-28.5 28.5s12.79 28.5 28.5 28.5 28.5-12.79 28.5-28.5-12.79-28.5-28.5-28.5zm0 54c-14.06 0-25.5-11.44-25.5-25.5s11.44-25.5 25.5-25.5 25.5 11.44 25.5 25.5-11.44 25.5-25.5 25.5z"/><path d="m36.59 10.62c-.99-.42-2.09.3-2.09 1.38v36.49c0 1.38 1.12 2.5 2.5 2.5.28 0 .5-.22.5-.5v-14.98c0-.54.22-1.05.6-1.43.34-.34.71-.73 1.04-1.1 3.59-4.19 5.06-9.56 3.94-14.38-.87-3.72-3.17-6.56-6.49-7.98zm.91 19.61v-15.54c1.3 1.14 2.22 2.71 2.66 4.59.82 3.54-.19 7.65-2.66 10.95z"/><path d="m30.99 11c-1.37.01-2.49 1.12-2.49 2.5v6.5c0 1.95-1.26 3.62-3 4.24v-12.74c0-.28-.23-.5-.51-.5-1.37.01-2.49 1.12-2.49 2.5v10.72c-1.78-.66-3-2.44-3-4.42v-8.3c0-.28-.23-.5-.51-.5-1.37.01-2.49 1.12-2.49 3.22v5.52c0 3.18 1.91 6.07 4.73 7.22.75.3 1.27.99 1.27 1.79v19.74c0 1.38 1.12 2.5 2.5 2.5.28 0 .5-.22.5-.5v-21.6c0-.82.47-1.6 1.24-1.91 2.78-1.1 4.76-3.81 4.76-6.98v-8.5c0-.28-.23-.5-.51-.5z"/></svg>