<svg enable-background="new 0 0 60 60" viewBox="0 0 60 60" xmlns="http://www.w3.org/2000/svg"><path d="m12.5 55.49-8-.01v-27.17c-.01-2.03-.01-3.94 1.35-5.45l.08-.09c2.23-2.48 3.27-4.52 3.27-6.43v-11.84h2.58v11.84c0 1.91 1.06 3.98 3.35 6.51 1.37 1.52 1.37 3.44 1.36 5.47v.18c0 1.38 1.12 2.5 2.5 2.5.28 0 .5-.22.5-.5v-2.18c.01-2.27.02-5.1-2.14-7.48-1.71-1.89-2.57-3.41-2.57-4.5v-12.84c0-1.1-.9-2-2-2h-4.57c-1.1 0-2 .9-2 2v12.84c0 .75-.43 2.13-2.5 4.42l-.08.09c-2.14 2.37-2.14 5.2-2.13 7.47v28.87c0 .71.58 1.29 1.29 1.29l11.71.02c.28 0 .5-.22.5-.5 0-1.39-1.12-2.51-2.5-2.51z"/><path d="m43.49 35.19.11-.14c.17-.22.13-.55-.1-.72-1.28-.91-2.71-1.68-4.28-2.29-1.96-.76-4.04-2.81-4.04-5.12v-9.24c0-.66-.53-1.19-1.19-1.19h-6.01c-.66 0-1.19.53-1.19 1.19v9.24c0 2.33-2.06 4.38-3.99 5.12-6.36 2.46-10.3 7.47-10.3 13.09 0 5.17 3.31 9.84 8.86 12.48.42.2 1.72.66 2.21.83.13.04.25.06.39.06h14.54c.28 0 .5-.22.5-.5 0-1.38-1.12-2.5-2.5-2.5h-12.25c-.59-.21-1.37-.49-1.61-.6-4.47-2.13-7.14-5.78-7.14-9.77 0-4.35 3.21-8.29 8.37-10.29 2.94-1.13 5.91-4.22 5.91-7.92v-7.42h2.39v7.43c0 3.86 3.09 6.81 5.96 7.92.76.29 1.49.63 2.17 1.01 1.08.6 2.44.31 3.19-.67z"/><path d="m57 41.14c-.27-.32-.53-.6-.81-.9-.34-.37-.77-.82-.97-1.12l-.07-.1v-14.87c0-.91-.74-1.65-1.65-1.65h-6c-.91 0-1.65.74-1.65 1.65v14.87l-.06.09c-.2.28-.57.69-1 1.15-.29.3-.53.57-.74.82-1.55 1.85-1.55 3.97-1.55 5.38v10.39c0 .91.74 1.65 1.65 1.65h12.7c.91 0 1.65-.74 1.65-1.65v-10.38c0-1.41.01-3.54-1.5-5.33zm-1.5 14.36h-10v-9.04c0-1.2 0-2.44.84-3.44.18-.21.39-.44.69-.76.46-.5.91-.98 1.23-1.44l.59-.86v-14.46h3.3v14.44l.58.86c.31.45.73.92 1.27 1.49.24.25.46.49.7.77.81.96.8 2.2.8 3.4z"/></svg>