<svg enable-background="new 0 0 60 60" viewBox="0 0 60 60" xmlns="http://www.w3.org/2000/svg"><path d="m18.96 33c.27 0 .49-.22.49-.49v-8.49l.05-5.02c0-.21-.02-2.07-.83-3.67-.54-1.09-1.54-2.1-2.17-2.68v-9.15c0-1.1-.9-2-2-2h-8c-1.1 0-2 .9-2 2v9.15c-.63.58-1.63 1.59-2.18 2.68-.8 1.6-.82 3.46-.82 3.68l.05 21.99c0 6.34 5.16 11.5 11.5 11.5h1.45c.28 0 .5-.22.5-.5v-.02c0-1.36-1.09-2.47-2.45-2.5-.06 0-.11 0-.13 0-4.4-.32-7.87-3.99-7.87-8.48v-15.5h11.93l-.02 4.99c0 1.39 1.12 2.51 2.5 2.51zm-2.47-10.5h-11.96l-.03-3.5c0-.34.09-1.5.51-2.33.3-.61.96-1.29 1.46-1.75.06-.05.18-.16.32-.27.46-.38.72-.94.72-1.54v-8.61h6v8.61c0 .59.26 1.15.72 1.53.16.13.31.26.38.33.48.46 1.11 1.12 1.4 1.7.41.82.51 1.96.51 2.32z"/><path d="m58.43 32.54-2.93-11.73v-5.31c0-1.1-.9-2-2-2h-17c-1.1 0-2 .9-2 2v5.31l-1.58 6.34c-.07.27.1.54.36.61 1.34.34 2.7-.48 3.03-1.82l.86-3.44h15.66l2.25 9h-15.58c-.28 0-.5.22-.5.5 0 1.38 1.12 2.5 2.5 2.5h13.79l-1.94 15h-5.85c-1.38 0-2.5 1.12-2.5 2.5 0 .28.22.5.5.5h8.73c1.01 0 1.85-.75 1.98-1.74l2.26-17.47c.04-.25.02-.5-.04-.75zm-5.93-13.04h-15v-3h15z"/><path d="m39.05 37.92c-1.22-1.18-2.76-1.76-4.71-1.76-1.16 0-2.41.43-3.25.79-.39.17-.92.21-1.07.21-.12 0-.7-.04-1.11-.21-.84-.36-2.09-.79-3.25-.79-1.95 0-3.49.58-4.71 1.76-1.08 1.05-1.6 2.2-2.05 3.62-.67 2.09-.8 4.35-.37 6.78.87 3.9 2.88 7.94 4.56 9.21l.1.07c.95.6 1.78.72 2.41.81.5.07 2.43.09 3.61.09h.11 1.35c1.18-.01 3.22-.01 3.81-.1.55-.08 1.38-.2 2.33-.8l.1-.07c1.69-1.26 3.69-5.31 4.58-9.27.41-2.36.29-4.62-.38-6.72-.47-1.41-.99-2.57-2.06-3.62zm-.51 9.75c-.79 3.53-2.51 6.71-3.39 7.43-.39.23-.72.28-1.18.35-.3.04-1.94.04-3.3.05h-1.35c-1.35 0-3-.02-3.37-.07-.38-.06-.71-.1-1.1-.34-.88-.72-2.6-3.9-3.38-7.36-.33-1.88-.23-3.66.29-5.28.34-1.07.64-1.76 1.28-2.38.46-.45 1.14-.91 2.62-.91.5 0 1.26.2 2.08.55 1.02.43 2.14.45 2.28.45.12 0 1.23-.02 2.24-.45.82-.35 1.58-.55 2.08-.55 1.49 0 2.16.46 2.62.91.64.62.94 1.31 1.28 2.38.52 1.63.61 3.41.3 5.22z"/><path d="m25.55 28.97c.59.24 1.23.59 1.73 1.09.83.83 1.1 1.93 1.19 2.52.04.25.25.43.5.42h1.03.97c.29 0 .53-.25.5-.55-.1-.95-.51-2.95-2.07-4.51-1.55-1.55-3.69-2.14-4.68-2.34-.29-.06-.55.14-.59.43l-.04.35c-.15 1.09.43 2.18 1.46 2.59z"/></svg>