<svg enable-background="new 0 0 60 60" viewBox="0 0 60 60" xmlns="http://www.w3.org/2000/svg"><path d="m11.05 50.6c-3.73-.9-6.5-4.26-6.5-8.26v-16.84h11.93l-.02 5c0 1.38 1.11 2.5 2.49 2.5.28 0 .5-.22.5-.5v-8.49l.05-5.01c0-.21-.02-2.07-.83-3.67-.54-1.09-1.54-2.1-2.17-2.68v-9.15c0-1.1-.9-2-2-2h-8c-1.1 0-2 .9-2 2v9.15c-.63.58-1.63 1.59-2.17 2.68-.8 1.6-.83 3.46-.83 3.68l.05 23.32c0 6.17 4.88 11.22 10.98 11.49.28.01.52-.22.52-.51v-.27c0-1.18-.85-2.17-2-2.44zm-6.55-31.6c0-.37.1-1.51.51-2.33.28-.56.87-1.2 1.35-1.66.08-.07.24-.22.43-.37.45-.38.71-.94.71-1.53v-8.61h6v8.61c0 .6.27 1.16.72 1.54.08.06.14.11.17.14.5.45 1.27 1.22 1.6 1.88.41.82.51 1.96.51 2.32l-.01 3.51h-11.96z"/><path d="m25.14 32.46.21-.11c1.07-.58 1.58-1.83 1.19-2.98-.57-1.7-1.22-4.4-1.04-7.62.21-3.71 1.09-6.48 1.66-7.92 1.34.47 3.59 1.42 5.57 3.01 2.37 1.89 4.05 3.63 4.76 4.39-2.38 3.56-2.87 6.96-2.96 8.24-.03.29.2.53.49.53h.31c1.17 0 2.19-.8 2.44-1.94.44-1.98 1.59-5.16 4.58-7.96 3.67-3.44 10.03-5.4 13.13-6.2-.03 3.26-.16 9.81-.63 12.15-.31 1.56-.87 3.23-1.35 4.5-.46 1.24.1 2.62 1.3 3.16l.08.04c.26.12.55.01.66-.25.48-1.12 1.68-4.07 2.24-6.87.61-3.02.68-11.69.69-14.04v-.01c.01-1.25-1.15-2.19-2.37-1.92l-.08.02c-.81.18-2.29.54-4.06 1.1-.27-.81-.56-1.62-.87-2.41-1.34-3.4-3.6-6.02-4.5-6.97-.01-.01-.03-.03-.05-.05-.67-.69-1.74-.81-2.54-.28-.07.05-.13.09-.18.12-1.02.73-3.26 2.53-5.56 5.61-1.54-1.17-2.98-1.98-3.83-2.4-.08-.04-.2-.1-.34-.16-.88-.4-1.92-.12-2.48.67-.09.12-.16.23-.21.31-.58.9-1.56 2.64-2.45 5.1-.6-.24-1.13-.42-1.52-.54-.08-.02-.18-.05-.31-.09-.92-.26-1.9.17-2.33 1.02-.08.15-.14.28-.18.38-.64 1.45-1.87 4.81-2.13 9.51-.29 5.26 1.33 9.32 1.95 10.66.14.24.45.34.71.2zm19.85-27.38c.93 1.08 2.4 3.02 3.33 5.38.3.76.57 1.53.83 2.3-1.47.57-3 1.25-4.48 2.06-.78-1.1-2.06-2.79-3.78-4.68-.12-.13-.24-.24-.36-.36 1.73-2.34 3.43-3.88 4.46-4.7zm-11.36 3.26c1.25.67 3.33 1.96 5.04 3.83 1.54 1.69 2.72 3.23 3.45 4.25-.64.46-1.26.95-1.82 1.48-.33.31-.64.63-.94.95-.89-.94-2.53-2.56-4.77-4.35-.95-.76-1.95-1.39-2.9-1.91.68-1.92 1.42-3.36 1.94-4.25z"/><path d="m43 34.5h-12c-10.63 0-17.5 4.51-17.5 11.5v1c0 6.35 5.15 11.5 11.5 11.5h31.5c1.1 0 2-.9 2-2v-10.5c0-7.55-7.8-11.5-15.5-11.5zm12.5 21h-30.5c-4.69 0-8.5-3.81-8.5-8.5v-1c0-4.65 4.64-7.82 12-8.4v4.9c0 1.38 1.12 2.5 2.5 2.5.28 0 .5-.22.5-.5v-7h3v5c0 1.38 1.12 2.5 2.5 2.5.28 0 .5-.22.5-.5v-7h3v5c0 1.38 1.12 2.5 2.5 2.5.28 0 .5-.22.5-.5v-6.99c6.04.15 12 3.05 12 8.49z"/></svg>