<svg enable-background="new 0 0 60 60" viewBox="0 0 60 60" xmlns="http://www.w3.org/2000/svg"><path d="m57.71 35.71-1.41-1.41c-.2-.2-.51-.2-.71 0l-19.88 19.87c-.98.98-.98 2.56 0 3.54.2.2.51.2.71 0l21.29-21.29c.19-.2.19-.52 0-.71z"/><path d="m39 44.5c3.03 0 5.5-2.47 5.5-5.5s-2.47-5.5-5.5-5.5-5.5 2.47-5.5 5.5 2.47 5.5 5.5 5.5zm0-8c1.38 0 2.5 1.12 2.5 2.5s-1.12 2.5-2.5 2.5-2.5-1.12-2.5-2.5 1.12-2.5 2.5-2.5z"/><path d="m53 47.5c-3.03 0-5.5 2.47-5.5 5.5s2.47 5.5 5.5 5.5 5.5-2.47 5.5-5.5-2.47-5.5-5.5-5.5zm0 8c-1.38 0-2.5-1.12-2.5-2.5s1.12-2.5 2.5-2.5 2.5 1.12 2.5 2.5-1.12 2.5-2.5 2.5z"/><path d="m28.52 20.89-.07-.08c-1.55-1.85-2.34-3.35-2.34-4.46v-12.85c0-1.1-.9-2-2-2h-4.21c-1.1 0-2 .9-2 2v12.84c0 .87-.49 1.99-1.46 3.33-.08.11-.06.28.05.36 1.27.95 3.13.49 3.77-.96.43-.96.64-1.87.64-2.73v-11.84h2.21v11.84c0 1.87 1 3.96 3.05 6.4l.07.08c1.28 1.52 1.28 3.54 1.27 5.5v27.18h-5c-1.38 0-2.5 1.12-2.5 2.5 0 .28.22.5.5.5h8c1.1 0 2-.9 2-2v-28.18c.01-2.26.01-5.07-1.98-7.43z"/><path d="m16.24 24.86c-.28-.81-1.04-1.36-1.89-1.36h-8.69c-.85 0-1.62.55-1.89 1.36 0 .01-.01.03-.01.03-2.38 6.99-2.81 10.71-1.58 13.71.87 1.9 3.4 3.19 5.92 4.34.14.06.27.12.39.18v12.38h-3c-1.37 0-2.49 1.12-2.49 2.5 0 .28.22.5.5.5h13c.28 0 .5-.22.5-.5 0-1.38-1.12-2.5-2.5-2.5h-3v-12.37c.09-.04.17-.08.27-.12l.09-.04c2.43-1.1 5.09-2.43 5.97-4.35 1.23-2.99.81-6.74-1.58-13.74-.01-.01-.01-.02-.01-.02zm-9.86 1.64h7.24c.33.99.61 1.89.85 2.73-2.99-.43-5.98-.43-8.94 0 .24-.84.52-1.74.85-2.73zm8.69 10.92c-.46 1.01-3.47 2.37-4.46 2.81l-.09.04c-.17.08-.33.15-.48.22h-.08c-.19-.09-.4-.18-.62-.29-1.18-.54-3.96-1.81-4.41-2.8-.5-1.22-.57-2.79-.16-5.01 3.46-.65 6.95-.65 10.47-.01.4 2.25.33 3.82-.17 5.04z"/></svg>