<svg enable-background="new 0 0 60 60" viewBox="0 0 60 60" xmlns="http://www.w3.org/2000/svg"><path d="m28.5 40.5c0-3.31-2.69-6-6-6s-6 2.69-6 6 2.69 6 6 6 6-2.69 6-6zm-6 3c-1.65 0-3-1.35-3-3s1.35-3 3-3 3 1.35 3 3-1.35 3-3 3z"/><path d="m37.5 34.5c-3.31 0-6 2.69-6 6s2.69 6 6 6 6-2.69 6-6-2.69-6-6-6zm0 9c-1.65 0-3-1.35-3-3s1.35-3 3-3 3 1.35 3 3-1.35 3-3 3z"/><path d="m45 22.5c-3.31 0-6 2.69-6 6s2.69 6 6 6 6-2.69 6-6-2.69-6-6-6zm0 9c-1.65 0-3-1.35-3-3s1.35-3 3-3 3 1.35 3 3-1.35 3-3 3z"/><path d="m21 28.5c0-3.31-2.69-6-6-6s-6 2.69-6 6 2.69 6 6 6 6-2.69 6-6zm-6 3c-1.65 0-3-1.35-3-3s1.35-3 3-3 3 1.35 3 3-1.35 3-3 3z"/><path d="m24 28.5c0 3.31 2.69 6 6 6s6-2.69 6-6-2.69-6-6-6-6 2.69-6 6zm9 0c0 1.65-1.35 3-3 3s-3-1.35-3-3 1.35-3 3-3 3 1.35 3 3z"/><path d="m30 46.5c-3.31 0-6 2.69-6 6s2.69 6 6 6 6-2.69 6-6-2.69-6-6-6zm0 9c-1.65 0-3-1.35-3-3s1.35-3 3-3 3 1.35 3 3-1.35 3-3 3z"/><path d="m14.03 20h.46c.99 0 1.94-.56 2.29-1.49 1.18-3.12 5.98-5.59 11.74-5.96-.01.15-.02.3-.02.45v6.5c0 .28.22.5.5.5 1.38 0 2.5-1.12 2.5-2.5v-4.5c0-.15.01-.3.02-.44 5.74.38 10.52 2.85 11.7 5.95.35.93 1.3 1.49 2.29 1.49h.46c.29 0 .53-.24.51-.53-.38-5.16-6.37-9.22-14.27-9.87 1.31-3 4.3-5.1 7.79-5.1h2.5c1.38 0 2.5-1.12 2.5-2.5 0-.28-.22-.5-.5-.5h-4.5c-5.14 0-9.49 3.37-10.96 8.03-8.51.3-15.11 4.51-15.52 9.94-.02.29.22.53.51.53z"/></svg>