<svg enable-background="new 0 0 60 60" viewBox="0 0 60 60" xmlns="http://www.w3.org/2000/svg"><path d="m49.49 18.85c-.14-3.4-4.99-5.66-11.2-6.69-.02-.05-.05-.11-.07-.16-.78-1.68-1.2-2.71-.56-3.75.54-.88.54-1.99-.08-2.82l-.08-.1c-.17-.22-.5-.27-.72-.09-2.66 2.25-2.33 4.61-1.61 6.5-1.21-.12-2.44-.19-3.69-.23-.1-.19-.2-.38-.3-.56-1.23-2.31-2.06-3.87-.43-5.62.78-.83.91-2.08.28-3.03-.16-.23-.48-.3-.71-.13-4.57 3.27-3.27 6.69-1.89 9.35-1.45.04-2.89.14-4.3.3-.72-1.57-1.09-2.57-.48-3.57.54-.88.54-1.99-.09-2.82l-.08-.1c-.17-.22-.5-.27-.72-.09-2.88 2.44-2.25 5.01-1.42 6.97-6.04 1.06-10.72 3.3-10.85 6.64-.88 5.06.51 10.1 3.95 14.22 1.8 2.16 4.09 3.93 6.6 5.2l-5.21 17.87c-.08.27.07.54.34.62 1.17.34 2.39-.33 2.73-1.5l4.64-15.91c1.66.59 3.38.96 5.1 1.09v13.06c0 .28.22.5.5.5 1.21 0 2.2-.98 2.2-2.2v-11.36c1.72-.13 3.44-.5 5.1-1.09l5.12 17.54c.08.27.35.42.62.34 1.17-.34 1.84-1.56 1.5-2.73l-4.73-16.23c2.51-1.27 4.79-3.04 6.6-5.2 3.43-4.11 4.82-9.16 3.94-14.22zm-26.96-3.8c.16.63.14 1.16-.16 1.69-.51.89-.52 1.98.1 2.8l.09.12c.17.23.51.27.72.09 1.98-1.69 2.24-3.45 1.93-5.03 1.44-.13 2.99-.22 4.68-.22.4 1.16.36 2.16-.63 3.22-.75.81-.83 2.04-.22 2.96l.01.01c.16.23.48.3.71.13 2.92-2.1 3.36-4.27 2.93-6.26 1.36.07 2.63.18 3.8.34.2.69.2 1.26-.12 1.83-.51.89-.52 1.98.1 2.8l.09.12c.17.23.51.27.72.09 1.71-1.45 2.13-2.96 2.02-4.36 4.7 1 7.2 2.61 7.2 3.61 0 1.53-5.82 4.5-16.5 4.5s-16.5-2.97-16.5-4.5c0-1.11 3.15-3 9.03-3.94zm20.71 16.1c-1.43 1.71-3.2 3.13-5.14 4.2l-.66-2.25c-.08-.27-.35-.42-.62-.34l-1.63.48c-.27.08-.42.35-.34.62l.76 2.62c-1.82.66-3.73 1.03-5.61 1.03s-3.79-.36-5.61-1.03l.76-2.62c.08-.27-.07-.54-.34-.62l-1.63-.48c-.27-.08-.54.07-.62.34l-.66 2.25c-1.95-1.07-3.72-2.49-5.14-4.2-2.01-2.41-3.16-5.18-3.43-8.07 3.61 2.26 10.16 3.42 16.67 3.42s13.06-1.16 16.67-3.42c-.27 2.89-1.43 5.67-3.43 8.07z"/></svg>