<svg enable-background="new 0 0 60 60" viewBox="0 0 60 60" xmlns="http://www.w3.org/2000/svg"><path d="m12.56 17.69.38.37c.42.42.99 1.17 1.27 2.3.19.77.26 2.26.28 3.15.01.27.23.49.5.49h2c.28 0 .51-.23.5-.51-.02-.9-.09-2.72-.37-3.86-.45-1.8-1.37-3.01-2.06-3.7l-.41-.4c-.73-.71-2.26-2.18-2.71-3.08-.45-.89-.6-2.69-.06-4.02.27-.68.78-1.67 1.25-2.56.64-1.19.22-2.67-.95-3.35l-.04-.02c-.25-.14-.55-.06-.69.18-.54.95-1.81 3.25-2.37 4.63-.79 1.98-.72 4.7.16 6.48.64 1.26 2.05 2.67 3.32 3.9z"/><path d="m21.56 17.69.38.37c.42.42.99 1.17 1.27 2.3.19.77.26 2.26.28 3.15.01.27.23.49.5.49h2c.28 0 .51-.23.5-.51-.02-.9-.09-2.72-.37-3.86-.45-1.8-1.37-3.01-2.06-3.7l-.41-.4c-.73-.71-2.26-2.19-2.71-3.08s-.6-2.69-.06-4.02c.27-.68.77-1.67 1.25-2.56.64-1.19.22-2.67-.95-3.35l-.04-.02c-.25-.14-.55-.06-.69.18-.54.95-1.81 3.25-2.37 4.63-.79 1.98-.72 4.7.16 6.48.64 1.26 2.05 2.67 3.32 3.9z"/><path d="m30.61 17.7.38.37c.42.42.99 1.17 1.27 2.3.19.77.26 2.26.28 3.15.01.27.23.49.5.49h2c.28 0 .51-.23.5-.51-.02-.9-.09-2.72-.37-3.86-.45-1.8-1.37-3.01-2.06-3.7l-.41-.4c-.74-.71-2.26-2.19-2.71-3.09-.45-.89-.6-2.69-.06-4.02.27-.68.78-1.67 1.25-2.56.64-1.19.21-2.67-.95-3.35l-.04-.02c-.25-.14-.55-.06-.69.18-.54.95-1.81 3.25-2.37 4.63-.79 1.98-.72 4.7.16 6.48.63 1.26 2.04 2.68 3.32 3.91z"/><path d="m42.5 30.5v-2c0-1.1-.9-2-2-2h-31c-1.1 0-2 .9-2 2v18.5c0 6.35 5.15 11.5 11.5 11.5h12c5.12 0 9.47-3.37 10.95-8h.2c5.32 0 9.97-4.01 10.33-9.31.39-5.83-4.24-10.69-9.98-10.69zm-3 16.5c0 4.69-3.81 8.5-8.5 8.5h-12c-4.69 0-8.5-3.81-8.5-8.5v-17.5h29zm3 .5h-.03c.01-.17.03-.33.03-.5v-13.5c3.86 0 7 3.14 7 7s-3.14 7-7 7z"/></svg>