<svg enable-background="new 0 0 60 60" viewBox="0 0 60 60" xmlns="http://www.w3.org/2000/svg"><circle cx="34" cy="22" r="2"/><path d="m42.5 29.5h-3.89c3.03-1.64 4.94-4.14 4.94-7 0-4.75-5.26-8.52-12.21-8.96v-8.34c0-1.21-.98-2.2-2.2-2.2-.28 0-.5.22-.5.5v10.04c-6.93.44-12.18 4.22-12.18 8.96 0 2.86 1.91 5.36 4.94 7h-3.9c-1.1 0-2 .9-2 2v15.5c0 6.35 5.15 11.5 11.5 11.5h15.5c1.1 0 2-.9 2-2v-25c0-1.1-.9-2-2-2zm-23.03-7c0-2.99 4.08-5.55 9.18-5.94v1.94c0 .28.22.5.5.5h1.7c.28 0 .5-.22.5-.5v-1.94c5.11.39 9.21 2.95 9.21 5.94 0 3.25-4.83 6-10.55 6-5.71 0-10.54-2.75-10.54-6zm17.03 12.5c0 .83-.67 1.5-1.5 1.5s-1.5-.67-1.5-1.5.67-1.5 1.5-1.5 1.5.67 1.5 1.5zm-16.5 15.5c-.26 0-.51-.02-.77-.06-.47-1.05-.73-2.22-.73-3.44v-7.27c.49-.14.99-.23 1.5-.23 3.03 0 5.5 2.47 5.5 5.5s-2.47 5.5-5.5 5.5zm1.4 2.88c4.02-.67 7.1-4.17 7.1-8.38 0-4.69-3.81-8.5-8.5-8.5-.51 0-1.01.05-1.5.14v-4.14h12.76c-.48.72-.76 1.58-.76 2.5 0 2.48 2.02 4.5 4.5 4.5s4.5-2.02 4.5-4.5c0-.92-.28-1.78-.76-2.5h2.76v15.09c-.33-.06-.66-.09-1-.09-3.31 0-6 2.69-6 6 0 .69.13 1.36.36 2h-7.86c-2.15 0-4.11-.81-5.6-2.12zm16.87 2.12c-.49-.55-.77-1.26-.77-2 0-1.65 1.35-3 3-3 .34 0 .68.07 1 .18v4.82z"/></svg>