<svg viewBox="0 0 60 60" xmlns="http://www.w3.org/2000/svg"><path d="M57.86 30.75c-.28-.25-.59-.54-.86-.77-1.73-1.51-5.36-4.48-8.76-5.98-1.51-.67-3.45-1.23-5.74-1.68v-5.46c-.01-1.38-1.46-2.28-2.7-1.67-.26.12-.71.28-1.29.39v-1.22c1.37-.3 3-1.27 3-4.46 0-2.84-1.36-8.41-4.5-8.41s-4.5 5.57-4.5 8.41c0 3.19 1.63 4.16 3 4.46v1.22c-.57-.11-1-.26-1.26-.38-1.25-.64-2.74.27-2.74 1.68V23.32L2.42 35.62c-.56.23-.92.78-.92 1.38v8.78c0 1.33.17 2.66.6 3.92a11.51 11.51 0 0011.96 7.78l42.62-3.95c1.03-.1 1.82-.96 1.82-1.99V32.22c0-.55-.23-1.09-.64-1.47zM37 4.62c.59.67 1.5 3.07 1.5 5.29 0 1.59-.29 1.59-1.5 1.59s-1.5 0-1.5-1.59c0-2.23.91-4.62 1.5-5.29zm-2.5 13.83c.69.17 1.52.28 2.5.28s1.81-.12 2.5-.28v8.87c-.51.2-1.34.41-2.5.41s-1.99-.22-2.5-.41zm-2.08 11.16c.21.13.41.25.58.33.81.37 2.14.79 4.01.79 1.86 0 3.2-.43 4-.79.16-.07.37-.2.58-.33.57-.36.92-1 .92-1.68v-2.55c1.81.39 3.36.85 4.53 1.37 2.18.96 4.55 2.68 6.31 4.09L12.5 34.61l19-8.03v1.34c0 .69.34 1.33.92 1.69zM13.78 54.5c-2.55.23-4.98-.64-6.8-2.46-1.65-1.65-2.48-3.95-2.48-6.28v-7.39l51-4.72v16.99z"/><path d="M50.57 44.45l-3.87 2.22-4.45-1.61c-.55-.2-1.17-.15-1.68.15l-4.1 2.35-4.45-1.61a1.96 1.96 0 00-1.67.15l-4.1 2.35-4.45-1.61c-.55-.2-1.17-.15-1.68.15l-4.1 2.36-2.31-.84c-1.3-.47-2.73.2-3.2 1.5-.09.26.04.55.3.64l4.63 1.67c.55.2 1.17.15 1.68-.15l4.1-2.36 4.45 1.61c.55.2 1.17.15 1.68-.15l4.1-2.36 4.45 1.61c.55.2 1.17.15 1.68-.15l4.1-2.35 4.45 1.61c.55.2 1.17.15 1.68-.15l2.54-1.46c1.2-.69 1.61-2.22.92-3.41a.535.535 0 00-.7-.16zM50.57 36.95l-3.87 2.22-4.45-1.61c-.55-.2-1.17-.15-1.68.15l-4.1 2.35-4.45-1.61c-.55-.2-1.17-.15-1.68.15l-4.1 2.35-4.45-1.61c-.55-.2-1.17-.15-1.68.15l-4.1 2.35L13.7 41c-1.3-.47-2.73.2-3.2 1.5-.09.26.04.55.3.64l4.63 1.67c.55.2 1.17.15 1.68-.15l4.1-2.35 4.45 1.61c.55.2 1.17.15 1.68-.15l4.1-2.35 4.45 1.61c.55.2 1.17.15 1.68-.15l4.1-2.35 4.45 1.61c.55.2 1.17.15 1.68-.15l2.54-1.46c1.2-.69 1.61-2.22.92-3.41a.513.513 0 00-.69-.17z"/></svg>