<svg enable-background="new 0 0 60 60" viewBox="0 0 60 60" xmlns="http://www.w3.org/2000/svg"><path d="m42.1 10.76c-4.52 0-8.91 1.7-12.03 4.25-2.95-2.5-7.18-4.25-12.04-4.25-9.08 0-16.47 7.03-16.47 15.68 0 6.16 2.58 11.84 7.26 16 5.19 4.62 12.62 7.06 21.48 7.06 19.53 0 28.27-11.58 28.27-23.06 0-8.65-7.39-15.68-16.47-15.68zm-12.09 8.54c.95 1.28 1.49 2.64 1.49 3.93 0 .88-.57 1.94-1.56 3.07-.91-1.08-1.44-2.12-1.44-3.07 0-1.29.54-2.65 1.51-3.93zm-22.27 17.48c-2.15-3.14-3.18-6.75-3.18-10.34 0-6.99 6.04-12.68 13.47-12.68 3.91 0 7.42 1.42 9.87 3.39-1.51 1.85-2.4 3.94-2.4 6.07 0 1.7.86 3.43 2.3 5.1-4.84 3.99-13.51 8.13-20.06 8.46zm22.56 9.72c-9.44 0-16.11-2.84-20.29-6.99 6.08-1.03 14.76-4.65 19.99-9.05 5.3 4.46 14.14 8.13 20.24 9.09-4.87 4.74-12.42 6.95-19.94 6.95zm22.26-9.71c-5.84-.23-15.28-4.24-20.42-8.4 1.48-1.69 2.37-3.44 2.37-5.17 0-2.05-.85-4.17-2.36-6.08 2.48-1.96 6.02-3.38 9.96-3.38 7.43 0 13.47 5.69 13.47 12.68-.01 4.11-1.12 7.55-3.02 10.35z"/></svg>