<svg enable-background="new 0 0 60 60" viewBox="0 0 60 60" xmlns="http://www.w3.org/2000/svg"><circle cx="16.5" cy="43.5" r="6"/><path d="m32 34.57c-2.44 0-4.43 1.99-4.43 4.43s1.99 4.43 4.43 4.43 4.43-1.99 4.43-4.43-1.99-4.43-4.43-4.43z"/><path d="m31.28 28c0-1.81-1.47-3.28-3.28-3.28s-3.28 1.47-3.28 3.28 1.47 3.28 3.28 3.28 3.28-1.47 3.28-3.28z"/><path d="m53.86 7.79 3.74-1.87c.61-.3.74-1.11.27-1.59l-2.16-2.23c-.48-.49-1.31-.37-1.61.25l-1.88 3.79c-3.27-2.88-7.54-4.64-12.22-4.64-3.94 0-7.71 1.23-10.88 3.55-.77.56-18.29 14.19-19.04 14.77l.02.03c-5.21 3.92-8.6 10.14-8.6 17.15 0 11.86 9.65 21.5 21.5 21.5 7.01 0 13.23-3.39 17.16-8.6l.03.02c.58-.75 14.21-18.27 14.77-19.04 2.32-3.18 3.55-6.94 3.55-10.88-.01-4.68-1.77-8.95-4.65-12.21zm-30.86 47.71c-10.2 0-18.5-8.3-18.5-18.5s8.3-18.5 18.5-18.5 18.5 8.3 18.5 18.5-8.3 18.5-18.5 18.5zm29.53-26.38c-.27.37-4.27 5.52-8.22 10.61.11-.9.19-1.8.19-2.73 0-11.85-9.64-21.5-21.5-21.5-.93 0-1.83.08-2.73.19 5.09-3.96 10.24-7.95 10.61-8.22 2.67-1.94 5.82-2.97 9.12-2.97 8.55 0 15.5 6.95 15.5 15.5 0 3.3-1.03 6.45-2.97 9.12z"/></svg>