<svg enable-background="new 0 0 60 60" viewBox="0 0 60 60" xmlns="http://www.w3.org/2000/svg"><path d="m56.5 32.5h-53c-1.11 0-2.01.9-2 2.01l.02 5c.01 1.1.9 1.99 2 1.99h1.1l.02 3.5c.02 6.3 5.19 11.46 11.49 11.47l27.71.02h.01c6.29 0 11.46-5.14 11.5-11.43l.02-3.56h1.13c1.1 0 2-.9 2-2v-5c0-1.1-.9-2-2-2zm-1 6h-1.13c-1.1 0-1.99.89-2 1.99l-.03 4.55c-.03 4.65-3.85 8.45-8.5 8.45h-.01l-27.71-.02c-4.67 0-8.48-3.81-8.49-8.48l-.01-4.5c0-1.1-.9-1.99-2-1.99h-1.1l-.01-3h50.99z"/><path d="m3.15 30.36c.14.24.46.32.7.16l.25-.16c1.02-.65 1.43-1.93.97-3.05-.12-.3-.21-.54-.24-.65-.9-3.24.04-6.43 2.58-8.63l2.45 1.09c1.12.5 2.42-.11 2.74-1.29l.66-2.39c.92-.12 1.82-.09 2.67.09.2.04.4.1.59.16 1.09.34 2.27-.17 2.88-1.14l.12-.19c.15-.24.08-.57-.17-.71-2-1.13-4.28-1.53-6.65-1.17-.1.01-.36.07-.66.13-.73.16-1.31.7-1.51 1.42l-.52 1.87-1.93-.86c-.67-.3-1.45-.21-2.03.24-.33.25-.63.49-.71.56-3.7 3.27-4.85 8.31-2.92 13.04.22.52.46 1.01.73 1.48z"/><path d="m23.49 30.39.17-.07c1.11-.49 1.74-1.71 1.42-2.88-1.29-4.87-.12-10.34.53-12.72.66.14 1.53.37 2.53.71 2.29.77 5.42 2.24 7.93 4.82-.02.06-.06.1-.08.16-1.54 4.07-.78 7.51.23 9.81.11.26.42.36.67.24l.22-.1c1.08-.53 1.62-1.74 1.32-2.9-.42-1.62-.51-3.65.35-5.92 3.08-7.22 13.04-8.5 16.59-8.72.29 2.56.5 8.61-2.94 13.53-.23.38-.48.74-.74 1.07-.73.94-.69 2.26.09 3.16l.16.18c.19.21.52.24.72.04.87-.82 1.65-1.79 2.27-2.82 4.08-5.83 3.75-12.85 3.39-15.72-.03-.22-.08-.52-.13-.83-.17-.97-1.02-1.67-2-1.66-.31 0-.6.01-.81.02-1.27.07-3.35.26-5.71.79-1.61-2.81-3.55-4.87-4.66-5.93l-.58-.49c-.74-.63-1.83-.63-2.58-.01-.23.19-.44.37-.59.51-.96.87-2.51 2.39-4.05 4.38-1.51-1.12-2.88-1.9-3.73-2.33-.12-.06-.29-.14-.48-.23-.88-.4-1.94-.11-2.48.69-.19.28-.38.56-.51.77-.58.95-1.42 2.43-2.21 4.24-.88-.25-1.63-.42-2.16-.52-.11-.02-.26-.05-.43-.07-.96-.14-1.88.43-2.19 1.35-.06.18-.11.34-.14.42-.76 2.55-2.66 10.25-.06 16.77.1.25.41.37.67.26zm19.64-23.38c.89.87 2.28 2.4 3.54 4.41-1.6.54-3.21 1.27-4.73 2.22-.72-.93-1.53-1.83-2.43-2.68 1.35-1.75 2.74-3.13 3.62-3.95zm-10.61 2.58c.93.5 2.33 1.35 3.82 2.57 1.24 1.02 2.32 2.13 3.22 3.3-.69.63-1.34 1.32-1.92 2.1-2.25-2.12-4.8-3.51-6.99-4.4.67-1.51 1.37-2.75 1.87-3.57z"/></svg>