<svg enable-background="new 0 0 60 60" viewBox="0 0 60 60" xmlns="http://www.w3.org/2000/svg"><path d="m55.85 21.64c-.44-.9-.78-1.62-.83-2-.18-1.62-1.26-5.67-2.4-7.15l-.41-.43c-.52-.45-1.26-.82-2.53-1.4-.91-.41-1.85-.84-2.33-1.32-.31-.3-.76-.82-1.29-1.42-2.01-2.28-2.98-3.27-3.73-3.75l-.4-.26-.46-.12c-.63-.17-1.46-.18-2.68-.16-.25.01-.5.01-.73.01-.52 0-1.16-.02-1.57-.19l-.34-.14c-2.08-.85-4.44-1.73-6.26-1.73-1.71.03-4.03.89-6.08 1.73l-.31.14c-.42.17-1.06.19-1.58.19-.23 0-.47 0-.77-.01l-.03 1.5-.07-1.5c-.24 0-.48-.01-.72-.01-1.05 0-1.54.09-1.85.18l-.44.12-.38.25c-.84.54-2.01 1.79-3.78 3.8-.54.61-.96 1.09-1.25 1.38-.48.48-1.43.9-2.34 1.32-1.29.59-2 .95-2.52 1.39l-.41.43c-1.14 1.48-2.22 5.53-2.4 7.15-.04.39-.36 1.03-.83 2.01-1.77 3.65-5.07 10.45.27 16.68 2.17 2.53 5.29 5.22 8.59 7.73.41 4.12 1.31 10.24 3.04 11.72.59.5 1.66.71 3.03.71 2.93 0 7.21-.95 10.92-1.95h.01l.03-.01c3.72 1.01 8.02 1.96 10.96 1.96 1.37 0 2.44-.21 3.03-.71 1.74-1.48 2.63-7.65 3.05-11.77 3.28-2.49 6.37-5.16 8.53-7.68 5.34-6.24 2.04-13.04.26-16.69zm-37.89 33.8c-.55-.76-1.18-3.73-1.64-6.98 3.51 2.46 6.95 4.59 9.46 6.01-3.54.78-6.86 1.27-7.82.97zm24.15-.01c-.95.3-4.3-.19-7.87-.98 2.52-1.42 5.98-3.57 9.5-6.04-.45 3.29-1.09 6.31-1.63 7.02zm11.2-19.06c-5.71 6.66-19.84 15.44-23.31 16.91-3.48-1.46-17.6-10.25-23.31-16.91-3.75-4.37-1.98-9.03.15-13.42.61-1.25 1.01-2.08 1.11-2.98.18-1.6 1.18-4.77 1.76-5.6l.07-.07c.3-.23 1.06-.58 1.76-.9 1.15-.52 2.34-1.06 3.2-1.91.37-.37.83-.88 1.43-1.57.74-.84 2.45-2.79 3.11-3.22.11-.03.4-.07 1.06-.07.22 0 .44 0 .66.01h.1c.32.01.57.01.82.01.84 0 1.81-.05 2.71-.41l.34-.14c.99-.41 3.62-1.48 5.03-1.51 1.37 0 4.12 1.13 5.03 1.51l.34.14c.89.36 1.86.41 2.7.41.25 0 .52-.01.81-.01.4-.01 1.47-.03 1.83.06.6.4 1.97 1.92 3.11 3.21.59.67 1.05 1.2 1.43 1.57.86.85 2.04 1.39 3.2 1.91.51.23 1.43.65 1.76.9l.07.07c.58.83 1.58 4 1.76 5.61.1.9.52 1.77 1.11 2.98 2.14 4.39 3.91 9.05.16 13.42z"/><path d="m29.01 9.19c-.28 0-.5.22-.5.5v28.55c0 .28.22.5.5.5h2c.28 0 .5-.22.5-.5v-26.55c0-1.38-1.12-2.5-2.5-2.5z"/><path d="m41.3 14.16c-.04-.01-.08-.01-.11-.01-.27-.03-.52.15-.56.42-.33 2.25-1.95 12.09-6.24 23.6-.1.26.03.55.29.64l1.87.71c.26.1.55-.04.65-.3 3.68-9.87 5.42-18.37 6.1-22.36.23-1.31-.68-2.53-2-2.7z"/><path d="m47.97 25.39c-.01 0-.02-.01-.03-.01-.26-.06-.52.08-.59.34-.47 1.6-2.32 7.22-6.92 13.85-.16.22-.11.54.12.69l1.63 1.15c.23.16.55.1.71-.13 3.75-5.4 5.76-10.13 6.74-12.85.45-1.3-.31-2.71-1.66-3.04z"/><path d="m19.38 14.56c-.04-.27-.29-.45-.56-.42l-.12.01c-1.31.17-2.22 1.39-2 2.7.69 3.98 2.43 12.49 6.1 22.36.1.26.39.4.65.3l1.87-.71c.26-.1.38-.39.29-.64-4.28-11.51-5.89-21.35-6.23-23.6z"/><path d="m12.67 25.72c-.08-.26-.34-.4-.6-.34l-.04.01c-1.34.33-2.11 1.74-1.65 3.04.97 2.73 2.99 7.46 6.74 12.86.16.23.48.29.86.02 0 0 .93-.66 1.48-1.05.22-.16.27-.47.11-.69-4.58-6.63-6.43-12.25-6.9-13.85z"/></svg>