<svg enable-background="new 0 0 60 60" viewBox="0 0 60 60" xmlns="http://www.w3.org/2000/svg"><path d="m53.81 18.02c-2.76-2.39-7.11-2.4-10.28-2.4-.44 0-.86 0-1.24-.01-2.39-.04-3.16-.29-5.24-.94l-1.15-.36c-.87-.27-1.93-.68-3.05-1.12-2.56-1-5.74-2.24-8.89-2.58-5.22-.55-10.22.78-15.75 4.19-4.92 3.04-6.23 7.87-6.58 11.66v.02c-.13 1.38-.13 2.62-.13 3.58 0 4.15 1.08 9.93 6.25 13.86 5.06 3.84 15.93 5.59 21.9 5.59h.27.05c.27-.01 6.65-.3 10.36-1.24 3.82-.96 6.81-2.11 11.68-5.44 5.24-3.58 6.42-9 6.48-12.91.07-3.75-1.55-9.19-4.68-11.9zm-44.02-.65c4.27-2.64 8.01-3.87 11.86-3.87.66 0 1.32.04 1.99.11 2.75.29 5.6 1.4 8.12 2.39 1.17.46 2.28.89 3.26 1.19l1.13.35c2.17.68 3.26 1.02 6.08 1.08.4.01.84.01 1.3.01 2.7 0 6.41.01 8.32 1.67 1.63 1.42 2.8 4.08 3.33 6.59-.15 2.51-1.97 6.13-5.79 8.41-4.49 2.68-6.78 3.48-9.92 4.18-3.25.72-9.23.96-9.25.96-.05 0-.1 0-.16 0-5.79 0-15.21-2.53-19.15-5.14-3.76-2.5-6.2-5.88-6.28-8.67.35-3.54 1.48-7 5.16-9.26zm40.53 22.97c-4.53 3.09-7.16 4.11-10.72 5.01-3.3.83-9.29 1.13-9.73 1.15-5.71.08-15.94-1.65-20.31-4.97-2.74-2.09-4.06-4.88-4.64-7.53 1.18 1.36 2.64 2.65 4.34 3.78 4.82 3.2 15.08 5.64 20.87 5.64h.16c.26-.01 6.31-.25 9.82-1.03 3.39-.75 6-1.66 10.81-4.53 1.45-.87 2.67-1.9 3.68-3-.74 2-2.05 3.96-4.28 5.48z"/><path d="m23 30.5c3.08 0 5.5-1.98 5.5-4.5s-2.42-4.5-5.5-4.5-5.5 1.98-5.5 4.5 2.42 4.5 5.5 4.5zm0-6c1.43 0 2.5.79 2.5 1.5s-1.07 1.5-2.5 1.5-2.5-.79-2.5-1.5 1.07-1.5 2.5-1.5z"/><path d="m7.86 27.84c1.5 2.76 7.4 5.61 12.44 7.01 3.61 1 6.28 1.28 8.94 1.28 1.52 0 3.04-.09 4.73-.19.73-.04 1.49-.09 2.3-.13 6.25-.32 12.62-4.25 13.99-5.69 1.27-1.34 1.44-1.82 1.65-3.44l.01-.1c.28-2.15-1.39-4.89-4.23-5.39-.95-.17-2.35-.21-3.97-.25-2.21-.06-4.72-.13-6.68-.52-3.55-.72-10.6-3.28-11.97-3.78-1.82-.67-4.91-1.29-10.63.99-5.4 2.16-6.73 7.3-6.9 8.02-.14.49-.18 1.26.32 2.19zm2.61-1.55c.01-.04.89-4.22 5.09-5.9 4.76-1.9 7.12-1.46 8.48-.96 1.41.52 8.65 3.14 12.41 3.91 2.21.45 4.86.52 7.2.58 1.44.04 2.8.08 3.53.2 1.24.22 1.85 1.45 1.78 2.05l-.01.1c-.13 1.01-.13 1.01-.85 1.77-.85.89-6.56 4.48-11.96 4.76-.82.04-1.59.09-2.33.13-4.52.27-7.5.45-12.69-.98-6.12-1.68-10.3-4.55-10.66-5.61z"/></svg>