<svg enable-background="new 0 0 60 60" viewBox="0 0 60 60" xmlns="http://www.w3.org/2000/svg"><path d="m33.29 28.56c-2.52-3.87-7.49-5.17-11.56-3.03-1.7.9-3.74.9-5.44 0-1.28-.67-2.71-1.03-4.13-1.03-3 0-5.78 1.52-7.44 4.06-3.79 5.82-4.26 13.32-1.23 19.57l2.78 5.72c1.41 2.91 4.4 4.64 8.01 4.64h9.47c3.6 0 6.59-1.74 8-4.64l2.78-5.73c3.02-6.24 2.55-13.74-1.24-19.56zm-1.48 18.26-2.78 5.73c-.89 1.85-2.87 2.95-5.3 2.95h-9.47c-2.43 0-4.41-1.1-5.31-2.95l-2.78-5.72c-2.56-5.32-2.16-11.69 1.06-16.63 1.1-1.69 2.94-2.7 4.92-2.7.94 0 1.89.24 2.74.68 2.58 1.35 5.66 1.35 8.23 0 2.7-1.41 5.99-.55 7.66 2.02 3.21 4.94 3.61 11.31 1.03 16.62z"/><path d="m11.98 12.59c1.23.48 3.54 1.66 4.38 3.37 1.26 2.56 1.15 6.21 1.15 6.3v1.24c0 .28.22.5.5.5h2c.28 0 .5-.22.5-.5v-1.18c.01-.18.14-4.44-1.46-7.68-.9-1.84-2.64-3.13-4.11-3.95-1.25-.7-2.82-.08-3.25 1.29-.08.24.05.51.29.61z"/><path d="m51.68 9.13c-3.87 0-6.21 2.56-7.42 4.48-.87-.68-2.1-1.34-3.73-1.61.02-.46.04-.91.07-1.33 1.5-.26 3.15-.92 4.9-2.17.23-.16.28-.49.11-.72l-1.22-1.58c-.16-.22-.47-.25-.69-.1-.96.68-1.84 1.11-2.64 1.37.18-.86.39-1.57.58-2.13.33-.96-.07-2.01-.94-2.53l-.53-.31c-.25-.15-.58-.06-.71.21-.37.76-1.05 2.43-1.51 4.97-.64-.14-1.18-.39-1.61-.65-.01 0-.01-.01-.02-.01-.79-.49-1.79-.46-2.51.13l-.57.47c-.23.18-.24.52-.04.74.93.96 2.45 1.94 4.39 2.3-.03.43-.05.88-.06 1.34-1.66.26-2.91.93-3.79 1.62-1.21-1.92-3.55-4.48-7.42-4.48-1.5 0-2.66.36-3.55.89-1.33.79-1.3 2.73.04 3.49.23.13.5.05.65-.16.63-.84 1.55-1.23 2.86-1.23 3.93 0 5.57 4.37 5.64 4.55v.01c.43 1.18 2.03 1.34 2.69.27l.01-.02c.05-.08 1.3-2.07 4.34-2.07s4.29 1.98 4.33 2.05c.64 1.1 2.27.96 2.71-.24v-.01c.07-.19 1.71-4.56 5.64-4.56 3.16 0 3.82 2.56 3.82 4.69-.02.48-.54 3.91-1.04 7.22-1.11 7.29-2.62 17.28-2.62 19.97 0 .51-.12 1.14-1.08 1.54-1.43.59-3.57.17-4.33-.59-.94-.95-2.56-.28-2.56 1.06 0 2.8-3.25 3.36-4.44 3.47-.09.01-.27.01-.52 0-1.13-.05-2.15.71-2.47 1.8l-.09.32c-.08.27.08.56.35.62 1.02.25 1.86.29 2.3.29 2.58 0 6.18-1.15 7.42-4.16 1.72.61 3.83.65 5.48-.03 1.86-.77 2.93-2.34 2.93-4.31 0-2.46 1.56-12.73 2.59-19.52.81-5.36 1.08-7.14 1.08-7.64 0-3.73-1.79-7.71-6.82-7.71z"/></svg>