<svg enable-background="new 0 0 60 60" viewBox="0 0 60 60" xmlns="http://www.w3.org/2000/svg"><path d="m39.93 3.94c-.06-.18-.21-.61-.36-1.06-.28-.81-1.04-1.35-1.89-1.35h-15.39c-.86 0-1.62.54-1.89 1.35-.1.29-.19.55-.22.66-3.89 11.52-4.59 17.67-2.59 22.55 1.31 2.88 5.67 5.06 9.66 6.86.14.07.71.32 1.22.54v21.98h-6.09c-1.38 0-2.5 1.12-2.5 2.5 0 .28.22.5.5.5h19.18c.28 0 .5-.22.5-.5 0-1.38-1.12-2.5-2.5-2.5h-6.09v-21.98c.55-.24 1.17-.51 1.33-.59 4.14-1.89 8.29-3.99 9.64-6.98 1.93-4.69 1.26-10.72-2.51-21.98zm-16.92.59h13.96c3.47 10.3 4.28 15.99 2.85 19.88-6.5-1.15-13.06-1.15-19.64 0-1.44-4.02-.65-9.57 2.83-19.88zm8.55 25.65c-.19.09-1 .44-1.59.7-.55-.24-1.31-.58-1.48-.66-1.4-.64-4.02-1.83-5.94-3.14 4.98-.7 9.94-.7 14.86-.01-1.83 1.27-4.27 2.39-5.85 3.11z"/></svg>