<svg enable-background="new 0 0 60 60" viewBox="0 0 60 60" xmlns="http://www.w3.org/2000/svg"><path d="m39.93 3.94c-.06-.18-.21-.61-.36-1.06-.28-.81-1.04-1.35-1.89-1.35h-15.39c-.86 0-1.62.54-1.89 1.35-.1.29-.19.55-.22.66-3.89 11.52-4.59 17.67-2.59 22.55 1.31 2.88 5.67 5.06 9.66 6.86.14.07.71.32 1.22.54v21.98h-6.09c-1.38 0-2.5 1.12-2.5 2.5 0 .28.22.5.5.5h19.18c.28 0 .5-.22.5-.5 0-1.38-1.12-2.5-2.5-2.5h-6.09v-21.98c.55-.24 1.17-.51 1.33-.59 4.14-1.89 8.29-3.99 9.64-6.98 1.93-4.69 1.26-10.72-2.51-21.98zm-16.92.59h13.96c2.31 6.86 3.44 11.68 3.51 15.28-1.44-.31-2.23-1.91-3.3-4.37-1.4-3.21-3.15-7.21-8.13-7.21-2.12 0-3.85 1.71-3.85 3.8s1.73 3.8 3.85 3.8h.38c1.69 0 3.06 1.33 3.06 2.97 0 1.63-1.37 2.96-3.06 2.96-.82 0-1.58-.31-2.16-.86l-.45-.36c-1-.66-2.17-1.01-3.38-1.01-1.52 0-2.88.55-3.92 1.45-.2-3.73.89-8.76 3.49-16.45zm10.25 9.65c-1.04-.84-2.38-1.34-3.83-1.34h-.38c-.47 0-.85-.36-.85-.8s.38-.8.85-.8c2.04-.01 3.18 1.07 4.21 2.94zm-1.7 16c-.19.09-1 .44-1.59.7-.55-.24-1.31-.58-1.48-.66-2.05-.93-6.7-3.04-7.97-5.01.14-1.52 1.36-2.68 2.91-2.68.6 0 1.18.17 1.68.49l.13.1c1.13 1.06 2.61 1.64 4.18 1.64 3.3 0 6-2.61 6.06-5.84 1.02 1.93 2.39 3.6 4.76 3.89-.13.69-.31 1.33-.56 1.93-.97 2.16-5.62 4.3-8.12 5.44z"/></svg>