<svg enable-background="new 0 0 60 60" viewBox="0 0 60 60" xmlns="http://www.w3.org/2000/svg"><path d="m57.69 20.79c-.96-.73-3.9-3.31-4.35-3.71-.44-.49-1.11-1.44-1.74-2.41l.06-.02s.66-1 .97-2.59c.17-.86.06-1.72-.09-2.32-.09-.38-.57-.52-.84-.24-.31.32-.71.71-1.09 1.03-.46.39-.93.66-1.24.82l-.89.17c-.13.03-3.28.65-5.03 1.21-.39.12-.98.32-1.68.57-2.25.77-6.02 2.06-8.03 2.42-2.54.46-9.82.72-12.79.17l-1.15-.22c-2.9-.56-5.89-1.14-8.31-.5-1.53.4-3.11 1.18-4.27 2.25-.31-.01-.67-.01-1.13 0-2.51.07-4.56 2.53-4.67 5.6-.06 1.88-.01 11.04.02 15.53.01 1.36 1.13 2.46 2.49 2.45h.03c.27 0 .49-.22.49-.49-.02-2.65-.11-15.23-.04-17.38.04-1.21.56-2.03 1.09-2.43-.17 1.25-.45 4.09.03 6.2.32 1.41.68 3.53.78 4.12l-.38 7.96.02 3.97.93 5.84c.15.97.98 1.68 1.96 1.68l5.31.04c1.25.01 2.2-1.12 1.98-2.35l-.96-5.38-.01-.92c.87.42 1.84.65 2.82.65 2.37 0 4.5-1.31 5.63-3.28.53.2 1.08.37 1.64.51 2.85.71 5.87.68 8.09-.08.48-.17.94-.32 1.36-.47l-.53 3.66.79 5.89c.13.99.98 1.73 1.98 1.73h5.29c1.26 0 2.21-1.15 1.96-2.39l-1.05-5.29.89-5.55c.46-1.3 1.15-2.68 1.46-2.95 1.05-.7 2.92-2.26 3.65-4.83.28-1 .61-2.09.86-2.93 1.2.34 2.81.78 3.42.91 1.9.41 4.17-2.45 4.71-3.6.89-1.84-.12-2.8-.44-3.05zm-39.69 18.71c-1.08 0-2.06-.49-2.73-1.32.14-.72.35-1.38.53-1.56.45-.39 1.22-.82 2.65 0l.18.1c.71.41 1.46.84 2.24 1.25-.63.93-1.69 1.53-2.87 1.53zm35.79-15.07c-1.03-.26-3.42-.93-4.35-1.19-.78-.22-1.6.22-1.84 1 0 0-.75 2.39-1.31 4.4-.48 1.71-1.86 2.77-2.43 3.15-1.28.85-2.3 3.49-2.67 4.59l-1.06 6.46.91 4.62h-3.2l-.62-4.6.84-5.74c.17-1.14-.96-2.03-2.03-1.61-.02.01-1.6.62-3.63 1.31-1.65.56-4.17.56-6.41.01-2.07-.51-3.99-1.62-5.86-2.69l-.18-.1c-2.19-1.26-4.42-1.14-6.12.34-1.31 1.14-1.62 3.73-1.68 4.5l-.01.07.04 4 .79 4.56-3.27-.02-.76-4.66-.02-3.77.4-8.2-.03-.16c-.02-.11-.45-2.73-.84-4.46-.34-1.47-.17-3.86.06-5.47.13-.85 1.58-2.12 3.71-2.68 1.76-.46 4.42.05 6.99.55l1.17.22c3.42.64 11.06.35 13.87-.17 2.23-.41 5.98-1.69 8.46-2.53.68-.23 1.25-.43 1.63-.55 1.01-.32 2.63-.69 3.68-.91.8 1.28 2.23 3.52 3.15 4.5l.1.1c.12.11 2.67 2.35 4.06 3.48-.31.54-1.07 1.36-1.54 1.65z"/><ellipse cx="47.16" cy="18.56" rx="1.49" ry="1.52"/></svg>