<svg enable-background="new 0 0 60 60" viewBox="0 0 60 60" xmlns="http://www.w3.org/2000/svg"><path d="m39.42 28.21c-.27-.82-1.04-1.38-1.91-1.38-.69 0-1.47 0-1.99 0-1.38 0-2.5 1.11-2.51 2.49 0 .28.22.5.5.5 1.06 0 2.36.01 3.28.01.3.97.5 1.81.5 2.65-.34 5.27-4.73 9.39-9.98 9.39-4.03 0-7.63-2.45-9.19-6.04l1.49.02c1.38.02 2.51-1.09 2.53-2.47 0-.28-.22-.5-.49-.51l-5.57-.07c-.96-.01-1.69.87-1.49 1.81 1.28 5.94 6.62 10.25 12.71 10.25 6.83 0 12.53-5.36 12.98-12.29 0-1.4-.32-2.64-.72-3.91-.01-.06-.07-.23-.14-.45z"/><ellipse cx="45.99" cy="12.38" rx="1.49" ry="1.52"/><path d="m55.83 13.23c-.52-1.25-2.44-2.35-4.17-2.4-.23-.68-.56-1.31-.98-1.87l2.51-2.61c.46-.48.44-1.24-.05-1.69l-.24-.22c-2.74-2.54-6.61-3.56-10.4-2.58-3.18.82-5.76 3.13-7.23 6.07-.29.59-.05 1.3.53 1.59l2.87 1.43c-6.41 2.39-11.04 7.72-12.32 12.35-4.97-3.36-9.93-6.78-11.02-7.65-.1-.22-.21-.44-.34-.64-1.01-1.65-2.76-2.63-4.69-2.63-3.03 0-5.5 2.47-5.5 5.5 0 1.04.29 2.05.83 2.91-1.14 1.03-1.83 2.51-1.83 4.09 0 1.04.29 2.04.83 2.9-1.15 1.02-1.83 2.5-1.83 4.1 0 3.13 2.67 5.65 5.79 5.49 2.05 6.99 7.92 12.22 14.96 13.62v4.53h-4.09c-.28 0-.5.22-.5.5v2c0 .28.22.5.5.5h17.06c.28 0 .5-.22.5-.5 0-1.38-1.12-2.5-2.5-2.5h-2.97v-4.63c8.35-1.86 14.74-9.07 15.22-17.99.05-2.9-.69-5.18-1.28-7.01-.91-2.81-1.39-4.29.67-6.55 2.93-.3 5.29-2.57 5.74-5.46h3.44c.36.01.62-.33.49-.65zm-10.47-8.74c1.53 0 3.01.43 4.29 1.22l-1.28 1.34c-.87-.43-1.84-.68-2.87-.68-1.9 0-3.64.85-4.85 2.2l-1.76-.87c1.52-2.01 3.89-3.21 6.47-3.21zm-16.8 51.03h-2v-4.18c.25.01.5.03.75.03.42 0 .83-.03 1.25-.06zm16.76-39.14h-.44l-.44.44c-3.8 3.8-2.78 6.95-1.79 10 .58 1.79 1.18 3.64 1.13 5.97-.48 8.74-7.71 15.58-16.47 15.58-7.65 0-14.37-5.36-16.08-12.79-.02-.08-.03-.15-.05-.23l-.03-.1c-.22-.87-1.16-1.35-2-1.02-.47.17-.99.19-1.5.06-.79-.2-1.46-.82-1.71-1.59-.42-1.31.22-2.62 1.38-3.12-.01 0-.01 0-.01 0 .1-.03.19-.05.24-.07l.19-.07c1.35-.49 1.23-2.43-.16-2.76-.49-.47-.77-1.12-.77-1.81 0-1.03.64-1.97 1.57-2.32 1.2-.35 1.47-1.92.46-2.65-.05-.03-.09-.07-.14-.11-.57-.48-.9-1.18-.9-1.92 0-1.38 1.12-2.5 2.5-2.5.88 0 1.67.45 2.13 1.2.09.14.16.29.22.45.21.57.32.88 14 10.09 1.01.68 2.36-.06 2.34-1.28-.08-3.77 4.45-10.36 12.01-12.53l.88-.25.15-.72c.3-1.5 1.48-2.74 2.99-2.94 2.26-.3 4.18 1.58 3.95 3.83-.17 1.83-1.82 3.16-3.65 3.16z"/></svg>