<svg enable-background="new 0 0 60 60" viewBox="0 0 60 60" xmlns="http://www.w3.org/2000/svg"><path d="m56.02 21.73c-.91-1.18-2.11-2.05-3.26-2.89-.35-.26-1.44-1.08-1.6-1.21-1.69-1.33-3.6-2.83-6.73-2.83h-.23c-.77-.01-1.32 0-1.73 0l-.21-.15c-.74-.75-1.11-1.59-1.24-2.49 1.51.23 4.02.54 6.64.54 3.33 0 6.83-.5 8.62-2.29.2-.2.16-.55-.07-.73l-.54-.42c-.73-.57-1.7-.67-2.55-.31-1.1.45-2.72.67-4.52.72.16-.66.47-1.44 1.04-1.96.64-.59.98-1.44.84-2.3l-.11-.69c-.05-.28-.33-.48-.6-.41-2.73.72-3.87 3.33-4.22 5.3-1.43-.08-2.86-.24-4.15-.43.48-1.35 1.29-2.71 2.19-3.95.06-.08.48-.65.8-1.06.18-.24.11-.57-.14-.73l-.55-.31c-.89-.54-2.06-.31-2.67.53-3.27 4.55-3.48 7.9-2.69 10.23-.36-.07-.73-.1-1.11-.1-1.63 0-3.01.73-3.87 2.06-.46.7-.61 1.55-.43 2.39.35 1.64 1.85 2.72 3.76 3.95l.03.02-.01.03c-.33 1.31-.59 2-.75 2.35l-.05.03c-.14 0-2.4.04-3.91.04-6.27 0-11.53-.33-15.64-.98-1.41-.22-2.71-.34-3.87-.34-6.09 0-9.63 3.16-9.97 8.88-.25 3.92.3 5.78.71 7.15.15.51.26.86.29 1.31l-.18 3.71-.51 3.79c-.03.23-.02.46.03.69l1.73 8c.2.92 1.01 1.58 1.95 1.58h4.6c1.26 0 2.21-1.15 1.96-2.39l-1.32-6.69v-.01c.88-1.26 1.74-3.17 2.49-5.52l.01-.04.04.01c1.1.19 2.4.28 3.86.28 3.48 0 8.61-.77 11.36-1.23l.04-.01 1.92 5.87c.02.05.02.1.02.15l.03 5.18.55 2.84c.18.94 1.01 1.62 1.96 1.62h4.03c1.2 0 2.13-1.05 1.98-2.25l-.3-2.39.26-5.33c.09-.55.66-3.7 1.73-5.63.61-1.11 1.24-1.77 1.97-2.55s1.57-1.66 2.35-2.97c1.64-2.74 1.86-4.26 1.94-5.56l.01-.18c.07-.9.2-2.13.47-2.41l.01-.01h.32c.63.01 1.75.02 2.06.02 3.79 0 5.18-2 5.6-2.86.79-1.51.59-3.29-.47-4.66zm-2.18 3.33c-.14.28-.75 1.18-2.91 1.18-.3 0-1.41-.01-2.02-.02h-.79c-.55 0-1.08.23-1.46.63l-.31.33c-.86.91-1.11 2.14-1.28 4.25l-.01.2c-.07 1.03-.23 2.05-1.52 4.23-.61 1.03-1.27 1.72-1.97 2.46-.79.84-1.61 1.71-2.4 3.14-1.35 2.44-1.97 6-2.08 6.68l-.29 5.84.19 1.52h-2.09l-.33-1.62-.03-5.27c0-.21-.03-.41-.1-.61l-2.26-6.91c-.31-.94-1.26-1.51-2.23-1.35l-.89.15c-2.66.44-7.61 1.19-10.87 1.19-1.3 0-2.43-.08-3.36-.24l-.89-.15c-.98-.17-1.94.41-2.24 1.36l-.28.86c-.65 2.04-1.4 3.72-2.1 4.72l-.25.37c-.31.45-.42 1-.32 1.53l1.17 5.91h-2.57l-1.52-7.04.49-3.68.2-3.99v-.24c-.04-.75-.22-1.35-.41-1.98-.38-1.28-.81-2.72-.6-6.12.3-5.05 3.5-6.85 10.37-5.76 4.26.68 9.68 1.02 16.11 1.02 1.56 0 3.91-.04 3.98-.04l.66-.01c.77-.01 1.47-.47 1.79-1.17l.27-.6c.31-.68.61-1.61.93-2.85l.18-.73c.21-.83-.13-1.71-.85-2.17l-.63-.41c-.76-.49-2.33-1.51-2.46-2.06-.02-.08.01-.12.02-.13.3-.47.73-.69 1.35-.69.88 0 1.86.44 2.72.83l.98.36.84-.14c.04 0 .46-.05 2.4-.03h.25c2.11 0 3.34.97 4.9 2.19.18.14 1.31 1 1.68 1.27 1.04.75 2.01 1.47 2.66 2.31.34.44.41 1.01.18 1.48z"/><ellipse cx="44.97" cy="21.54" rx="1.49" ry="1.52"/></svg>