<svg enable-background="new 0 0 60 60" viewBox="0 0 60 60" xmlns="http://www.w3.org/2000/svg"><path d="m58.56 11.47c-.01-.21-.03-.37-.03-.47 0-3.01-6.28-3.16-7.54-3.16-.64 0-.99-.4-1.84-1.76-.77-1.24-1.74-2.79-3.65-3.47-3.25-1.15-5.57-1.15-7.62-1.15h-1.54c-.03 0-.06 0-.09 0-4.5 0-10.27 10.06-11.01 12.61-1.01 3.46 1.09 7.13 4.67 8.17.65.19 1.3.28 1.94.28.21 0 .42-.03.63-.05v.7c0 .05-.01.1-.02.15-.02.07-.15.17-.33.21l-.19.04c-1.57.3-5.25 1.02-10.71 4.13-3.67 2.09-8.6 5.66-11.45 9.39-2.42 3.16-3.59 6.94-3.13 10.12.18 1.24.47 2.36.84 3.38-.36-.03-.71-.11-1.03-.29-1.15-.66-1.59-2.48-1.76-3.88-.61-5.22.73-9.84 4.1-14.11.2-.21.17-.51-.04-.69-1.05-.86-2.64-.67-3.4.46-3.02 4.47-4.18 9.29-3.55 14.68.35 3.02 1.44 5.07 3.22 6.09.89.51 1.83.69 2.72.69.39 0 .76-.04 1.12-.09 1.35 2.25 2.94 3.67 3.82 4.34.59.45 1.34.7 2.1.7h13.18c1.92 0 3.51-1.54 3.53-3.46.02-2.03-1.07-3.88-2.95-4.91.44-.31 1.03-.55 1.85-.55 1.8 0 2.98-.01 5.13-.54-.02.34-.03.67-.03.97 0 2.8.79 5.54 1.02 6.28.14 1.25 1.2 2.22 2.48 2.22h8.93c1.98 0 3.6-1.62 3.57-3.6-.05-2.99-2.5-5.4-5.5-5.4h-1.5v-4.49c0-.15.06-.28.15-.36 3.08-2.48 4.85-6.17 4.85-10.13 0-3.5-1.37-6.78-3.85-9.24-.09-.09-.15-.2-.15-.29v-2c0-.72.51-1.32 1.18-1.46 3.44 0 3.46.01 7.71-1.11 4.75-1.26 4.32-7.05 4.17-8.95zm-27.78 7.83c-1.96-.57-3.12-2.53-2.58-4.36 1.03-3.56 5.33-8.86 7.37-10.12.43 2.26.11 8.27-.31 12.3-.58 1.76-2.56 2.73-4.48 2.18zm22.83-1.85c-3.81 1.01-3.81 1.01-6.61 1.01-1.98 0-2.38-.04-2.88-.58-.46-.49-.56-.93-.58-1.65-.01-.27-.23-.49-.51-.49h-.03c-1.59 0-2.69 1.69-1.95 3.1.18.35.42.7.74 1.05.36.4.8.71 1.27.96-.34.65-.56 1.37-.56 2.15v2c0 .9.37 1.76 1.04 2.42 2.91 2.88 3.83 7.22 2.08 11.38-.6 1.43-1.69 2.55-2.88 3.54-.78.65-1.23 1.62-1.23 2.66v5c0 1.38 1.12 2.5 2.5 2.5h2c1.37 0 2.49 1.11 2.5 2.49 0 .28-.22.51-.5.51h-8.58c-.09-.29-.92-2.93-.92-5.5 0-1.55.29-3.71.55-5.35.21-1.32-.67-2.58-1.98-2.84l-.05-.01c-.27-.05-.54.12-.59.39-.13.69-.37 2.02-.57 3.49-2.54.73-3.53.74-5.46.74-2.89 0-4.62 1.67-5.43 3.07h-1.06c0-.06 0-.11.01-.14.14-.41.32-.83.49-1.25.51-1.21 1.09-2.59 1.09-4.11 0-2.43-1.15-4.71-2.59-6.39-.94-1.09-2.66-.99-3.45.21l-.02.03c-.15.22-.09.51.12.68 1.49 1.17 2.95 3.36 2.95 5.47 0 .91-.41 1.9-.85 2.95-.2.49-.4.97-.57 1.44-.26.76-.27 2.38.39 3.3.35.52.91.82 1.51.82h3c.67 0 1.29.26 1.76.73s.73 1.1.73 1.77c0 .28-.22.5-.5.5h-13.2c-.11 0-.21-.03-.28-.09-1.22-.93-4.15-3.65-4.86-8.62-.13-.9-.32-4.12 2.55-7.88 2.58-3.37 7.14-6.66 10.55-8.61 5.02-2.87 8.36-3.52 9.79-3.79l.2-.04c1.25-.25 2.25-1.11 2.61-2.25.11-.34.16-.7.16-1.05v-1.71c1.29-.82 2.3-2.05 2.75-3.6l.05-.27c.17-1.66.91-9.21.32-13.05 1.72.01 3.45.12 5.87.97.9.32 1.44 1.19 2.07 2.19.84 1.35 2 3.21 4.44 3.21 1.65 0 3.69.35 4.5.68 0 .03 0 .07.01.11.16 2.4.11 5.22-1.91 5.75z"/><circle cx="43.5" cy="9.5" r="1.5"/></svg>