<svg enable-background="new 0 0 60 60" viewBox="0 0 60 60" xmlns="http://www.w3.org/2000/svg"><path d="m58.5 30c0-6.77-4.58-12.57-11.58-15.8-.26-1.67-1.1-4.38-3.03-6.25-2.08-2.03-5.7-4.45-11.12-4.45-5.53 0-11.35 2.37-11.4 2.4l-.09.04c-1.01.46-1.14 1.84-.23 2.49.72.68 3 3.04 4.05 4.98-5.37 2.31-9.51 6.25-12 9.11-3.24-5.15-8.99-9.08-9.27-9.26-1.21-.82-2.75.39-2.25 1.76 1.12 3.04 4.03 11.66 4.03 15.01s-2.91 11.93-4.03 14.95c-.51 1.37 1.05 2.59 2.26 1.75.28-.19 6.13-4.28 9.37-9.47 3.28 3.52 9.39 8.78 17.43 9.98.17.6.26 1.22.25 1.88-.03 2.37-2.04 4.89-2.06 4.91-.77.95-.15 2.37 1.07 2.45.05 0 .36.02.84.02 1.79 0 6.02-.23 9.08-2.26 4.09-2.72 4.46-5.61 4.72-7.72.02-.18.04-.37.05-.57 8.45-2.67 13.91-8.57 13.91-15.95zm-33.79-22.1c2-.62 5.11-1.4 8.06-1.4 4.41 0 7.35 1.96 9.03 3.6.79.77 1.33 1.82 1.69 2.79-2.9-.89-6.11-1.39-9.49-1.39-2.14 0-4.16.34-6.05.89-.79-1.61-2.13-3.27-3.24-4.49zm13.46 43.84c-1.6 1.06-3.74 1.49-5.42 1.66.59-1.19 1.12-2.69 1.14-4.24.01-.57-.04-1.13-.13-1.67.08 0 .15.01.23.01 2.65 0 5.16-.26 7.49-.74-.23 1.7-.68 3.23-3.31 4.98zm-4.17-7.24c-10.18 0-17.82-8.27-19.92-10.8-.71-.85-2.06-.67-2.52.34-1.18 2.6-3.42 5.08-5.42 6.95 1.17-3.64 2.49-8.34 2.49-10.96 0-2.64-1.35-7.43-2.52-11.09 1.98 1.83 4.21 4.27 5.39 6.87.47 1.03 1.86 1.19 2.55.3 2.1-2.73 9.78-11.61 19.95-11.61 11.86 0 21.5 6.95 21.5 15.5 0 8.27-9.24 14.5-21.5 14.5z"/><circle cx="45" cy="22" r="2"/></svg>