<svg enable-background="new 0 0 60 60" viewBox="0 0 60 60" xmlns="http://www.w3.org/2000/svg"><path d="m57.78 12.7c-.01-.01-1.27-.74-2.33-1.47-.91-.63-2.56-2.38-2.8-2.71-.04-2.61-1.18-4.76-3.14-5.9-2.48-1.44-5.23-1.51-7.55-.17-2.21 1.27-3.58 3.64-3.58 6.18v17c-4.29-1.13-8.47-2.13-12.38-2.13-4.92 0-10.28.79-14.34 2.1-1.09.35-2.77.17-4.84-.53-.31-.11-.72-.27-1.15-.44-.86-.34-1.74-.69-2.37-.82-1.1-.22-2.04.79-1.74 1.87.21.76.76 1.79 1.29 2.78.23.42.44.81.57 1.1.59 1.26 1.14 2.46 1.14 2.98 0 8.04 6.04 16.14 19.44 16.88v6.08h-2.52c-.28 0-.5.22-.5.5v2c0 .28.22.5.5.5h11c.28 0 .5-.22.5-.5 0-1.38-1.12-2.5-2.5-2.5h-3.48v-6.04c12.18-.35 20-6.94 20-17.04l.02-.62v-16.31h10.01c1.53.01 2.07-2.02.75-2.79zm-11.77-.2c-1.1 0-2 .89-2 2l-.01 17.93c0 8.55-7.07 14.07-18 14.07-9.18 0-18.44-4.31-18.44-13.95 0-1.13-.51-2.29-1.42-4.24-.05-.11-.11-.23-.17-.35 2.72.91 4.89 1.07 6.63.51 3.77-1.23 8.78-1.96 13.41-1.96 3.59 0 7.6.97 11.74 2.06 1.01.25 2.06-.03 2.81-.78.56-.57.82-1.36.82-2.16v-16.99c0-1.47.8-2.84 2.08-3.58 1.36-.78 3.01-.72 4.54.17 1.46.85 1.64 2.63 1.65 3.35.01.53.16 1.05.45 1.51.32.51 1.27 1.55 2.21 2.43z"/><path d="m37.55 35.13c-.17-.94-1.01-1.63-1.97-1.63h-5.08c-.28 0-.5.22-.5.5 0 1.38 1.12 2.5 2.5 2.5h2.15c-.04.56-.23 1.05-.58 1.49-1.23 1.55-4.52 2.51-8.57 2.51-3.93 0-7.2-1.33-9.28-2.47-.25-.14-.48-.27-.69-.4-1.04-.63-2.39-.4-3.18.53l-.16.18c-.19.22-.16.55.07.72 1.43 1.08 6.41 4.44 13.23 4.44 2.41 0 8.3-.35 10.92-3.64 1.05-1.31 1.44-2.94 1.14-4.73z"/><circle cx="46.5" cy="7.5" r="1.5"/></svg>