<svg enable-background="new 0 0 60 60" viewBox="0 0 60 60" xmlns="http://www.w3.org/2000/svg"><path d="m58 30.1c-.01-.31-.01-.62-.01-.89 0-1.29-1.23-1.84-2.31-2.32-.36-.16-1.03-.46-1.24-.64-.51-.86-1.68-1.63-2.63-2.16 1.01-2.06 1.55-4.4 1.41-5.39-.08-.6-.39-.95-.64-1.14-1.27-.95-3.95.71-5.83 2.3l-8.15-2.6c-7.32-2.21-13.8-2.39-20.9-2.39-3.06 0-5.91 1.07-8.18 2.84l.01-.04c-.93-.27-1.6-.77-2.06-1.3.53-.55.87-1.18.94-1.83.12-1.11-.55-2.05-1.71-2.4-1.33-.39-2.56.27-2.94 1.56-.12.42-.15.91-.08 1.43-.08.02-.17.04-.26.06s-.55.03-.92.04c-.27.01-.48.22-.49.49l-.01.31c-.02 1.22 1.03 2.2 2.24 2.05.04-.01.08-.01.1-.02.18-.04.35-.09.52-.14.58.78 1.39 1.49 2.4 2.03-1.73 2.17-2.79 4.86-2.79 7.75 0 2.74.39 4.93 1.17 6.52.03 1.91.62 4.43 1.13 5.36.27.63.63 3.91.73 5.98 0 .09.01.29.01.55.01 1.04.86 1.87 1.89 1.87h5.54c1.06 0 1.92-.88 1.89-1.94 0-.15-.01-.26-.01-.3-.07-.72-.22-1.38-.36-1.98-.25-1.06-.39-1.73-.15-2.24.43-.94 1.29-2.06 2.11-2.81 1.71 1.16 2.52 1.45 4.79 1.45.35 0 .69 0 1.02.01 2.08.03 4.05.05 9-.92.4.48.83 1.14.87 1.68.12 1.88.16 3.85.17 4.88v.32c.01 1.04.85 1.88 1.89 1.88h5.18c1.09 0 1.97-.92 1.89-2 0-.04-.01-.07-.01-.09-.03-.2-.08-.44-.13-.73-.22-1.17-.6-3.12-.35-4.41.22-1.14.42-2.3.56-3.16 1.24.08 3.18.16 5.3.13 2.44-.04 3.48-.56 4.5-1.19.59-.36.98-.6 2.3-.6.61 0 1.18-.24 1.6-.67 1.08-1.08 1.04-3.17 1-5.19zm-3.1 2.89c-1.81.08-2.67.6-3.36 1.03-.63.38-1.17.72-2.98.74-2.22.03-4.29-.07-5.44-.15-.12-.01-.3-.02-.5-.04-1.04-.08-1.98.65-2.14 1.69-.03.19-.06.36-.08.48-.14.86-.37 2.2-.62 3.48-.3 1.55-.04 3.42.21 4.79h-2.74c-.02-1.11-.07-2.7-.17-4.26-.08-1.32-.81-2.49-1.44-3.28-.17-.21-.44-.49-.7-.74-.47-.46-1.14-.65-1.79-.53-.45.09-.91.18-.99.2-4.29.81-6.05.79-7.91.77-.34 0-.69-.01-1.06-.01-1.63 0-1.8-.02-3.46-1.18-.03-.02-.11-.08-.22-.15-.67-.47-1.56-.48-2.25-.04-.16.11-.3.2-.36.24-1.31 1.02-2.67 2.71-3.35 4.23-.67 1.47-.33 2.9-.04 4.17.04.18.08.36.12.53h-3.2c-.12-2.13-.45-5.71-1.05-6.81-.25-.45-.83-2.73-.78-4.26l.01-.42-.2-.36c-.59-1.11-.93-3.04-.93-5.41 0-5.33 4.69-9.83 10.24-9.83 6.86 0 13.1.17 20.01 2.25l7.14 2.28c-.09.78.21 1.59.87 2.12l.08.06c.22.17.53.14.7-.08l.8-1c.64-.84 1.56-1.59 2.41-2.17-.31.9-.76 1.91-1.35 2.73-.03.04-.32.45-.55.78-.16.23-.11.54.12.7l1.63 1.15c.21.15.48.11.65-.07.78.42 1.48.9 1.64 1.12.5.93 1.57 1.41 2.61 1.87.16.07.36.16.54.25 0 .09 0 .19.01.29-.01.74.02 2.15-.13 2.84z"/><ellipse cx="49.5" cy="29.52" rx="1.49" ry="1.52"/></svg>