<svg enable-background="new 0 0 60 60" viewBox="0 0 60 60" xmlns="http://www.w3.org/2000/svg"><path d="m41.74 24.27c.83 0 1.51-.67 1.51-1.5s-.67-1.5-1.51-1.5-1.51.67-1.51 1.5.68 1.5 1.51 1.5z"/><path d="m53.19 25.74c-.46-5.65-7.04-8.4-10.28-9.42.47-1.2 1.01-2.92 1.2-4.82.41-4.18-.94-7.19-1.75-8.58-.04-.06-.09-.14-.14-.23-.72-1.05-2.22-1.17-3.11-.27-.22.22-.41.43-.54.58-.51.61-1.14 1.44-1.71 2.43-.64-1-1.36-1.84-1.96-2.46-.19-.19-.46-.44-.76-.7-.92-.8-2.33-.61-3 .41-.08.12-.15.23-.2.32-.79 1.42-2.05 4.43-1.58 8.54.42 3.64 1.75 6.07 2.68 7.39-.6.75-1.28 1.84-1.55 3.19-.07.35-.12.72-.14 1.1-.01.13-.01.26-.01.4-.01.24-.02.49-.01.73 0 .16.01.3.02.46.01.21.02.42.04.63.01.15.03.29.04.44.01.13.02.27.04.39-3.04.64-9.73 2.63-13.08 8.17-2.8 4.64-3.05 9.56-2.88 12.46-.05-.01-.1-.02-.15-.03-.09-.02-.19-.03-.29-.05-.15-.02-.3-.04-.46-.06-.1-.01-.2-.02-.3-.02-.17-.01-.35-.01-.53 0-.09 0-.18 0-.28.01-.27.02-.55.05-.83.1-2.35.47-4.88 2.81-4.88 5.54 0 3.72 2.59 6.12 6.6 6.12 1.83 0 3.27-.63 4.18-1.2.8.58 2.01 1.2 3.51 1.2h10.14c.26 0 2.62-.04 4-1.56.71-.78 1.02-1.79.92-2.92-.22-2.35-1.52-3.46-2.72-3.92.98-1.33 1.78-3.26 1.71-6.03-.1-3.67-1.89-5.77-3.74-6.85-1.28-.75-2.91.1-3.06 1.58-.03.24.13.48.36.53 1 .25 3.34 1.22 3.44 4.82.11 4.15-2.47 5.5-2.98 5.73-1.64.01-3.25 0-4.07-.06-.25-.02-.48.16-.53.41-.26 1.36.77 2.62 2.15 2.64 2.12.04 4.71-.02 5.38-.04.35.02.96.24 1.08 1.46.04.41-.09.55-.15.62-.35.38-1.27.57-1.78.58h-10.13c-.71 0-1.34-.34-1.76-.64-.07-.05-.16-.14-.28-.25-.75-.73-1.94-.77-2.74-.1-.14.12-.25.21-.33.25-.54.33-1.43.73-2.58.73-1.64 0-3.6-.54-3.6-3.12 0-1.04 1.24-2.35 2.47-2.6.22-.04.44-.06.66-.06.08 0 .15.01.23.02.14.01.28.02.42.04.09.01.17.03.25.05.12.02.24.05.35.08.08.02.16.05.24.07.09.03.18.06.26.09s.17.07.29.13v-.03c1.41.54 2.91-.68 2.66-2.2-.01-.09-.02-.16-.03-.21-.24-2.15-.4-7.17 2.37-11.76 2.98-4.93 9.64-6.52 11.75-6.91.04-.01.11-.02.18-.03 1.1-.17 1.85-1.2 1.68-2.29h.02c-.05-.24-.08-.44-.1-.55 0-.01 0-.02-.01-.03-.03-.23-.06-.48-.09-.73 0-.04-.01-.08-.01-.13-.02-.25-.04-.52-.05-.78 0-.05 0-.1 0-.14-.01-.27-.01-.53 0-.79 0-.04.01-.07.01-.1.02-.27.04-.53.09-.76.17-.83.64-1.54 1.03-2 .06-.07.16-.18.29-.3.79-.75.85-2.01.11-2.81-.19-.2-.34-.38-.43-.51-.69-1-1.74-2.94-2.08-5.9-.29-2.55.23-4.52.74-5.77.92 1.02 2.05 2.55 2.33 4.22l.03.12c.01.02.44 1.78.09 3.81-.05.27.11.52.38.58 1.41.33 2.76-.76 2.76-2.21 0-1.1-.13-1.99-.22-2.49.31-1.5 1.15-2.89 1.89-3.87.52 1.26 1.02 3.18.78 5.6-.19 1.92-.83 3.66-1.25 4.61-.03.06-.07.15-.12.26-.57 1.15.07 2.54 1.32 2.85.14.03.25.06.33.09 2.33.67 8.46 2.83 8.79 6.91.1 2.64-2.78 3.43-4.26 3.66-.12.02-.31.04-.52.05-.85.07-1.56.66-1.78 1.48-.07.25-.12.47-.15.62-.19.95-.35 2.39 0 3.66l.45 1.62c.48 1.74.63 3.56.42 5.35-.04.33-.08.66-.12.98-.5 4.01-.93 7.48 1.36 8.83.86.5.96 1.64.96 2.7-.03.16-.11.35-.17.43-.13.14-.24.18-.28.19h-4.52c-.13 0-.65-.1-.87-.32-.12-.17-.2-.81-.17-1.25.03-.23.64-5.75.48-8.66-.09-1.59-.14-2.49-.16-2.97-.01-.27-.25-.48-.52-.47-1.38.07-2.44 1.24-2.36 2.62.02.3.03.62.05.99.15 2.65-.46 8.1-.47 8.18-.04.41-.16 2.49 1.01 3.66 1.12 1.12 2.72 1.21 2.96 1.22h4.44.1c.46 0 1.49-.13 2.41-1.09.82-.82.99-2 1.02-2.23l.01-.19c0-1.09 0-3.98-2.44-5.4-.58-.54-.14-4.01.09-5.87.08-.62.15-1.24.22-1.85.27-2.51-.3-4.57-.85-6.56l-.19-.7c-.16-.6-.1-1.41.01-2.06 2.92-.46 6.98-2.24 6.81-6.82z"/></svg>