<svg enable-background="new 0 0 60 60" viewBox="0 0 60 60" xmlns="http://www.w3.org/2000/svg"><ellipse cx="38.23" cy="13.85" rx="1.32" ry="1.35"/><path d="m53.51 3.89c.01-1.38-1-2.37-2.49-2.39h-21.39c-1.38 0-2.5 1.12-2.5 2.5 0 .28.22.5.5.5h22.61c-.69 1.11-2.65 2.86-5 2.98h-15.1c-12.59 0-23.64 10.33-23.64 22.11 0 13.66 10.92 20.78 22.04 21.94 1.49 2.52 4.28 5.34 6.05 6.37.69.4 1.47.61 2.28.61.39 0 .78-.05 1.18-.15.9-.22 1.74-.7 2.42-1.36.16-.15.49-.58.76-.97.31-.42.36-.98.15-1.45-.14-.31-.29-.62-.38-.77-.17-.25-.38-.54-.65-.89-.4-.53-.82-1.07-.94-1.46.33-.29.98-.55 1.62-.8.37-.15.69-.28.96-.4.19-.09.52-.3.83-.52.43-.3.67-.8.63-1.31-.04-.53-.11-1.16-.18-1.43-.25-.85-.7-1.62-1.31-2.22-.87-.87-2-1.35-3.24-1.36-1.83 0-6.2 1.01-8.89 2.55-5.12-3.16-7.62-6.84-7.62-11.23 0-1.14.24-2.38.74-3.6l1.58 1.12c1.13.8 2.69.53 3.49-.59.16-.23.11-.54-.12-.7l-3.41-2.42c.36-.44.77-.87 1.22-1.28l2.44 1.73c1.13.8 2.69.53 3.49-.59.16-.23.11-.54-.12-.7l-3.17-2.25c.68-.35 1.42-.67 2.23-.95l2.45 1.74c1.13.8 2.69.53 3.49-.59.16-.23.11-.54-.12-.7l-1.75-1.24c.15 0 .31-.01.5-.01 5.71-.09 10.35-4.75 10.35-10.39v-2.85c4.36-.27 7.99-4.12 8.01-6.58zm-37.34 11.92c4.42.26 7.29 3.18 8.37 8.51-1.23.94-2.23 2-3.01 3.12-3.61-3.37-8.02-3.45-11.32-2.56 1.04-3.46 3.15-6.61 5.96-9.07zm-6.6 12.5c2.09-.86 6.83-2.12 10.49 1.93-.58 1.52-.85 3.06-.85 4.49 0 .26.01.51.03.77-3.47.44-5.7 2.22-6.99 4-1.71-2.64-2.75-5.91-2.75-9.91 0-.43.04-.85.07-1.28zm29.17 18.11c.4 0 .79.17 1.1.48.22.22.39.49.5.8-.12.05-.26.11-.42.17-1.02.41-2.08.82-2.83 1.68-.55.62-.8 1.47-.66 2.29.19 1.14.87 2.04 1.55 2.93.04.06.12.15.2.26-.26.2-.55.35-.86.42-.43.11-.87.06-1.21-.14-2.34-1.37-4.99-4.95-5.52-6.28 1.14-1.02 5.99-2.61 8.15-2.61zm-11.13 1.69c-.03.08-.04.18-.05.27-4.83-.72-9.81-2.71-13.32-6.36.58-1.14 2.09-3.16 5.48-3.53 1.02 3.68 3.63 6.85 7.89 9.62zm14.89-34.78c0 4.01-3.32 7.33-7.4 7.39-1.43.02-1.9.08-2.16.12-2.2.39-4.07 1.02-5.68 1.81-1.24-4.77-3.92-7.97-7.71-9.26 3.14-1.83 6.78-2.92 10.59-2.92h12.36z"/></svg>