<svg enable-background="new 0 0 60 60" viewBox="0 0 60 60" xmlns="http://www.w3.org/2000/svg"><circle cx="45.5" cy="7.5" r="1.5"/><path d="m55.5 10c.01-.33.01-.19.01-.25 0-1.31-1.91-2.43-4.08-2.65-.49-3.56-3.87-6.21-7.69-5.49-2.34.44-4.3 2.21-4.97 4.5-1.13 3.85 1.37 7.5 4.94 8.23.71 1.32.95 2.4.65 3.07-.3.68-1.16.98-1.48 1.07-3.04-1.3-6.43-1.99-9.88-1.99-4.38 0-8.71 1.14-12.22 3.17l-2.46-11.86c.12-.43.18-.87.18-1.3 0-1.19-.42-2.33-1.2-3.24-.12-.21-.29-.38-.5-.51-1.19-1.06-2.8-1.49-4.44-1.12-2.03.45-3.59 2.22-3.82 4.28-.15 1.36.23 2.62.96 3.6-1.22.91-2 2.36-2 3.99 0 1.12.37 2.16 1 3-1.22.91-2 2.37-2 4 0 1.12.37 2.16 1.01 3-1.22.91-2.01 2.37-2.01 4 0 1.12.37 2.16 1 3-1.21.91-2 2.36-2 4 0 1.63.79 3.09 2 4-.64.84-1 1.88-1 3 0 1.63.79 3.09 2.01 4-.64.85-1.01 1.89-1.01 3 0 2.49 1.87 4.6 4.32 4.94.14.04.28.06.43.06 2.48 0 4.4-1.8 4.71-4.3l4.54-4.06c2.32 1.87 5.09 3.18 8.01 3.85v6.51h-4c-.28 0-.5.22-.5.5v2c0 .28.22.5.5.5h18c.28 0 .5-.22.5-.5 0-1.38-1.12-2.5-2.5-2.5h-3v-6.57c7.42-1.8 13.26-7.81 14.63-15.51.06-.36.23-.69.46-.97 4.38-5.22 1.08-12.97-.92-17.67-.51-1.19-1.13-2.66-1.23-3.26.31-.48.55-1 .73-1.53h4.32zm-21 45.5h-3v-6.06c.46.03.92.06 1.38.06.55 0 1.09-.03 1.62-.07zm15.48-24.64c-.08.06-.16.12-.22.18-.25.24-.41.56-.45.91-.98 8.3-8.04 14.55-16.44 14.55-4.2 0-8.35-1.62-11.38-4.46-.57-.53-1.45-.54-2.03-.02l-5.98 5.35c-.32.28-.5.7-.5 1.12 0 .91-.48 1.88-1.54 1.99-.02 0-.04 0-.06-.01-.02 0-.03 0-.05 0-1.02-.07-1.83-.94-1.83-1.97 0-.84.54-1.6 1.36-1.88.69-.24 1.11-.94.99-1.66l-.04-.22c-.12-.7-.7-1.22-1.41-1.25-1.07-.05-1.9-.92-1.9-1.98 0-.88.58-1.64 1.43-1.9.63-.19 1.07-.77 1.07-1.44v-.17c0-.83-.67-1.5-1.5-1.5-1.1 0-2-.9-2-2s.9-2 1.91-2c.04.01.17.02.21.02.74.03 1.41-.47 1.55-1.2l.02-.11c.16-.8-.34-1.58-1.14-1.76-.91-.21-1.55-1.01-1.55-1.95 0-1.1.9-2 2-2 .11 0 .21.02.32.04.82.13 1.59-.43 1.72-1.25l.02-.1c.06-.4-.04-.81-.28-1.13s-.61-.54-1.01-.59c-1-.13-1.75-.97-1.75-1.97 0-1.1.9-2 2-2 .12 0 .24.02.36.04.4.07.81-.02 1.14-.26s.55-.6.61-1l.01-.1c.06-.4-.05-.81-.3-1.13s-.62-.53-1.03-.57c-1.02-.11-1.79-.95-1.79-1.97 0-1.1.9-2 2-2 .14 0 .3.02.49.07.71.18 1.45-.18 1.75-.86l.06-.13c.2-.46.16-.98-.11-1.41-.27-.42-.73-.68-1.23-.69-1.1-.03-1.95-.9-1.95-1.99 0-1.1.9-2 2-2 .52 0 1.01.2 1.38.55.02.02.04.04.06.06.33.38.53.87.53 1.39 0 .22-.04.45-.14.69-.1.27-.12.55-.06.83l2.99 14.42c.1.5.46.92.94 1.1s1.02.11 1.43-.2c3.26-2.44 7.76-3.84 12.34-3.84 3.27 0 6.49.7 9.3 2.02.37.18.8.19 1.19.04.15-.06.28-.14.4-.23.89-.28 2.44-.98 3.2-2.65.8-1.77.41-3.95-1.17-6.5-.25-.41-.69-.67-1.17-.71-1.82-.13-3.25-1.66-3.25-3.47 0-1.93 1.57-3.5 3.5-3.5s3.5 1.57 3.5 3.5c0 .75-.25 1.47-.72 2.09-.15.19-.24.42-.28.65-.31 1.18.33 2.69 1.41 5.22 1.89 4.43 4.73 11.11 1.07 14.9z"/><path d="m46 24.5h-6.5c-1.38 0-2.5 1.12-2.5 2.5 0 .28.22.5.5.5h6.93c-.64 7.19-5.85 13-11.93 13-4.29 0-8.27-2.74-10.39-7 1.04 0 1.89-.85 1.89-1.89v-.61c0-.28-.22-.5-.5-.5h-3.63c-.48 0-.93.23-1.22.62-.28.39-.36.89-.21 1.35 2.18 6.6 7.83 11.03 14.05 11.03 8.13 0 15-8.01 15-17.5.01-.82-.66-1.5-1.49-1.5z"/></svg>