<svg enable-background="new 0 0 60 60" viewBox="0 0 60 60" xmlns="http://www.w3.org/2000/svg"><path d="m29 22.5h2c.28 0 .5-.22.5-.5v-5c0-.28-.22-.5-.5-.5-1.38 0-2.5 1.12-2.5 2.5v3c0 .28.22.5.5.5z"/><path d="m57.45 4.5c-1.34-.82-5.65-3-13.45-3-9.04 0-13.55 6.57-14.91 9h-2.1c-6.22 0-11.42 4.48-12.36 10.65-.75 4.87-1.13 9.53-1.13 13.85 0 9.57 1.84 17.79 2.67 21 .07.29.18.67.29 1.05.24.86 1.03 1.45 1.92 1.45h23.23c.89 0 1.68-.59 1.92-1.45.11-.38.21-.76.29-1.05.83-3.21 2.67-11.43 2.67-21 0-9.71-1.9-18.64-2.7-22-.06-.27-.16-.64-.25-1-.23-.88-1.03-1.49-1.93-1.49h-8.95c1.75-2.4 5.36-6 11.34-6 5.13 0 8.53 1.03 10.39 1.81 1.06.45 2.29.12 2.98-.8l.22-.29c.17-.24.11-.58-.14-.73zm-16.59 51h-21.71c-.38-1.46-1.06-4.31-1.63-8h24.97c-.58 3.69-1.26 6.54-1.63 8zm2.64-20.5c0 3.38-.25 6.61-.6 9.5h-25.8c-.35-2.89-.6-6.12-.6-9.5 0-4.17.37-8.67 1.09-13.39.72-4.7 4.67-8.11 9.4-8.11h13.84c.73 3.05 2.67 12 2.67 21.5z"/></svg>