<svg enable-background="new 0 0 60 60" viewBox="0 0 60 60" xmlns="http://www.w3.org/2000/svg"><path d="m26.39 30.1 10.38-5.19c1.47-.74 1.47-2.84 0-3.58l-10.38-5.19c-1.33-.66-2.89.3-2.89 1.79v10.38c0 1.49 1.56 2.45 2.89 1.79zm.11-10.55 7.15 3.57-7.15 3.57z"/><path d="m56.5 7.5h-53c-1.1 0-2 .9-2 2v25.5c0 6.35 5.15 11.5 11.5 11.5h11.5v3h-5c-.28 0-.5.22-.5.5 0 1.38 1.12 2.5 2.5 2.5h19c.28 0 .5-.22.5-.5v-2c0-.28-.22-.5-.5-.5h-5v-3h21c1.1 0 2-.9 2-2v-35c0-1.1-.9-2-2-2zm-52 3h51v25h-50.97c-.01-.17-.03-.33-.03-.5zm28 39h-5v-3h5zm-19.5-6c-3.45 0-6.4-2.05-7.74-5h50.24v5z"/></svg>