<svg viewBox="0 0 60 60" xmlns="http://www.w3.org/2000/svg"><path d="M9.5 25.5h15c1.1 0 2-.9 2-2v-11c0-1.1-.9-2-2-2h-15c-1.1 0-2 .9-2 2v11c0 1.1.9 2 2 2zm1-12h13v9h-13zM22.23 36.68h-6.47l4.15-4.15c.98-.98.98-2.56 0-3.54-.2-.2-.51-.2-.71 0l-7.27 7.27c-1.26 1.26-.37 3.41 1.41 3.41h6.47l-6.88 6.89v-1.29c0-1.38-1.12-2.5-2.5-2.5-.28 0-.5.22-.5.5v6.42c0 1.1.9 2 2 2h6.42c.28 0 .5-.22.5-.5 0-1.38-1.12-2.5-2.5-2.5h-1.3l8.59-8.59c1.26-1.26.37-3.42-1.41-3.42z"/><path d="M56.5 10.5h-2v-2C54.5 7.12 53.38 6 52 6c-.28 0-.5.22-.5.5v4h-5v-4c0-.28-.22-.5-.5-.5-1.38 0-2.5 1.12-2.5 2.5v2h-2c-1.1 0-2 .9-2 2V20c0 3.04 2.46 5.5 5.5 5.5h2.5V54c0 .83-.67 1.5-1.5 1.5s-1.5-.67-1.5-1.5V36c0-2.48-2.02-4.5-4.5-4.5h-7.5v-28c0-1.1-.9-2-2-2h-27c-1.1 0-2 .9-2 2V47c0 6.35 5.15 11.5 11.5 11.5h17.5c1.1 0 2-.9 2-2v-22H40c.83 0 1.5.67 1.5 1.5v18c0 2.48 2.02 4.5 4.5 4.5s4.5-2.02 4.5-4.5V25.5H53c3.04 0 5.5-2.46 5.5-5.5v-7.5c0-1.1-.9-2-2-2zm-27 45H13c-4.69 0-8.5-3.81-8.5-8.5V4.5h25zm26-35.5c0 1.38-1.12 2.5-2.5 2.5h-8c-1.38 0-2.5-1.12-2.5-2.5v-6.5h13z"/></svg>