<svg viewBox="0 0 60 60" xmlns="http://www.w3.org/2000/svg"><path d="M28.17 1.56C13.99 2.45 2.45 13.99 1.56 28.17.53 44.53 13.4 58.21 29.49 58.5c.28 0 .51-.23.51-.51v-.1c0-1.31-1.01-2.37-2.31-2.49C14.71 54.22 4.5 43.28 4.5 30c0-14.48 12.14-26.19 26.78-25.47 12.25.6 22.53 10.09 24.02 22.27 1.09 8.94-2.44 17.53-9.37 23.11-.01.01-1.03.87-2.79 1.44-1.84.59-3.69.57-3.73.57-4.36 0-7.91-3.55-7.91-7.91v-4.5h4c3.86 0 7-3.09 7-6.89v-10.3c0-1.1-.9-2-2-2h-3.55V16.5c0-1.38-1.12-2.5-2.5-2.5-.28 0-.5.22-.5.5v5.82h-7.91V14.5c0-.28-.22-.5-.5-.5-1.38 0-2.5 1.12-2.5 2.5v3.82H19.5c-1.1 0-2 .9-2 2v10.29c0 3.8 3.14 6.89 7 6.89h4V44c0 6.02 4.9 10.91 10.88 10.91.09 0 2.35.04 4.68-.71 2.35-.76 3.7-1.9 3.79-1.99C54.62 46.77 58.5 38.67 58.5 30 58.5 13.68 44.71.52 28.17 1.56zM20.5 32.61v-9.29h19v9.29c0 2.15-1.79 3.89-4 3.89h-11c-2.21 0-4-1.75-4-3.89z"/></svg>