<svg enable-background="new 0 0 60 60" viewBox="0 0 60 60" xmlns="http://www.w3.org/2000/svg"><path d="m27.14 42.17c-1.56 1.56-1.56 4.09 0 5.66 1.56 1.56 4.09 1.56 5.66 0 1.56-1.56 1.56-4.09 0-5.66-1.57-1.56-4.1-1.56-5.66 0z"/><path d="m57.7 22.58c-15.38-14.99-40.02-14.99-55.4 0-.2.2-.2.52 0 .72l.05.05c.94.94 2.44.96 3.44.09.34-.3.68-.59 1.02-.87 13.7-11.19 33.67-10.97 47.13.64.09.08.18.16.27.24 1 .88 2.49.85 3.43-.09l.05-.05c.21-.21.21-.53.01-.73z"/><path d="m8.96 29.21c-.2.2-.2.52 0 .72l.06.07c.93.93 2.4.96 3.4.12.44-.37.9-.73 1.36-1.07 9.81-7.27 23.42-7.13 33.08.43.29.22.57.46.85.69.98.83 2.44.74 3.35-.17l.07-.07c.2-.2.2-.53 0-.72-11.75-11.34-30.45-11.34-42.17 0z"/><path d="m29.97 30.7c-5.25 0-10.19 1.98-13.97 5.58-.2.19-.2.52-.01.72l.1.1c.89.89 2.3.98 3.29.21.37-.29.74-.56 1.13-.81 2.79-1.83 6.04-2.81 9.45-2.81 3.59 0 7.01 1.09 9.89 3.1.25.17.49.35.73.54.98.76 2.38.64 3.26-.23l.1-.1c.2-.2.2-.53-.01-.72-3.78-3.6-8.72-5.58-13.96-5.58z"/></svg>