<svg enable-background="new 0 0 60 60" viewBox="0 0 60 60" xmlns="http://www.w3.org/2000/svg"><path d="m56.5 40.5h-1v-10.5c0-11.65-8.38-21.55-20.08-23.95-.45-2.58-2.71-4.55-5.42-4.55s-4.97 1.97-5.42 4.55c-11.7 2.4-20.08 12.3-20.08 23.95v10.5h-1c-1.1 0-2 .9-2 2v8c0 1.1.9 2 2 2h19.15c.7 3.42 3.73 6 7.35 6s6.65-2.58 7.35-6h19.15c1.1 0 2-.9 2-2v-8c0-1.1-.9-2-2-2zm-26.5 15c-1.95 0-3.6-1.26-4.22-3h8.45c-.63 1.74-2.28 3-4.23 3zm25.5-6h-51v-6h1c1.1 0 2-.9 2-2v-11.5c0-10.41 7.67-19.24 18.26-21.12.01 0 .03 0 .06-.01.95-.12 1.66-.91 1.68-1.86v-.01c0-1.38 1.12-2.5 2.5-2.5s2.5 1.12 2.5 2.5v.06c.04.9.7 1.65 1.59 1.79h.01c10.68 1.86 18.4 10.71 18.4 21.15v11.5c0 1.1.9 2 2 2h1z"/></svg>