<svg enable-background="new 0 0 60 60" viewBox="0 0 60 60" xmlns="http://www.w3.org/2000/svg"><path d="m52.35 5.45c-3.54-3.08-7.96-4.43-12.44-3.8l-.11.02c-.35.05-.7.12-1.04.19-3.36.73-6.47 2.72-8.76 5.55-2.29-2.83-5.4-4.83-8.75-5.56-.35-.08-.69-.14-1.04-.19l-.12-.02c-4.48-.63-8.9.72-12.44 3.8-3.91 3.41-6.15 8.47-6.15 13.89v.62c0 5.28 1.92 10.27 5.39 14.06l21.63 23.6c.79.86 2.16.86 2.95 0l21.63-23.6c3.48-3.79 5.4-8.78 5.4-14.06v-.62c0-5.42-2.24-10.48-6.15-13.88zm3.15 14.51c0 4.53-1.63 8.8-4.61 12.03l-20.89 22.79-20.9-22.79c-2.97-3.23-4.6-7.5-4.6-12.03v-.62c0-4.55 1.87-8.79 5.12-11.62 2.41-2.1 5.31-3.21 8.36-3.21.59 0 1.19.04 1.78.13.28.04.57.09.85.16 3.13.68 6.02 2.76 7.93 5.71.69 1.06 2.24 1.06 2.93 0 1.91-2.95 4.79-5.03 7.93-5.71.28-.06.56-.11.94-.17 3.6-.51 7.18.59 10.05 3.09 3.25 2.83 5.12 7.06 5.12 11.62z"/></svg>