<svg enable-background="new 0 0 60 60" viewBox="0 0 60 60" xmlns="http://www.w3.org/2000/svg"><path d="m55.53 21.1-17.91-.2-5.73-16.98c-.61-1.81-3.18-1.81-3.79 0l-5.72 16.98-17.92.2c-1.91.02-2.71 2.46-1.17 3.6l14.38 10.7-5.34 17.1c-.57 1.83 1.5 3.34 3.07 2.23l14.6-10.37 14.61 10.37c1.56 1.11 3.64-.4 3.07-2.23l-5.34-17.1 14.36-10.7c1.54-1.14.75-3.58-1.17-3.6zm-15.56 12.31c-.68.51-.97 1.39-.72 2.2l4.67 14.95-12.76-9.06c-.69-.49-1.62-.49-2.31 0l-12.77 9.06 4.67-14.95c.25-.81-.03-1.69-.72-2.2l-12.57-9.34 15.66-.18c.85-.01 1.6-.56 1.87-1.36l5.01-14.84 5.01 14.84c.27.81 1.02 1.35 1.87 1.36l15.66.18z"/></svg>