<svg enable-background="new 0 0 60 60" viewBox="0 0 60 60" xmlns="http://www.w3.org/2000/svg"><path d="m51.8 40.29c0-1.67-.63-3.17-1.83-4.33-.39-.38-.82-.71-1.29-1 .7-.36 1.31-.79 1.83-1.3 1.22-1.19 1.85-2.75 1.83-4.51-.04-4.37-4.18-7.01-8.16-7.05-1.46-.01-4.1-.01-5.76 0-.03-3.43-.11-11.67-.12-12.92-.05-3.25-2.24-7.71-6.25-7.71-.03 0-.05 0-.08 0-3.87.05-6.28 3.57-6.88 6.81-.19 1.04-.25 2.18-.3 3.38-.16 3.43-.32 6.99-3.65 8.76-3.02 1.61-5.55 2.79-7.41 3.65-1.58.74-2.63 1.22-3.22 1.62-.87.59-2.89 2.31-2.89 5.69v14.29c0 6.01 4.7 11.05 10.69 11.47 8.56.6 19.52 1.32 23.07 1.32 3.8 0 9.29-2.51 9.29-7.06 0-2.29-1.39-4.06-3.25-5.26 2.41-1.02 4.38-2.83 4.38-5.85zm-9.93 4.05c-.26.01-.47.23-.47.5v.27c0 1.15.75 2.2 1.87 2.49.14.04.29.08.43.12 2.12.65 3.99 2.09 3.99 3.7 0 2.19-3.46 4.06-6.29 4.06-3.47 0-14.35-.72-22.87-1.32-4.45-.31-7.89-4.01-7.89-8.48v-14.29c0-1.94 1.09-2.89 1.56-3.21.39-.27 1.51-.79 2.81-1.39 1.88-.88 4.46-2.08 7.55-3.72 4.84-2.57 5.07-7.6 5.24-11.27.05-1.1.1-2.14.25-2.97.32-1.73 1.65-4.32 3.98-4.36h.03c2.12 0 3.23 3.04 3.25 4.75.02 1.57.14 14.39.14 14.39.01.83.68 1.49 1.51 1.49 0 0 4.99-.02 7.21 0 2.53.02 5.16 1.55 5.19 4.08.01.95-.3 1.71-.93 2.33-1.03 1.01-2.93 1.6-5.44 1.71-.11 0-.69.01-1.13.01-.28 0-.5.22-.5.5v.14c0 1.29.99 2.36 2.27 2.49.05.01.1.01.13.02 1.6.25 3.18.8 4.12 1.73.62.6.92 1.31.92 2.18 0 3.08-4.71 3.94-6.93 4.05z"/></svg>