<svg enable-background="new 0 0 60 60" viewBox="0 0 60 60" xmlns="http://www.w3.org/2000/svg"><path d="m50.53 26.3c-.52-.51-1.13-.94-1.83-1.3.47-.29.9-.62 1.29-1 1.19-1.16 1.83-2.66 1.83-4.33 0-3.01-1.98-4.83-4.37-5.87 1.87-1.2 3.25-2.97 3.25-5.26 0-4.55-5.49-7.06-9.29-7.06-3.55 0-14.51.72-23.07 1.32-6 .42-10.69 5.46-10.69 11.47v14.29c0 3.38 2.02 5.11 2.89 5.69.59.4 1.64.89 3.22 1.62 1.85.86 4.39 2.04 7.41 3.65 3.33 1.77 3.49 5.32 3.65 8.76.06 1.21.11 2.35.3 3.38.6 3.24 3.01 6.75 6.88 6.81h.08c4.01 0 6.21-4.46 6.25-7.71.02-1.24.09-9.49.12-12.92 1.66 0 4.3.01 5.76 0 3.98-.04 8.12-2.68 8.16-7.05.01-1.74-.63-3.3-1.84-4.49zm-6.36 8.55c-2.22.02-7.21 0-7.21 0-.83 0-1.5.66-1.51 1.49s-.12 12.82-.14 14.39c-.02 1.71-1.13 4.75-3.25 4.75-.01 0-.02 0-.03 0-2.33-.03-3.65-2.62-3.98-4.36-.15-.83-.2-1.87-.25-2.97-.17-3.67-.4-8.69-5.24-11.27-3.09-1.64-5.67-2.84-7.55-3.72-1.3-.6-2.42-1.12-2.81-1.39-.47-.32-1.56-1.26-1.56-3.21v-14.29c0-4.46 3.44-8.16 7.89-8.48 8.52-.6 19.4-1.32 22.87-1.32 2.83 0 6.29 1.87 6.29 4.06 0 1.61-1.88 3.05-3.99 3.7-.14.04-.28.08-.43.12-1.12.28-1.87 1.33-1.87 2.49v.27c0 .27.2.48.47.5 2.21.11 6.93.97 6.93 4.05 0 .87-.3 1.58-.92 2.18-.95.92-2.53 1.48-4.12 1.73-.03 0-.08.01-.13.02-1.29.13-2.27 1.2-2.27 2.49v.14c0 .28.22.5.5.5.44 0 1.02 0 1.13.01 2.5.11 4.4.7 5.44 1.71.64.62.94 1.39.93 2.33-.02 2.53-2.66 4.06-5.19 4.08z"/></svg>